<?xml version="1.0" encoding="iso-8859-1"?>
<!-- Generator: Adobe Illustrator 19.0.0, SVG Export Plug-In . SVG Version: 6.00 Build 0)  -->
<svg version="1.1" id="Capa_1" xmlns="http://www.w3.org/2000/svg" xmlns:xlink="http://www.w3.org/1999/xlink" x="0px" y="0px"
	 viewBox="0 0 512 512" style="enable-background:new 0 0 512 512;" xml:space="preserve">
<path style="fill:#374266;" d="M512,256c0,22.758-2.967,44.816-8.547,65.818c-1.797,6.781-3.866,13.458-6.196,20.01
	c-19.132,53.781-55.745,99.286-103.006,129.661c-10.25,6.593-21.002,12.476-32.183,17.575c-5.005,2.278-10.094,4.409-15.266,6.363
	c-12.57,4.775-25.61,8.579-39.027,11.337h-0.01c-12.967,2.664-26.3,4.347-39.905,4.963C263.931,511.906,259.971,512,256,512
	c-3.762,0-7.513-0.084-11.233-0.251c-27.042-1.16-52.997-6.52-77.228-15.444c-6.196-2.278-12.267-4.786-18.223-7.523
	c-11.295-5.193-22.152-11.17-32.486-17.889c-6.886-4.462-13.531-9.247-19.937-14.336c-35.443-28.139-63.248-65.484-79.809-108.429
	c-2.278-5.872-4.326-11.849-6.165-17.93C3.814,306.719,0,281.799,0,256c0-32.475,6.05-63.551,17.084-92.139
	c0.052-0.146,0.115-0.293,0.167-0.439C27.387,137.32,41.66,113.298,59.288,92.16c0.481-0.575,0.961-1.149,1.452-1.724
	C107.698,35.109,177.748,0,256,0C397.385,0,512,114.615,512,256z"/>
<path style="fill:#C5C6E0;" d="M240.194,83.579v75.91c0,7.422-6.017,13.438-13.438,13.438l0,0c-7.422,0-13.438-6.017-13.438-13.438
	V84.22c0-20.9-16.536-38.404-37.431-38.799c-21.381-0.404-38.902,16.869-38.902,38.16v75.91c0,7.422-6.017,13.438-13.438,13.438l0,0
	c-7.422,0-13.438-6.017-13.438-13.438V83.579c0-35.918,29.118-65.044,65.044-65.044S240.194,47.661,240.194,83.579z"/>
<path style="fill:#FF526C;" d="M346.802,92.16v403.268c-12.57,4.775-25.61,8.579-39.027,11.337h-0.01
	c-12.967,2.664-26.3,4.347-39.905,4.963C263.931,511.906,259.971,512,256,512c-3.762,0-7.513-0.084-11.233-0.251
	c-33.949-1.452-66.184-9.529-95.451-22.967c-11.295-5.193-22.152-11.17-32.486-17.889c-6.886-4.462-13.531-9.247-19.937-14.336
	c-35.443-28.139-63.248-65.484-79.809-108.429V92.16H346.802z"/>
<path style="fill:#E83150;" d="M74.722,436.761c-24.922-24.986-44.707-55.102-57.638-88.632V92.16h57.637L74.722,436.761z"/>
<path style="fill:#F2F2F7;" d="M284.95,83.579v75.91c0,7.422-6.017,13.438-13.438,13.438l0,0c-7.422,0-13.438-6.017-13.438-13.438
	V84.22c0-20.9-16.536-38.404-37.431-38.799c-21.381-0.404-38.902,16.869-38.902,38.16v75.91c0,7.422-6.017,13.438-13.438,13.438l0,0
	c-7.422,0-13.438-6.017-13.438-13.438V83.579c0-35.918,29.118-65.044,65.044-65.044S284.95,47.661,284.95,83.579z"/>
<path style="fill:#C5C6E0;" d="M390.965,177.949v75.91c0,7.422-6.017,13.438-13.438,13.438l0,0c-7.422,0-13.438-6.017-13.438-13.438
	V178.59c0-20.9-16.536-38.404-37.431-38.799c-21.381-0.404-38.902,16.869-38.902,38.16v75.91c0,7.422-6.017,13.438-13.438,13.438
	l0,0c-7.422,0-13.438-6.017-13.438-13.438v-75.91c0-35.918,29.118-65.044,65.044-65.044S390.965,142.031,390.965,177.949z"/>
<path style="fill:#FFE261;" d="M497.257,204.999v136.829c-19.132,53.781-55.745,99.286-103.006,129.661
	c-10.25,6.593-21.002,12.476-32.183,17.575c-5.005,2.278-10.094,4.409-15.266,6.363c-12.57,4.775-25.61,8.579-39.027,11.337h-0.01
	c-12.967,2.664-26.3,4.347-39.905,4.963C263.931,511.906,259.971,512,256,512c-3.762,0-7.513-0.084-11.233-0.251
	c-27.042-1.16-52.997-6.52-77.228-15.444V204.999H497.257z"/>
<path style="fill:#F58D2C;" d="M224.815,510.115c-9.275,0.354-47.182-9.261-57.276-13.809V204.999h57.637L224.815,510.115z"/>
<path style="fill:#F2F2F7;" d="M433.666,177.949v75.91c0,7.422-6.017,13.438-13.438,13.438l0,0c-7.422,0-13.438-6.017-13.438-13.438
	V178.59c0-20.9-16.536-38.404-37.431-38.799c-21.381-0.404-38.902,16.869-38.902,38.16v75.91c0,7.422-6.017,13.438-13.438,13.438
	l0,0c-7.422,0-13.438-6.017-13.438-13.438v-75.91c0-35.918,29.117-65.044,65.044-65.044S433.666,142.031,433.666,177.949z"/>
<g>
</g>
<g>
</g>
<g>
</g>
<g>
</g>
<g>
</g>
<g>
</g>
<g>
</g>
<g>
</g>
<g>
</g>
<g>
</g>
<g>
</g>
<g>
</g>
<g>
</g>
<g>
</g>
<g>
</g>
</svg>
