<?xml version="1.0" encoding="iso-8859-1"?>
<!-- Generator: Adobe Illustrator 19.0.0, SVG Export Plug-In . SVG Version: 6.00 Build 0)  -->
<svg version="1.1" id="Capa_1" xmlns="http://www.w3.org/2000/svg" xmlns:xlink="http://www.w3.org/1999/xlink" x="0px" y="0px"
	 viewBox="0 0 512 512" style="enable-background:new 0 0 512 512;" xml:space="preserve">
<circle style="fill:#008CC3;" cx="256" cy="256" r="256"/>
<path style="fill:#0074A3;" d="M512,256c0-19.614-2.214-38.709-6.391-57.057l-96.276-96.276L102.667,409.333l96.276,96.276
	C217.292,509.786,236.387,512,256,512C397.385,512,512,397.385,512,256z"/>
<rect x="102.67" y="102.67" style="fill:#FFFFFF;" width="306.67" height="306.67"/>
<rect x="255.67" y="102.67" style="fill:#E0E0E0;" width="153.67" height="306.67"/>
<path style="fill:#F7674F;" d="M409.333,141.782v-14h-25.115v-25.115h-14v25.115h-19.551v-25.115h-14v25.115H175.333v-25.116h-14
	v25.116h-19.551v-25.116h-14v25.116h-25.115v14h25.115v19.551h-25.115v14h25.115v161.333h-25.115v14h25.115v19.551h-25.115v14
	h25.115v25.116h14v-25.116h19.551v25.116h14v-25.116h161.334v25.116h14v-25.116h19.551v25.116h14v-25.116h25.115v-14h-25.115
	v-19.551h25.115v-14h-25.115V175.333h25.115v-14h-25.115v-19.552h25.115V141.782z M336.667,141.782v19.552H175.333v-19.551
	L336.667,141.782z M336.667,175.333v161.333H175.333V175.333H336.667z M141.782,141.782h19.551v19.551h-19.551V141.782z
	 M141.782,175.333h19.551v161.333h-19.551V175.333z M141.782,370.218v-19.551h19.551v19.551H141.782z M175.333,370.218v-19.551
	h161.334v19.551H175.333z M370.218,370.218h-19.551v-19.551h19.551V370.218z M370.218,336.667h-19.551V175.333h19.551V336.667z
	 M370.218,161.333h-19.551v-19.552h19.551V161.333z"/>
<path style="fill:#C64534;" d="M409.333,141.782v-14h-25.115v-25.115h-14v25.115h-19.551v-25.115h-14v25.115h-81v14h81v19.552h-81
	v14h81v161.333h-81v14h81v19.551h-81v14h81v25.116h14v-25.116h19.551v25.116h14v-25.116h25.115v-14h-25.115v-19.551h25.115v-14
	h-25.115V175.333h25.115v-14h-25.115v-19.552h25.115V141.782z M370.218,370.218h-19.551v-19.551h19.551V370.218z M370.218,336.667
	h-19.551V175.333h19.551V336.667z M370.218,161.333h-19.551v-19.552h19.551V161.333z"/>
<g>
</g>
<g>
</g>
<g>
</g>
<g>
</g>
<g>
</g>
<g>
</g>
<g>
</g>
<g>
</g>
<g>
</g>
<g>
</g>
<g>
</g>
<g>
</g>
<g>
</g>
<g>
</g>
<g>
</g>
</svg>
