<?xml version="1.0" encoding="iso-8859-1"?>
<!-- Generator: Adobe Illustrator 19.0.0, SVG Export Plug-In . SVG Version: 6.00 Build 0)  -->
<svg version="1.1" id="Layer_1" xmlns="http://www.w3.org/2000/svg" xmlns:xlink="http://www.w3.org/1999/xlink" x="0px" y="0px"
	 viewBox="0 0 504 504" style="enable-background:new 0 0 504 504;" xml:space="preserve">
<circle style="fill:#324A5E;" cx="252" cy="252" r="252"/>
<path style="fill:#ACB3BA;" d="M422.8,163.7c0.2,0,0.3,0.1,0.5,0.1v-8.9H177.6v180.5h245.7v-8.9c-0.2,0-0.3,0.1-0.5,0.1
	c-1.1,0-1.9-0.9-1.9-1.9v-19.5c0-1.1,0.9-2,1.9-2c0.2,0,0.3,0.1,0.5,0.1V280c-0.2,0-0.3,0.1-0.5,0.1c-1.1,0-1.9-0.9-1.9-1.9v-19.5
	c0-1.1,0.9-2,1.9-2c0.2,0,0.3,0.1,0.5,0.1v-23.3c-0.2,0-0.3,0.1-0.5,0.1c-1.1,0-1.9-0.9-1.9-1.9v-19.5c0-1.1,0.9-2,1.9-2
	c0.2,0,0.3,0.1,0.5,0.1V187c-0.2,0-0.3,0.1-0.5,0.1c-1.1,0-1.9-0.9-1.9-1.9v-19.5C420.9,164.6,421.8,163.7,422.8,163.7z
	 M300.5,324.7c0,1.1-0.9,1.9-1.9,1.9c-1.1,0-2-0.9-2-1.9v-19.5c0-1.1,0.9-2,2-2s1.9,0.9,1.9,2V324.7z M300.5,278.2
	c0,1.1-0.9,1.9-1.9,1.9c-1.1,0-2-0.9-2-1.9v-19.5c0-1.1,0.9-2,2-2s1.9,0.9,1.9,2V278.2z M300.5,231.7c0,1.1-0.9,1.9-1.9,1.9
	c-1.1,0-2-0.9-2-1.9v-19.5c0-1.1,0.9-2,2-2s1.9,0.9,1.9,2V231.7z M300.5,185.1c0,1.1-0.9,1.9-1.9,1.9c-1.1,0-2-0.9-2-1.9v-19.5
	c0-1.1,0.9-2,2-2s1.9,0.9,1.9,2V185.1z"/>
<path style="fill:#E6E9EE;" d="M280.6,185.7V357c0,17-44.7,30.8-99.9,30.8S80.8,374,80.8,357V185.7H280.6z"/>
<ellipse style="fill:#CED5E0;" cx="180.6" cy="185.7" rx="99.9" ry="30.8"/>
<ellipse style="fill:#324A5E;" cx="180.6" cy="185.7" rx="37.1" ry="11.5"/>
<g>
</g>
<g>
</g>
<g>
</g>
<g>
</g>
<g>
</g>
<g>
</g>
<g>
</g>
<g>
</g>
<g>
</g>
<g>
</g>
<g>
</g>
<g>
</g>
<g>
</g>
<g>
</g>
<g>
</g>
</svg>
