<?xml version="1.0" encoding="iso-8859-1"?>
<!-- Generator: Adobe Illustrator 19.0.0, SVG Export Plug-In . SVG Version: 6.00 Build 0)  -->
<svg version="1.1" id="Capa_1" xmlns="http://www.w3.org/2000/svg" xmlns:xlink="http://www.w3.org/1999/xlink" x="0px" y="0px"
	 viewBox="0 0 512 512" style="enable-background:new 0 0 512 512;" xml:space="preserve">
<circle style="fill:#FFD62C;" cx="256" cy="256" r="256"/>
<path style="fill:#FFAE39;" d="M512,256c0-5.852-0.215-11.654-0.601-17.408L353.623,80.816l-1.529,9.927l-23.077-23.077
	l-10.464,69.846l-69.947,48.321l48.319,48.319L149.203,430.675l79.923,79.923C237.959,511.52,246.923,512,256,512
	C397.385,512,512,397.385,512,256z"/>
<polygon style="fill:#30FCF1;" points="321.742,233.966 248.605,185.833 353.623,80.816 401.755,153.953 "/>
<polygon style="fill:#07E2D2;" points="353.623,80.816 304.85,129.588 365.485,190.223 401.755,153.953 "/>
<rect x="247.727" y="80.428" transform="matrix(-0.7071 -0.7071 0.7071 -0.7071 267.509 662.7089)" style="fill:#455EEF;" width="46.559" height="391.046"/>
<rect x="265.576" y="87.834" transform="matrix(-0.7071 -0.7071 0.7071 -0.7071 274.8886 680.5765)" style="fill:#0053BF;" width="25.64" height="391.046"/>
<path style="fill:#FFFFFF;" d="M256.784,162.34l7.657,7.657l60.14-60.14c13.162-13.162,13.162-34.502,0-47.665l-7.657-7.657
	l-60.14,60.14C243.622,127.837,243.622,149.177,256.784,162.34z"/>
<path style="fill:#E1FFFA;" d="M324.581,109.857c13.162-13.162,13.162-34.502,0-47.665l-7.657-7.657L273.36,98.099l31.49,31.49
	L324.581,109.857z"/>
<g>
</g>
<g>
</g>
<g>
</g>
<g>
</g>
<g>
</g>
<g>
</g>
<g>
</g>
<g>
</g>
<g>
</g>
<g>
</g>
<g>
</g>
<g>
</g>
<g>
</g>
<g>
</g>
<g>
</g>
</svg>
