<svg viewBox="0 0 512 512.00005" xmlns="http://www.w3.org/2000/svg"><path d="m511.996094 256c0 141.386719-114.613282 256-255.996094 256s-256-114.613281-256-256c0-141.382812 114.617188-255.99609375 256-255.99609375s255.996094 114.61328175 255.996094 255.99609375zm0 0" fill="#838aed"/><path d="m0 256c0 141.386719 114.617188 256 256 256s255.996094-114.613281 255.996094-256c0-22.828125-3.003906-44.953125-8.609375-66.015625h-494.773438c-5.605469 21.0625-8.613281 43.1875-8.613281 66.015625zm0 0" fill="#686bdf"/><path d="m274.324219 256c0-22.828125 3.003906-44.953125 8.613281-66.015625h-274.324219c-5.609375 21.0625-8.613281 43.1875-8.613281 66.015625 0 141.386719 114.613281 256 256 256 50.464844 0 97.511719-14.609375 137.160156-39.820312-71.433594-45.417969-118.835937-125.257813-118.835937-216.179688zm0 0" fill="#4352bf"/><path d="m295.65625 372.457031-24.628906 26.089844c-3.148438 3.335937-7.53125 5.226563-12.117188 5.226563h-209.550781c-8.375 0-15.488281 6.589843-15.640625 14.964843-.164062 9.011719 7.09375 16.367188 16.066406 16.367188h245.679688c17.351562 0 31.417968-14.066407 31.417968-31.417969.003907-17.25-13.980468-31.230469-31.226562-31.230469zm0 0" fill="#a3ccef"/><path d="m322.097656 420.351562 30.292969-43.523437c-9.898437-20.835937-31.132813-35.25-55.734375-35.25h-101.054688c-5.855468 0-9.296874-6.582031-5.957031-11.390625l167.78125-241.511719h-113.398437c-16.894532 0-30.375 9.363281-39.949219 22.332031l-195.550781 281.382813c8.484375-12.050781 22.492187-19.933594 38.351562-19.933594h248.777344c17.246094 0 31.230469 13.980469 31.230469 31.230469 0 6.121094-1.757813 11.832031-4.789063 16.664062zm0 0" fill="#eaf3f9"/><path d="m352.390625 376.828125-30.292969 43.523437c-5.554687 8.859376-15.402344 14.753907-26.632812 14.753907h-245.679688c-8.972656 0-16.226562-7.355469-16.066406-16.367188.152344-8.378906 7.265625-14.964843 15.640625-14.964843h209.550781c4.585938 0 8.96875-1.890626 12.117188-5.226563l24.628906-26.09375h-248.777344c-15.859375 0-29.867187 7.882813-38.351562 19.9375l-.011719-.007813c-5.363281 7.625-8.515625 16.917969-8.515625 26.949219 0 27.015625 21.902344 48.917969 48.917969 48.917969h244.414062c23.914063 0 44.808594-12.914062 56.097657-32.148438 5.65625-9.636718 8.898437-20.863281 8.898437-32.847656 0-9.457031-2.136719-18.414062-5.9375-26.425781zm0 0" fill="#c6e0f4"/><path d="m322.097656 420.351562 30.292969-43.523437c0-.585937-.011719-1.167969-.03125-1.742187-.757813-23.636719-20.625-42.1875-44.269531-42.1875-24.621094 0-224.066406 0-246.898438 0-4.164062 0-8.230468.421874-12.164062 1.214843l-40.5 58.277344c8.484375-12.050781 22.492187-19.933594 38.351562-19.933594h248.777344c17.246094 0 31.230469 13.980469 31.230469 31.230469 0 6.125-1.757813 11.832031-4.789063 16.664062zm0 0" fill="#67aae6"/><path d="m507.574219 208.460938c-11.339844-60.367188-43.859375-113.261719-89.558594-150.664063h-32.214844c-4.339843 0-8.398437 2.125-10.875 5.6875l-185.28125 266.703125c-3.34375 4.8125.101563 11.390625 5.957031 11.390625h101.054688c34.0625 0 61.671875 27.613281 61.671875 61.675781 0 11.984375-3.242187 23.210938-8.898437 32.851563zm0 0" fill="#c6e0f4"/><path d="m421.382812 332.527344c-1.421874-37.339844-32.125-67.175782-69.8125-67.175782h-114.5c-.769531 0-1.492187-.109374-2.179687-.292968l-45.246094 65.128906c-3.34375 4.8125.101563 11.390625 5.957031 11.390625h101.054688c34.0625 0 61.671875 27.613281 61.671875 61.675781 0 11.984375-3.242187 23.210938-8.898437 32.851563zm0 0" fill="#a3ccef"/><path d="m392.453125 374.171875c-2.175781-40.210937-35.464844-72.148437-76.21875-72.148437h-107.023437l-19.566407 28.164062c-3.339843 4.808594.101563 11.390625 5.957031 11.390625h101.054688c34.0625 0 61.671875 27.613281 61.671875 61.675781 0 11.984375-3.242187 23.210938-8.898437 32.847656zm0 0" fill="#4c98e0"/><path d="m295.65625 276.660156-24.628906 26.09375c-3.148438 3.335938-7.53125 5.222656-12.117188 5.222656h-209.550781c-8.375 0-15.488281 6.589844-15.640625 14.964844-.164062 9.011719 7.09375 16.371094 16.066406 16.371094h245.679688c17.351562 0 31.417968-14.070312 31.417968-31.421875.003907-17.246094-13.980468-31.230469-31.226562-31.230469zm0 0" fill="#a3ccef"/><path d="m342.144531 14.875c-40.476562-14.460938-84.078125-18.429688-126.605469-11.679688-4.277343 3.40625-8.113281 7.484376-11.460937 12.019532l-195.550781 281.382812c8.484375-12.054687 22.492187-19.933594 38.351562-19.933594h248.777344c17.246094 0 31.230469 13.980469 31.230469 31.226563 0 6.125-1.761719 11.835937-4.789063 16.667969l30.292969-43.523438c-9.898437-20.835937-31.132813-35.246094-55.734375-35.246094h-101.054688c-5.855468 0-9.296874-6.585937-5.957031-11.394531zm0 0" fill="#eaf3f9"/><path d="m296.65625 245.785156h-101.054688c-5.855468 0-9.296874-6.582031-5.957031-11.390625l19.507813-28.082031h-127.148438c-3.964844 0-7.828125.425781-11.5625 1.195312l-61.914062 89.089844c8.484375-12.054687 22.492187-19.933594 38.351562-19.933594h248.777344c17.246094 0 31.230469 13.980469 31.230469 31.226563 0 6.125-1.761719 11.835937-4.789063 16.667969l30.292969-43.523438c-9.898437-20.839844-31.132813-35.25-55.734375-35.25zm0 0" fill="#c6e0f4"/><path d="m352.390625 281.035156-30.292969 43.519532c-5.554687 8.859374-15.402344 14.753906-26.632812 14.753906h-245.679688c-8.972656 0-16.226562-7.355469-16.066406-16.367188.152344-8.375 7.265625-14.964844 15.640625-14.964844h209.550781c4.585938 0 8.96875-1.890624 12.117188-5.222656l24.628906-26.09375h-248.777344c-15.859375 0-29.867187 7.882813-38.351562 19.9375l-.011719-.007812c-5.363281 7.621094-8.515625 16.917968-8.515625 26.949218 0 27.015626 21.902344 48.914063 48.917969 48.914063h244.414062c23.914063 0 44.808594-12.910156 56.097657-32.144531 5.65625-9.636719 8.898437-20.867188 8.898437-32.851563 0-9.453125-2.136719-18.410156-5.9375-26.421875zm0 0" fill="#c6e0f4"/><path d="m63.78125 339.308594h-13.996094c-8.972656 0-16.226562-7.355469-16.066406-16.367188.152344-8.375 7.265625-14.964844 15.640625-14.964844h14.460937c1.4375-4.082031 3.417969-7.910156 5.863282-11.386718l.011718.007812c8.480469-12.054687 22.492188-19.9375 38.347657-19.9375h-61.164063c-15.859375 0-29.867187 7.882813-38.351562 19.9375l-.007813-.007812c-5.367187 7.625-8.519531 16.917968-8.519531 26.949218 0 27.015626 21.902344 48.917969 48.917969 48.917969h61.164062c-21.496093 0-39.738281-13.871093-46.300781-33.148437zm0 0" fill="#a3ccef"/><path d="m322.097656 324.558594 30.292969-43.523438c0-.589844-.011719-1.167968-.03125-1.746094-.757813-23.632812-20.625-42.183593-44.269531-42.183593-24.621094 0-224.066406 0-246.898438 0-4.164062 0-8.230468.421875-12.164062 1.210937l-40.5 58.28125c8.484375-12.050781 22.492187-19.933594 38.351562-19.933594h248.777344c17.246094 0 31.230469 13.980469 31.230469 31.226563 0 6.125-1.757813 11.835937-4.789063 16.667969zm0 0" fill="#f9918f"/><path d="m486.0625 143.628906c-29.171875-59.613281-80.824219-106.207031-143.917969-128.753906l-152.5 219.519531c-3.34375 4.808594.101563 11.390625 5.957031 11.390625h101.054688c34.0625 0 61.671875 27.613282 61.671875 61.675782 0 11.984374-3.242187 23.210937-8.898437 32.851562zm0 0" fill="#c6e0f4"/><path d="m416.5 243.761719c-2.394531-38.945313-34.722656-69.792969-74.269531-69.792969h-110.609375l-41.976563 60.425781c-3.34375 4.808594.101563 11.390625 5.957031 11.390625h101.054688c34.0625 0 61.671875 27.613282 61.671875 61.675782 0 11.980468-3.242187 23.210937-8.898437 32.847656zm0 0" fill="#a3ccef"/><path d="m392.453125 278.378906c-2.175781-40.210937-35.464844-72.148437-76.21875-72.148437h-107.023437l-19.566407 28.164062c-3.339843 4.808594.101563 11.390625 5.957031 11.390625h101.054688c34.0625 0 61.671875 27.613282 61.671875 61.675782 0 11.984374-3.242187 23.210937-8.898437 32.851562zm0 0" fill="#fb5c4b"/><path d="m60.875 324.558594c0-5.828125 1.042969-11.414063 2.949219-16.582032h-14.464844c-8.375 0-15.488281 6.589844-15.640625 14.964844-.164062 9.015625 7.09375 16.371094 16.066406 16.371094h13.996094c-1.503906-4.652344-2.90625-9.605469-2.90625-14.753906zm0 0" fill="#85bbeb"/><path d="m63.78125 435.105469h-13.996094c-8.972656 0-16.226562-7.355469-16.066406-16.367188.152344-8.378906 7.265625-14.964843 15.640625-14.964843h14.460937c1.4375-4.085938 3.417969-7.914063 5.863282-11.390626l.011718.007813c8.480469-12.054687 22.492188-19.9375 38.347657-19.9375h-61.164063c-15.859375 0-29.867187 7.882813-38.351562 19.9375l-.007813-.007813c-5.367187 7.625-8.519531 16.917969-8.519531 26.953126 0 27.015624 21.902344 48.914062 48.917969 48.914062h61.164062c-21.496093 0-39.738281-13.871094-46.300781-33.144531zm0 0" fill="#a3ccef"/><path d="m60.875 420.351562c0-5.828124 1.042969-11.414062 2.949219-16.578124h-14.464844c-8.375 0-15.488281 6.585937-15.640625 14.964843-.164062 9.011719 7.09375 16.367188 16.066406 16.367188h13.996094c-1.503906-4.648438-2.90625-9.605469-2.90625-14.753907zm0 0" fill="#85bbeb"/></svg>