<?xml version="1.0" encoding="iso-8859-1"?>
<!-- Generator: Adobe Illustrator 19.0.0, SVG Export Plug-In . SVG Version: 6.00 Build 0)  -->
<svg version="1.1" id="Capa_1" xmlns="http://www.w3.org/2000/svg" xmlns:xlink="http://www.w3.org/1999/xlink" x="0px" y="0px"
	 viewBox="0 0 368 368" style="enable-background:new 0 0 368 368;" xml:space="preserve">
<path style="fill:#CCE4FF;" d="M328,312v32c0,8.8-7.2,16-16,16H56c-8.8,0-16-7.2-16-16v-32v-80h288V312z"/>
<path style="fill:#007AFF;" d="M352,176h-32V64h16c8.824,0,16-7.176,16-16V16c0-8.824-7.176-16-16-16H32c-8.824,0-16,7.176-16,16v32
	c0,8.824,7.176,16,16,16h16v112H16c-8.824,0-16,7.176-16,16v32c0,8.824,7.176,16,16,16h16v104c0,13.232,10.768,24,24,24h256
	c13.232,0,24-10.768,24-24V240h16c8.824,0,16-7.176,16-16v-32C368,183.176,360.824,176,352,176z M32,16h304v32H32V16z M64,144h136
	c4.424,0,8-3.584,8-8s-3.576-8-8-8H64V64h240v64h-56c-4.424,0-8,3.584-8,8s3.576,8,8,8h56v32H64V144z M320,304h-88
	c-4.424,0-8,3.584-8,8s3.576,8,8,8h88v24c0,4.408-3.584,8-8,8H56c-4.416,0-8-3.592-8-8v-24h136c4.424,0,8-3.584,8-8s-3.576-8-8-8H48
	v-64h272V304z M352,224H16v-32h336V224z"/>
<g>
</g>
<g>
</g>
<g>
</g>
<g>
</g>
<g>
</g>
<g>
</g>
<g>
</g>
<g>
</g>
<g>
</g>
<g>
</g>
<g>
</g>
<g>
</g>
<g>
</g>
<g>
</g>
<g>
</g>
</svg>
