<svg viewBox="0 0 512 512" xmlns="http://www.w3.org/2000/svg"><path d="m512 256c0 141.386719-114.613281 256-256 256-18.546875 0-36.625-1.988281-54.050781-5.734375-21.066407-98-98.214844-175.148437-196.210938-196.210937-3.75-17.429688-5.738281-35.507813-5.738281-54.054688 0-141.386719 114.613281-256 256-256s256 114.613281 256 256zm0 0" fill="#e43950"/><path d="m434.117188 275.871094c-8.464844 8.46875-20.730469 10.808594-31.304688 7.039062-1.167969-.417968-2.46875-.136718-3.34375.742188-.875.875-1.15625 2.175781-.742188 3.34375 3.769532 10.574218 1.429688 22.839844-7.035156 31.304687l-14.144531 14.140625c-8.464844 8.464844-20.730469 10.804688-31.304687 7.035156-1.164063-.414062-2.464844-.132812-3.34375.742188-.875.878906-1.15625 2.179688-.742188 3.34375 3.773438 10.574219 1.429688 22.839844-7.035156 31.304688l-14.140625 14.144531c-8.46875 8.464843-20.730469 10.804687-31.304688 7.035156-1.167969-.414063-2.46875-.136719-3.34375.742187-.878906.875-1.160156 2.175782-.742187 3.34375 3.769531 10.574219 1.429687 22.839844-7.039063 31.304688l-14.140625 14.140625c-8.464844 8.46875-20.730468 10.808594-31.304687 7.039063-1.167969-.417969-2.46875-.136719-3.34375.742187-.875.875-1.15625 2.175781-.742188 3.34375 3.769531 10.574219 1.429688 22.835937-7.035156 31.304687l-14.144531 14.140626c-1.644532 1.648437-3.441406 3.054687-5.335938 4.238281-98.449218-20.929688-175.960937-98.441407-196.890625-196.894531 1.183594-1.894532 2.589844-3.6875 4.238281-5.335938l14.140626-14.140625c8.46875-8.464844 20.730468-10.804687 31.304687-7.035156 1.167969.414062 2.46875.132812 3.34375-.742188.875-.878906 1.160156-2.179687.742187-3.34375-3.769531-10.574219-1.429687-22.839843 7.039063-31.304687l14.140625-14.144532c8.464844-8.464843 20.730469-10.804687 31.304688-7.035156 1.164062.414063 2.46875.136719 3.34375-.742187.875-.878907 1.15625-2.175781.742187-3.34375-3.769531-10.574219-1.429687-22.839844 7.035156-31.304688l14.144531-14.140625c8.464844-8.46875 20.726563-10.808594 31.300782-7.039062 1.167968.417968 2.46875.136718 3.34375-.742188.878906-.875 1.160156-2.175781.742187-3.34375-3.769531-10.574218-1.425781-22.839844 7.039063-31.304687l14.140625-14.140625c8.464843-8.464844 20.730469-10.804688 31.304687-7.035156 1.167969.414062 2.46875.132812 3.34375-.742188.875-.878906 1.160156-2.179688.742188-3.34375-3.769532-10.574219-1.429688-22.839844 7.039062-31.304688 30.980469-30.984374 75.84375-39.613281 114.566406-25.90625 7.234376 2.5625 15.296876.691407 20.726563-4.734374l12.835937-12.835938c38.660157 22.425781 70.910157 54.675781 93.335938 93.339844l-12.835938 12.832031c-5.425781 5.429687-7.292968 13.492187-4.734374 20.726563 13.707031 38.722656 5.078124 83.585937-25.90625 114.566406zm0 0" fill="#649eb0"/><path d="m434.117188 275.871094c-8.464844 8.46875-20.730469 10.808594-31.304688 7.039062-1.167969-.417968-2.46875-.136718-3.34375.742188-.875.875-1.15625 2.175781-.742188 3.34375 3.769532 10.574218 1.429688 22.839844-7.035156 31.304687l-14.144531 14.140625c-8.464844 8.464844-20.730469 10.804688-31.304687 7.035156-1.164063-.414062-2.464844-.132812-3.34375.742188-.875.878906-1.15625 2.179688-.742188 3.34375 3.773438 10.574219 1.429688 22.839844-7.035156 31.304688l-14.140625 14.144531c-8.46875 8.464843-20.730469 10.804687-31.304688 7.035156-1.167969-.414063-2.46875-.136719-3.34375.742187-.878906.875-1.160156 2.175782-.742187 3.34375 3.769531 10.574219 1.429687 22.839844-7.039063 31.304688l-14.140625 14.140625c-8.464844 8.46875-20.730468 10.808594-31.304687 7.039063-1.167969-.417969-2.46875-.136719-3.34375.742187-.875.875-1.15625 2.175781-.742188 3.34375 3.769531 10.574219 1.429688 22.835937-7.035156 31.304687l-14.144531 14.140626c-1.644532 1.648437-3.441406 3.054687-5.335938 4.238281-77.285156-16.433594-141.664062-67.734375-175.902344-136.660157 1.09375.253907 2.175782.554688 3.242188.933594 1.164062.414063 2.464844.136719 3.34375-.742187.875-.875 1.15625-2.175781.742188-3.34375-3.773438-10.574219-1.429688-22.839844 7.035156-31.304688l14.140625-14.140625c8.46875-8.464844 20.730469-10.808594 31.304687-7.035156 1.167969.414062 2.46875.132812 3.34375-.742188.878906-.875 1.160156-2.175781.742188-3.34375-3.769532-10.574218-1.429688-22.839843 7.039062-31.304687l14.140625-14.140625c8.464844-8.46875 20.730469-10.808594 31.304688-7.039062 1.167969.417968 2.46875.136718 3.34375-.742188.875-.875 1.15625-2.175781.742187-3.34375-3.769531-10.574219-1.429687-22.835938 7.035156-31.300781l14.144532-14.144531c8.464844-8.464844 20.730468-10.804688 31.304687-7.035157 1.164063.414063 2.464844.132813 3.34375-.742187.875-.875 1.15625-2.175782.742188-3.34375-3.773438-10.574219-1.429688-22.839844 7.035156-31.304688l14.140625-14.140625c8.46875-8.464843 20.730469-10.808593 31.304688-7.039062 1.167968.417969 2.46875.136719 3.34375-.738281.878906-.878907 1.160156-2.179688.742187-3.34375-3.769531-10.574219-1.429687-22.839844 7.039063-31.304688 30.980468-30.984375 75.84375-39.613281 114.566406-25.90625 7.234375 2.5625 15.296875.691406 20.726562-4.734375l18.25-18.253906c22.613282 19.042969 41.890625 41.921875 56.808594 67.644531l-12.835938 12.835938c-5.425781 5.425781-7.292968 13.488281-4.734374 20.722656 13.707031 38.71875 5.078124 83.582031-25.90625 114.5625zm0 0" fill="#95bcc9"/><path d="m509.070312 110.410156-21.210937 21.210938c-3.90625 3.90625-10.238281 3.90625-14.144531 0l-93.335938-93.335938c-3.90625-3.90625-3.90625-10.238281 0-14.144531l21.210938-21.210937c3.90625-3.90625 10.238281-3.90625 14.144531 0l93.335937 93.335937c3.90625 3.90625 3.90625 10.238281 0 14.144531zm0 0" fill="#2b6c7e"/><path d="m509.070312 110.410156-21.210937 21.210938c-3.90625 3.90625-10.238281 3.90625-14.144531 0l-72.125-72.125c-3.902344-3.902344-3.902344-10.234375 0-14.140625l21.214844-21.214844c3.90625-3.902344 10.234374-3.902344 14.140624 0l72.125 72.125c3.90625 3.90625 3.90625 10.238281 0 14.144531zm0 0" fill="#328091"/><path d="m430.585938 215.769531c1.5 1.5 1.894531 3.785157.980468 5.703125-5.242187 10.976563-12.398437 21.265625-21.488281 30.359375-8.441406 8.441407-20.65625 10.792969-31.210937 7.070313-.839844-.296875-1.773438-.308594-2.570313.085937-1.535156.761719-2.140625 2.472657-1.609375 3.964844 3.769531 10.574219 1.429688 22.839844-7.039062 31.304687l-14.140626 14.140626c-8.464843 8.464843-20.730468 10.808593-31.304687 7.039062-1.492187-.535156-3.199219.074219-3.964844 1.609375-.394531.796875-.382812 1.730469-.085937 2.570313 3.722656 10.550781 1.371094 22.769531-7.070313 31.207031l-14.140625 14.144531c-8.46875 8.464844-20.730468 10.804688-31.304687 7.035156-1.492188-.53125-3.203125.078125-3.964844 1.609375-.398437.796875-.382813 1.734375-.085937 2.570313 3.722656 10.554687 1.367187 22.769531-7.070313 31.210937l-14.144531 14.140625c-8.464844 8.46875-20.730469 10.808594-31.304688 7.039063-1.492187-.53125-3.199218.074219-3.964844 1.609375-.394531.796875-.382812 1.730468-.085937 2.570312 3.722656 10.554688 1.371094 22.769532-7.070313 31.210938l-26.878906 26.878906c-1.804687 1.804688-3.789062 3.3125-5.882812 4.558594-68.320313-25.929688-122.652344-80.261719-148.582032-148.582032 1.246094-2.09375 2.753907-4.078124 4.558594-5.882812l26.878906-26.878906c8.46875-8.464844 20.730469-10.808594 31.304688-7.039063 1.492188.535157 3.203125-.074219 3.964844-1.609375.398437-.796875.382812-1.730468.085937-2.570312-3.71875-10.550782-1.367187-22.769532 7.070313-31.207032l14.144531-14.144531c8.464844-8.464843 20.730469-10.804687 31.300781-7.035156 1.492188.53125 3.203125-.078125 3.96875-1.609375.394532-.796875.382813-1.734375.085938-2.570312-3.722656-10.554688-1.371094-22.769532 7.070312-31.210938l14.140625-14.140625c8.464844-8.46875 20.730469-10.808594 31.304688-7.039063 1.492187.53125 3.203125-.074218 3.964843-1.609374.398438-.796876.382813-1.730469.085938-2.570313-3.722656-10.554687-1.371094-22.769531 7.070312-31.210937l14.140626-14.140626c8.46875-8.464843 20.730468-10.808593 31.304687-7.039062 1.492187.535156 3.203125-.074219 3.964844-1.609375.398437-.796875.382812-1.730469.089843-2.570313-3.722656-10.550781-1.371093-22.769531 7.070313-31.207031 1.25-1.253906 2.527344-2.472656 3.824219-3.648437 1.964844-1.78125 4.992187-1.675782 6.867187.199218l9.8125 9.808594c19.222657 19.226563 41.152344 35.542969 65.09375 48.433594l19.71875 10.617188c23.941407 12.890624 45.871094 29.207031 65.097657 48.433593zm0 0" fill="#84deea"/><path d="m430.585938 215.769531c-19.226563-19.226562-41.15625-35.542969-65.097657-48.433593l-19.71875-10.617188c-14.601562-7.863281-28.449219-17.003906-41.398437-27.300781-80.171875 63.199219-146.839844 133.6875-189.070313 200.300781-.753906 1.191406-2.007812 3.214844-3.128906 5.042969-.855469 1.386719.21875 3.140625 1.84375 3.035156 4.253906-.285156 8.597656 1.234375 11.800781 4.5625 5.40625 5.621094 5.535156 14.71875.28125 20.480469-5.804687 6.371094-15.679687 6.542968-21.707031.519531-.523437-.523437-.996094-1.078125-1.421875-1.652344-.984375-1.328125-3.058594-1.011719-3.535156.570313-16.035156 52.867187 10.382812 111.835937 64.703125 132.726562.363281.140625.726562.277344 1.089843.417969 2.039063-1.230469 3.964844-2.707031 5.726563-4.46875l26.988281-26.988281c8.441406-8.441406 10.792969-20.65625 7.074219-31.207032-.296875-.84375-.3125-1.777343.085937-2.578124.765626-1.53125 2.472657-2.136719 3.964844-1.605469 10.574219 3.769531 22.835938 1.429687 31.300782-7.035157l14.144531-14.144531c8.4375-8.4375 10.792969-20.652343 7.070312-31.207031-.296875-.839844-.308593-1.777344.089844-2.574219.761719-1.53125 2.46875-2.136719 3.960937-1.605469 10.574219 3.769532 22.839844 1.429688 31.304688-7.039062l14.140625-14.140625c8.441406-8.441406 10.792969-20.65625 7.074219-31.207031-.296875-.84375-.3125-1.777344.085937-2.574219.765625-1.53125 2.472657-2.140625 3.964844-1.609375 10.574219 3.769531 22.839844 1.429688 31.304687-7.035156l14.140626-14.144532c8.464843-8.464843 10.808593-20.730468 7.039062-31.304687-.535156-1.488281.074219-3.199219 1.605469-3.960937.796875-.398438 1.734375-.386719 2.574219-.089844 10.554687 3.722656 22.769531 1.371094 31.207031-7.070313 9.078125-9.078125 16.226562-19.351562 21.464843-30.308593.921876-1.929688.558594-4.242188-.953124-5.753907zm-258.804688 207.886719c-5.859375 5.859375-15.355469 5.859375-21.214844 0-5.855468-5.855469-5.855468-15.351562 0-21.210938 5.859375-5.859374 15.355469-5.859374 21.214844 0 5.859375 5.859376 5.859375 15.355469 0 21.210938zm28.285156-98.992188c-5.859375 5.855469-15.355468 5.855469-21.214844 0-5.859374-5.859374-5.859374-15.355468 0-21.214843 5.859376-5.855469 15.355469-5.855469 21.214844 0 5.855469 5.859375 5.855469 15.355469 0 21.214843zm98.992188-35.355468c-5.855469 5.855468-15.355469 5.855468-21.210938 0-5.859375-5.859375-5.859375-15.355469 0-21.214844 5.855469-5.859375 15.355469-5.859375 21.210938 0 5.859375 5.859375 5.859375 15.355469 0 21.214844zm7.074218-84.855469c-5.859374 5.859375-15.355468 5.859375-21.214843 0-5.859375-5.855469-5.859375-15.351563 0-21.210937 5.859375-5.859376 15.355469-5.859376 21.214843 0 5.855469 5.859374 5.855469 15.355468 0 21.210937zm0 0" fill="#ade8f0"/></svg>