<svg height="512pt" viewBox="-14 0 512 512.00058" width="512pt" xmlns="http://www.w3.org/2000/svg"><path d="m56.226562 40.328125c0 15.527344-12.585937 28.113281-28.113281 28.113281-15.527343 0-28.113281-12.585937-28.113281-28.113281 0-15.523437 12.585938-28.113281 28.113281-28.113281 15.527344 0 28.113281 12.589844 28.113281 28.113281zm0 0" fill="#ffeb99"/><path d="m483.160156 40.328125c0 15.527344-12.585937 28.113281-28.109375 28.113281-15.527343 0-28.113281-12.585937-28.113281-28.113281 0-15.523437 12.585938-28.113281 28.113281-28.113281 15.523438 0 28.109375 12.589844 28.109375 28.113281zm0 0" fill="#ffeb99"/><path d="m83.386719 512h316.386719c30.960937 0 45.625-38.050781 22.761718-58.933594-36.304687-33.152344-94.910156-67.957031-180.957031-67.957031-86.042969 0-144.648437 34.804687-180.953125 67.957031-22.863281 20.878906-8.199219 58.933594 22.761719 58.933594zm0 0" fill="#ff737d"/><path d="m373.636719 477.660156c14.914062-8.832031 23.863281-24.066406 32.730469-38.199218-36.6875-28.421876-90.507813-54.351563-164.785157-54.351563-74.28125 0-128.101562 25.929687-164.789062 54.351563 8.867187 14.136718 17.820312 29.367187 32.730469 38.199218 18.445312 10.917969 44.097656 8.234375 66.863281 13.996094 20.9375 5.296875 41.859375 20.34375 65.195312 20.34375 23.335938 0 44.257813-15.046875 65.191407-20.34375 22.765624-5.761719 48.421874-3.078125 66.863281-13.996094zm0 0" fill="#cff3ff"/><path d="m300.328125 447.378906v-56.464844c-17.964844-3.691406-37.515625-5.804687-58.746094-5.804687-86.046875 0-144.652343 34.804687-180.957031 67.957031-22.863281 20.878906-8.199219 58.933594 22.761719 58.933594h158.195312c42.441407-14.894531 58.746094-64.621094 58.746094-64.621094zm0 0" fill="#f46262"/><path d="m300.328125 447.378906v-56.464844c-17.964844-3.691406-37.515625-5.804687-58.746094-5.804687-74.28125 0-128.101562 25.929687-164.789062 54.351563 8.871093 14.136718 17.816406 29.367187 32.730469 38.199218 18.445312 10.917969 44.097656 8.234375 66.863281 13.996094 20.9375 5.296875 41.859375 20.34375 65.195312 20.34375 42.441407-14.894531 58.746094-64.621094 58.746094-64.621094zm0 0" fill="#bde5ef"/><path d="m126.957031 299.128906c0 29.644532-24.03125 53.675782-53.675781 53.675782s-53.675781-24.03125-53.675781-53.675782c0-29.644531 24.03125-53.675781 53.675781-53.675781s53.675781 24.03125 53.675781 53.675781zm0 0" fill="#c6c5ca"/><path d="m463.554688 299.128906c0 29.644532-24.03125 53.675782-53.671876 53.675782-29.644531 0-53.675781-24.03125-53.675781-53.675782 0-29.644531 24.03125-53.675781 53.675781-53.675781 29.640626 0 53.671876 24.03125 53.671876 53.675781zm0 0" fill="#d8d7da"/><path d="m241.582031 458.027344c-92.566406 0-168.300781-75.734375-168.300781-168.296875v-87.34375c0-92.566407 75.734375-168.300781 168.300781-168.300781 92.5625 0 168.300781 75.734374 168.300781 168.300781v87.34375c0 92.5625-75.738281 168.296875-168.300781 168.296875zm0 0" fill="#eaeaea"/><path d="m241.582031 34.085938c-92.566406 0-168.300781 75.734374-168.300781 168.300781v87.34375c0 61.578125 33.53125 115.714843 83.222656 145.054687-8.410156-38.714844-7.8125-77.523437-4.378906-109.046875 3.816406-35.011719 21.089844-67.230469 48.09375-89.84375 54.390625-45.542969 70.191406-137.46875 74.484375-198.511719-10.71875-2.164062-21.792969-3.296874-33.121094-3.296874zm0 0" fill="#d8d7da"/><g fill="#898890"><path d="m194.164062 296.113281c0-31.308593-15.933593-56.691406-35.585937-56.691406s-35.582031 25.382813-35.582031 56.691406c0 31.308594 15.929687 56.691407 35.582031 56.691407s35.585937-25.382813 35.585937-56.691407zm0 0"/><path d="m360.253906 296.113281c0-31.308593-15.929687-56.691406-35.582031-56.691406s-35.582031 25.382813-35.582031 56.691406c0 31.308594 15.929687 56.691407 35.582031 56.691407s35.582031-25.382813 35.582031-56.691407zm0 0"/><path d="m158.578125 389.722656c-4.265625 0-7.726563-3.457031-7.726563-7.726562v-171.765625c0-4.269531 3.460938-7.726563 7.726563-7.726563 4.269531 0 7.726563 3.457032 7.726563 7.726563v171.765625c0 4.269531-3.457032 7.726562-7.726563 7.726562zm0 0"/><path d="m324.671875 389.722656c-4.269531 0-7.726563-3.457031-7.726563-7.726562v-171.765625c0-4.269531 3.457032-7.726563 7.726563-7.726563s7.726563 3.457032 7.726563 7.726563v171.765625c0 4.269531-3.457032 7.726562-7.726563 7.726562zm0 0"/></g><path d="m324.671875 310.21875c-4.269531 0-7.726563-3.457031-7.726563-7.726562v-12.824219c0-4.269531 3.457032-7.726563 7.726563-7.726563s7.726563 3.457032 7.726563 7.726563v12.824219c0 4.269531-3.460938 7.726562-7.726563 7.726562zm0 0" fill="#57565c"/><path d="m158.488281 310.21875c-4.265625 0-7.726562-3.457031-7.726562-7.726562v-12.824219c0-4.269531 3.460937-7.726563 7.726562-7.726563 4.269531 0 7.726563 3.457032 7.726563 7.726563v12.824219c0 4.269531-3.457032 7.726562-7.726563 7.726562zm0 0" fill="#57565c"/><path d="m241.582031 318.3125c-10 0-20-3.238281-28.34375-9.710938-3.375-2.613281-3.988281-7.46875-1.371093-10.839843 2.613281-3.371094 7.46875-3.984375 10.839843-1.371094 11.113281 8.621094 26.632813 8.621094 37.746094 0 3.371094-2.613281 8.226563-2 10.839844 1.371094 2.617187 3.371093 2.003906 8.226562-1.367188 10.839843-8.34375 6.472657-18.34375 9.710938-28.34375 9.710938zm0 0" fill="#57565c"/><path d="m452.273438 36.824219c0-.863281-88.292969-62.832031-210.691407-24.101563-122.398437-38.730468-210.695312 23.238282-210.695312 24.101563 53.363281 30.984375 42.394531 158.1875 42.394531 158.1875s55.898438-28.222657 168.300781-28.222657c112.402344 0 168.300781 28.222657 168.300781 28.222657s-10.972656-127.203125 42.390626-158.1875zm0 0" fill="#ff929f"/><path d="m409.882812 195.011719s-10.972656-127.203125 42.390626-158.1875c0-.863281-88.292969-62.832031-210.691407-24.101563v154.066406c112.402344 0 168.300781 28.222657 168.300781 28.222657zm0 0" fill="#898890"/><path d="m30.886719 36.816406c53.363281 30.984375 42.394531 158.1875 42.394531 158.1875s25.542969-12.886718 76.796875-21.242187c-1.832031-41.984375-6.546875-74.71875-10.113281-94.535157-4.414063-24.515624 6.351562-49.3125 27.355468-62.710937 14.785157-9.429687 29.109376-13.964844 29.292969-14.019531-98.476562-13.71875-165.726562 33.570312-165.726562 34.320312zm0 0" fill="#ff737d"/></svg>