<svg height="511pt" viewBox="-25 0 511 511.99843" width="511pt" xmlns="http://www.w3.org/2000/svg"><path d="m76.761719 38.976562-41.195313-16.453124c-7.875-3.144532-15.6875 4.667968-12.542968 12.546874l16.449218 41.191407-31.546875 9.378906c-8.988281 2.671875-10.113281 14.949219-1.757812 19.210937l56.15625 28.628907 71.65625-71.65625-28.632813-56.15625c-4.257812-8.351563-16.535156-7.230469-19.207031 1.761719zm0 0" fill="#ffb0d0"/><path d="m32.234375 289.207031s-11.625 93.308594-22.707031 183.636719c-2.550782 20.773438 13.632812 39.105469 34.566406 39.140625 60.175781.105469 168.28125-.511719 168.28125-.511719v-222.265625zm0 0" fill="#ffde55"/><path d="m75.285156 512h316.386719c30.960937 0 45.625-38.054688 22.761719-58.933594-36.304688-33.152344-94.910156-67.960937-180.953125-67.960937-86.046875 0-144.652344 34.808593-180.957031 67.960937-22.863282 20.878906-8.199219 58.933594 22.761718 58.933594zm0 0" fill="#ff97bd"/><path d="m343.671875 389.1875h-220.386719s-19.257812 4.878906-38.984375 15.929688c-13.410156 7.511718-11.859375 27.375 2.546875 32.738281 24.113282 8.972656 60.121094 29.191406 104.839844 74.144531.644531-.203125 82.9375-.203125 83.582031 0 44.722657-44.953125 80.726563-65.171875 104.839844-74.144531 14.410156-5.363281 15.957031-25.226563 2.546875-32.738281-19.726562-11.054688-38.984375-15.929688-38.984375-15.929688zm0 0" fill="#ffc7de"/><path d="m118.855469 299.128906c0 29.644532-24.03125 53.675782-53.675781 53.675782-29.644532 0-53.675782-24.03125-53.675782-53.675782 0-29.644531 24.03125-53.675781 53.675782-53.675781 29.644531 0 53.675781 24.03125 53.675781 53.675781zm0 0" fill="#9ad880"/><path d="m455.453125 299.128906c0 29.644532-24.03125 53.675782-53.675781 53.675782-29.644532 0-53.675782-24.03125-53.675782-53.675782 0-29.644531 24.03125-53.675781 53.675782-53.675781 29.644531 0 53.675781 24.03125 53.675781 53.675781zm0 0" fill="#ffcfc2"/><path d="m233.480469 458.027344c-92.566407 0-168.300781-75.734375-168.300781-168.300782v-87.339843c0-92.566407 75.734374-168.300781 168.300781-168.300781 92.5625 0 168.296875 75.734374 168.296875 168.300781v87.339843c0 92.566407-75.734375 168.300782-168.296875 168.300782zm0 0" fill="#c8efb9"/><path d="m233.480469 34.085938c-92.566407 0-168.300781 75.734374-168.300781 168.300781v87.339843c0 61.582032 33.515624 115.707032 83.210937 145.046876-8.414063-38.714844-7.800781-77.511719-4.367187-109.035157 3.816406-35.011719 21.089843-67.234375 48.09375-89.84375 54.390624-45.542969 70.191406-137.46875 74.484374-198.511719-10.71875-2.164062-21.792968-3.296874-33.121093-3.296874zm0 0" fill="#b2e59c"/><path d="m300.898438 109.816406-21.59375 58.398438c-1.671876 4.519531-2.269532 9.367187-1.742188 14.15625l4.617188 42.035156c1.214843 11.070312 16.632812 12.738281 20.191406 2.1875l8.375-24.847656c3.816406-11.308594 10.53125-21.421875 19.480468-29.324219l39.304688-34.699219zm0 0" fill="#ff929f"/><g fill="#57565c"><path d="m316.570312 310.21875c-4.269531 0-7.726562-3.457031-7.726562-7.726562v-12.824219c0-4.269531 3.457031-7.726563 7.726562-7.726563 4.265626 0 7.726563 3.457032 7.726563 7.726563v12.824219c0 4.269531-3.460937 7.726562-7.726563 7.726562zm0 0"/><path d="m150.390625 310.21875c-4.269531 0-7.726563-3.457031-7.726563-7.726562v-12.824219c0-4.269531 3.457032-7.726563 7.726563-7.726563 4.265625 0 7.726563 3.457032 7.726563 7.726563v12.824219c0 4.269531-3.460938 7.726562-7.726563 7.726562zm0 0"/><path d="m233.480469 318.308594c-10 0-20-3.234375-28.347657-9.707032-3.371093-2.617187-3.984374-7.46875-1.367187-10.839843 2.613281-3.375 7.46875-3.984375 10.839844-1.371094 11.113281 8.621094 26.632812 8.621094 37.746093 0 3.371094-2.613281 8.226563-2.003906 10.839844 1.371094 2.617188 3.371093 2.003906 8.222656-1.371094 10.839843-8.339843 6.472657-18.339843 9.707032-28.339843 9.707032zm0 0"/></g><path d="m447.890625 402.910156c8.570313-48.871094 26.761719-250.230468-46.109375-326.535156-65.589844-68.671875-158.257812-72.867188-195.019531-57.382812-7.511719 3.164062-15.4375 5.230468-23.574219 5.695312-22.789062 1.304688-69.488281 10.734375-101.144531 62.855469-31.140625 51.277343-44.671875 129.4375-49.808594 169.226562 9.09375-7.085937 20.523437-11.316406 32.945313-11.316406 0 0 26.058593-83.121094 68.921874-98.71875 21.957032-7.992187 42.785157-4.464844 57.886719.871094 13.929688 4.925781 29.410157 1.664062 40.28125-8.347657 11.046875-10.171874 27.09375-19.859374 46.6875-17.25 38.578125 5.144532 109.777344 54.5625 78.054688 214.027344-31.722657 159.464844-23.148438 175.964844-23.148438 175.964844h104.761719c16.394531 0 27.523438-16.546875 21.476562-31.785156-8.605468-21.6875-16.804687-51.125-12.210937-77.304688zm0 0" fill="#ffeb99"/><path d="m178.839844 401.378906c-21.210938-12.433594-47.359375-8.945312-64.589844 6.839844 24.253906 24.402344 55.886719 41.464844 91.164062 47.453125 2.761719-21.125-7.039062-42.839844-26.574218-54.292969zm0 0" fill="#ff929f"/><path d="m145.0625 33.050781c-20.96875 8.214844-44.554688 24.089844-63.019531 54.492188-31.140625 51.277343-44.667969 129.4375-49.808594 169.226562 9.097656-7.085937 20.523437-11.316406 32.945313-11.316406 0 0 26.058593-83.121094 68.925781-98.71875 6.539062-2.378906 12.972656-3.738281 19.191406-4.332031-16.242187-43.253906-12.765625-85.066406-8.234375-109.351563zm0 0" fill="#ffde55"/></svg>