<svg height="512pt" viewBox="-34 0 512 512.00018" width="512pt" xmlns="http://www.w3.org/2000/svg"><path d="m411.164062 391.371094c-8.503906-20.09375 0-73.058594 0-73.058594h-327.738281l-31.402343-8.09375s-16.550782 61.058594-25.054688 81.152344c-8.503906 20.097656-20.933594 75.597656 31.378906 98.113281 2.667969-1.179687 318.769532-1.179687 321.433594 0 52.316406-22.515625 39.890625-78.015625 31.382812-98.113281zm0 0" fill="#ff9478"/><path d="m141.917969 74.871094c-14.992188-7.308594-33.382813-3.070313-43.632813 10.085937-4.671875 5.996094-7.113281 12.914063-7.519531 19.847657-.363281 6.140624-4.492187 11.4375-10.261719 13.582031-8.144531 3.027343-15.136718 9.160156-19.046875 17.683593-7.832031 17.0625-.34375 37.246094 16.71875 45.074219 17.066407 7.832031 87.421875 7.167969 83.824219-74.660156-.566406-12.824219-7.175781-25.320313-20.082031-31.613281zm0 0" fill="#ffd9e8"/><path d="m60.871094 512h316.390625c30.960937 0 45.625-38.050781 22.761719-58.929688-36.304688-33.15625-94.914063-67.960937-180.957032-67.960937-86.046875 0-144.652344 34.804687-180.957031 67.960937-22.863281 20.878907-8.199219 58.929688 22.761719 58.929688zm0 0" fill="#9dad92"/><path d="m400.023438 453.070312c-32.078126-29.292968-81.574219-59.875-152.007813-66.605468v28.488281s-85.890625 73.691406-192.40625 23.484375c-6.324219 4.835938-12.15625 9.753906-17.5 14.632812-22.863281 20.878907-8.199219 58.929688 22.761719 58.929688h316.390625c30.960937 0 45.625-38.050781 22.761719-58.929688zm0 0" fill="#add9f2"/><path d="m107.351562 299.128906c0 29.644532-24.03125 53.675782-53.675781 53.675782s-53.675781-24.03125-53.675781-53.675782c0-29.644531 24.03125-53.675781 53.675781-53.675781s53.675781 24.03125 53.675781 53.675781zm0 0" fill="#9dad92"/><path d="m443.953125 299.128906c0 29.644532-24.03125 53.675782-53.675781 53.675782-29.644532 0-53.675782-24.03125-53.675782-53.675782 0-29.644531 24.03125-53.675781 53.675782-53.675781 29.644531 0 53.675781 24.03125 53.675781 53.675781zm0 0" fill="#b0c4a5"/><path d="m165.597656 294.277344c0 22.691406-18.394531 41.085937-41.085937 41.085937-22.691407 0-41.085938-18.394531-41.085938-41.085937s18.394531-41.085938 41.085938-41.085938c22.691406 0 41.085937 18.394532 41.085937 41.085938zm0 0" fill="#ba9bd3"/><path d="m350.210938 294.277344c0 22.691406-18.394532 41.085937-41.085938 41.085937s-41.085938-18.394531-41.085938-41.085937 18.394532-41.085938 41.085938-41.085938 41.085938 18.394532 41.085938 41.085938zm0 0" fill="#ba9bd3"/><path d="m219.066406 34.085938c-23.8125 0-46.503906 5.015624-67.082031 14.035156-12.371094 5.421875-19.78125 18.246094-18.136719 31.652344l6.664063 54.390624c1.636719 13.382813-9.515625 24.851563-22.9375 23.582032l-32.398438-3.058594c-16.371093-1.542969-30.996093 10.191406-33.070312 26.507812-.882813 6.945313-1.339844 14.019532-1.339844 21.191407v87.34375c0 92.566406 75.734375 168.300781 168.300781 168.300781s168.300782-75.734375 168.300782-168.300781v-87.34375c0-92.566407-75.734376-168.300781-168.300782-168.300781zm0 0" fill="#c2d6b9"/><path d="m154.589844 391.765625c-16.390625-20.230469-18.417969-48.550781-5.078125-70.910156 18.203125-30.519531 26.890625-70.121094 30.695312-93.515625 1.757813-10.8125 2.621094-21.746094 2.621094-32.699219v-156.597656c-10.796875 2.390625-21.210937 5.84375-31.132813 10.214843-12.253906 5.402344-19.476562 18.238282-17.847656 31.527344l6.660156 54.378906c1.640626 13.378907-9.511718 24.847657-22.933593 23.582032l-32.398438-3.058594c-16.371093-1.542969-31 10.191406-33.070312 26.507812-.886719 6.945313-1.339844 14.015626-1.339844 21.191407v87.34375c0 92.5625 75.734375 168.300781 168.300781 168.300781 13.1875 0 26.046875-1.542969 38.378906-4.445312-50.921874-10.613282-83.277343-37.648438-102.855468-61.820313zm0 0" fill="#b0c4a5"/><path d="m167.84375 294.277344c0 22.691406-18.394531 41.085937-41.085938 41.085937-22.691406 0-41.085937-18.394531-41.085937-41.085937s18.394531-41.085938 41.085937-41.085938c22.691407 0 41.085938 18.394532 41.085938 41.085938zm0 0" fill="#ba9bd3"/><path d="m352.460938 294.277344c0 22.691406-18.394532 41.085937-41.085938 41.085937s-41.085938-18.394531-41.085938-41.085937 18.394532-41.085938 41.085938-41.085938 41.085938 18.394532 41.085938 41.085938zm0 0" fill="#ba9bd3"/><g fill="#57565c"><path d="m219.066406 352.667969c-15.988281 0-28.949218-12.960938-28.949218-28.949219v-21.046875c0-4.363281 3.539062-7.902344 7.902343-7.902344h42.09375c4.363281 0 7.902344 3.539063 7.902344 7.902344v21.046875c0 15.988281-12.960937 28.949219-28.949219 28.949219zm0 0"/><path d="m302.15625 310.21875c-4.265625 0-7.726562-3.457031-7.726562-7.722656v-12.828125c0-4.265625 3.460937-7.726563 7.726562-7.726563 4.269531 0 7.726562 3.460938 7.726562 7.726563v12.828125c0 4.265625-3.457031 7.722656-7.726562 7.722656zm0 0"/><path d="m135.976562 310.21875c-4.269531 0-7.726562-3.457031-7.726562-7.722656v-12.828125c0-4.265625 3.457031-7.726563 7.726562-7.726563 4.265626 0 7.726563 3.460938 7.726563 7.726563v12.828125c0 4.265625-3.460937 7.722656-7.726563 7.722656zm0 0"/></g><path d="m387.367188 245.53125s1.972656-.078125 2.910156-.078125c11.113281 0 21.433594 3.378906 30 9.160156 4.164062-38.882812 11.933594-178.589843-83.675782-226.558593-39.625-19.882813-71.5625-27.039063-96.277343-28.007813-40.417969-1.578125-71.46875 35.515625-62.796875 75.027344 7.1875 32.746093 26.003906 70.648437 72.871094 88.941406 13.105468 5.113281 24.316406 14.238281 31.761718 26.175781 14.371094 23.03125 45.535156 57.804688 105.207032 55.339844zm0 0" fill="#ff9478"/><path d="m289.90625 390.453125c-19.007812 13.996094-26.105469 38.15625-19.355469 59.472656 33.441407-10.824219 62.390625-31.886719 83.101563-59.449219-18.441406-13.617187-44.3125-14.328124-63.746094-.023437zm0 0" fill="#ff737d"/><path d="m294.429688 137.742188c-58.160157-44.90625-55.820313-116.632813-54.105469-137.6914068-40.417969-1.5781252-71.46875 35.5156248-62.796875 75.0273438 7.1875 32.746094 26.003906 70.644531 72.871094 88.9375 13.105468 5.117187 24.316406 14.238281 31.761718 26.175781 12.476563 19.996094 37.660156 48.867188 83.125 54.492188-8.339844-29.597656-27.476562-73.453125-70.855468-106.941406zm0 0" fill="#ff7956"/></svg>