<svg height="512pt" viewBox="-15 0 512 512.00082" width="512pt" xmlns="http://www.w3.org/2000/svg"><path d="m82.652344 512h316.386718c30.960938 0 45.625-38.050781 22.761719-58.929688-36.304687-33.15625-94.910156-67.964843-180.957031-67.964843-86.042969 0-144.648438 34.808593-180.953125 67.964843-22.863281 20.878907-8.199219 58.929688 22.761719 58.929688zm0 0" fill="#c3dfed"/><path d="m323.601562 397.019531c-24.167968-7.371093-51.664062-11.910156-82.757812-11.910156-86.042969 0-144.648438 34.804687-180.953125 67.960937-22.863281 20.878907-8.203125 58.929688 22.761719 58.929688h158.191406c66.183594-24.761719 80.132812-83.878906 82.757812-114.980469zm0 0" fill="#afd0dd"/><path d="m121.824219 391.742188c-18.902344 18.902343-98.667969 68.023437-117.570313 49.117187-18.902344-18.902344 30.214844-98.667969 49.117188-117.570313 18.902344-18.902343 49.550781-18.902343 68.453125 0 18.902343 18.902344 18.902343 49.550782 0 68.453126zm0 0" fill="#ff7956"/><path d="m359.867188 391.742188c18.902343 18.902343 98.667968 68.023437 117.570312 49.117187 18.902344-18.902344-30.214844-98.667969-49.117188-117.570313-18.902343-18.902343-49.550781-18.902343-68.453124 0-18.902344 18.902344-18.902344 49.550782 0 68.453126zm0 0" fill="#ff7956"/><path d="m370.371094 377.113281h-259.054688s-125.136718 90.308594 129.527344 134.886719c254.667969-44.578125 129.527344-134.886719 129.527344-134.886719zm0 0" fill="#f46262"/><path d="m323.9375 377.113281h-212.621094s-125.136718 90.308594 129.527344 134.886719c91.859375-34.371094 83.09375-134.886719 83.09375-134.886719zm0 0" fill="#d65b5b"/><path d="m126.222656 299.128906c0 29.644532-24.03125 53.675782-53.675781 53.675782s-53.675781-24.03125-53.675781-53.675782c0-29.640625 24.03125-53.671875 53.675781-53.671875s53.675781 24.03125 53.675781 53.671875zm0 0" fill="#ffaea1"/><path d="m462.820312 299.128906c0 29.644532-24.03125 53.675782-53.675781 53.675782s-53.675781-24.03125-53.675781-53.675782c0-29.640625 24.03125-53.671875 53.675781-53.671875s53.675781 24.03125 53.675781 53.671875zm0 0" fill="#ffcfc2"/><path d="m240.847656 458.027344c-92.566406 0-168.300781-75.734375-168.300781-168.296875v-87.34375c0-92.5625 75.734375-168.296875 168.300781-168.296875 92.5625 0 168.296875 75.734375 168.296875 168.296875v87.34375c0 92.5625-75.734375 168.296875-168.296875 168.296875zm0 0" fill="#ffe2d9"/><path d="m240.847656 34.089844c-92.566406 0-168.300781 75.734375-168.300781 168.296875v87.34375c0 61.578125 33.535156 115.722656 83.230469 145.0625-8.414063-38.714844-7.820313-77.53125-4.386719-109.054688 3.816406-35.007812 21.089844-67.230469 48.09375-89.84375 54.390625-45.542969 70.191406-137.46875 74.480469-198.511719-10.714844-2.160156-21.789063-3.292968-33.117188-3.292968zm0 0" fill="#ffcfc2"/><path d="m291.292969 164.765625s-73.824219 95.898437-204.703125 120.699219c-15.660156 2.964844-30.382813-8.546875-31.09375-24.46875-1.191406-26.542969-.074219-66.351563 12.257812-96.230469.789063.789063 223.539063 0 223.539063 0zm0 0" fill="#ff9478"/><path d="m328.417969 171.085938s2.886719 75.105468 59.558593 106.734374c16.714844 9.328126 37.460938-2.207031 38.65625-21.3125 1.550782-24.769531-.554687-58.828124-17.488281-85.421874zm0 0" fill="#ff9478"/><path d="m274.707031 1.648438c-14.113281 4.449218-33.859375 10.765624-33.859375 10.765624s-19.75-6.316406-33.863281-10.765624c-9.292969-2.929688-19.410156-1.9375-27.890625 2.863281-53.339844 30.199219-79.25 79.210937-91.105469 111.230469-6.46875 17.476562 3.460938 36.726562 21.398438 41.789062 28.058593 7.921875 74.011719 17.558594 131.460937 17.558594 57.449219 0 103.398438-9.636719 131.457032-17.558594 17.9375-5.0625 27.867187-24.3125 21.398437-41.789062-11.851563-32.019532-37.765625-81.03125-91.101563-111.230469-8.480468-4.804688-18.601562-5.792969-27.894531-2.863281zm0 0" fill="#c68d6d"/><path d="m163.191406 14.597656c-42.71875 30.210938-64.59375 72.484375-75.203125 101.144532-6.46875 17.476562 3.460938 36.726562 21.398438 41.789062 28.058593 7.917969 74.007812 17.558594 131.460937 17.558594 41.890625 0 77.65625-5.125 104.84375-10.972656v-73.027344s-67.453125-41.136719-119.050781-45.828125c-35.671875-3.242188-54.949219-20.390625-63.449219-30.664063zm0 0" fill="#b2785b"/><path d="m240.847656 71.511719c-123.175781 0-195.390625 71.660156-229.359375 118.324219-10.613281 14.574218 1.679688 34.679687 19.484375 31.847656 51.945313-8.257813 140.621094-20.503906 209.875-20.503906 69.25 0 157.925782 12.246093 209.871094 20.503906 17.804688 2.832031 30.097656-17.273438 19.484375-31.847656-33.96875-46.664063-106.183594-118.324219-229.355469-118.324219zm0 0" fill="#dd9f80"/><path d="m240.847656 71.511719c-123.175781 0-195.390625 71.660156-229.359375 118.324219-10.613281 14.574218 1.679688 34.679687 19.484375 31.847656 37.640625-5.984375 94.558594-14.058594 149.40625-18.054688-7.699218-11.441406-13.878906-27.179687-14.898437-48.601562-2.992188-62.855469 75.367187-83.515625 75.367187-83.515625zm0 0" fill="#c68d6d"/><path d="m240.84375 352.667969c-15.988281 0-28.945312-12.960938-28.945312-28.949219v-21.046875c0-4.363281 3.535156-7.902344 7.902343-7.902344h42.089844c4.367187 0 7.902344 3.539063 7.902344 7.902344v21.046875c0 15.988281-12.960938 28.949219-28.949219 28.949219zm0 0" fill="#57565c"/><path d="m174.890625 323.71875c0-13.578125-13.824219-24.589844-30.878906-24.589844-17.050781 0-30.875 11.011719-30.875 24.589844 0 13.582031 13.824219 24.589844 30.875 24.589844 17.054687 0 30.878906-11.007813 30.878906-24.589844zm0 0" fill="#ffa6bb"/><path d="m368.554688 323.71875c0-13.578125-13.824219-24.589844-30.878907-24.589844-17.050781 0-30.875 11.011719-30.875 24.589844 0 13.582031 13.824219 24.589844 30.875 24.589844 17.054688 0 30.878907-11.007813 30.878907-24.589844zm0 0" fill="#ffa6bb"/><g fill="#57565c"><path d="m323.9375 310.222656c-4.269531 0-7.726562-3.460937-7.726562-7.726562v-12.828125c0-4.265625 3.457031-7.726563 7.726562-7.726563 4.265625 0 7.722656 3.460938 7.722656 7.726563v12.828125c0 4.265625-3.457031 7.726562-7.722656 7.726562zm0 0"/><path d="m157.753906 310.222656c-4.265625 0-7.726562-3.460937-7.726562-7.726562v-12.828125c0-4.265625 3.460937-7.726563 7.726562-7.726563 4.269532 0 7.726563 3.460938 7.726563 7.726563v12.828125c0 4.265625-3.457031 7.726562-7.726563 7.726562zm0 0"/></g></svg>