<svg height="512pt" viewBox="-34 0 512 512.00045" width="512pt" xmlns="http://www.w3.org/2000/svg"><path d="m63.78125 512h316.390625c30.960937 0 45.625-38.050781 22.761719-58.929688-36.304688-33.15625-94.914063-67.960937-180.957032-67.960937-86.046874 0-144.652343 34.804687-180.957031 67.960937-22.863281 20.878907-8.199219 58.929688 22.761719 58.929688zm0 0" fill="#b1bfa6"/><path d="m221.976562 385.109375c-86.046874 0-144.652343 34.804687-180.957031 67.960937-22.863281 20.878907-8.199219 58.929688 22.761719 58.929688h158.78125c42.675781-27.230469 52.128906-62.488281 52.128906-62.488281l.777344-59.621094c-16.511719-3.054687-34.316406-4.78125-53.492188-4.78125zm0 0" fill="#9dad92"/><path d="m166.160156 512c-8.011718-51.519531-28.21875-91.917969-39.195312-110.910156-36.703125 13.226562-65.027344 32.878906-85.945313 51.980468-22.863281 20.878907-8.199219 58.929688 22.761719 58.929688zm0 0" fill="#c98d9b"/><path d="m277.792969 512c8.011719-51.519531 28.214843-91.917969 39.195312-110.910156 36.699219 13.226562 65.027344 32.878906 85.945313 51.980468 22.863281 20.878907 8.199218 58.929688-22.761719 58.929688zm0 0" fill="#d6a1ab"/><path d="m208.988281 31.425781-94.019531-30.46875c-10.628906-3.398437-21.984375 2.558594-25.230469 13.234375l-7.679687 25.253906-39.46875 2.183594c-12.976563.71875-22.152344 12.988282-19.175782 25.640625l8.464844 35.96875-23.214844 17.59375c-10.464843 7.933594-11.113281 23.433594-1.347656 32.214844l60.066406 54zm0 0" fill="#dd9f80"/><path d="m235.714844 30.84375 93.269531-29.886719c10.628906-3.398437 21.984375 2.554688 25.230469 13.234375l7.683594 25.253906 39.464843 2.183594c12.976563.71875 22.15625 12.988282 19.179688 25.640625l-8.464844 35.96875 23.210937 17.59375c10.464844 7.933594 11.113282 23.433594 1.347657 32.214844l-60.066407 54zm0 0" fill="#dd9f80"/><path d="m107.351562 299.128906c0 29.644532-24.03125 53.675782-53.675781 53.675782s-53.675781-24.03125-53.675781-53.675782c0-29.644531 24.03125-53.675781 53.675781-53.675781s53.675781 24.03125 53.675781 53.675781zm0 0" fill="#ffaea1"/><path d="m443.953125 299.128906c0 29.644532-24.03125 53.675782-53.675781 53.675782-29.644532 0-53.675782-24.03125-53.675782-53.675782 0-29.644531 24.03125-53.675781 53.675782-53.675781 29.644531 0 53.675781 24.03125 53.675781 53.675781zm0 0" fill="#ffcfc2"/><path d="m221.976562 458.027344c-92.566406 0-168.300781-75.734375-168.300781-168.296875v-87.34375c0-92.566407 75.734375-168.300781 168.300781-168.300781 92.566407 0 168.300782 75.734374 168.300782 168.300781v87.34375c0 92.5625-75.734375 168.296875-168.300782 168.296875zm0 0" fill="#eaeaea"/><path d="m221.976562 34.085938c-92.566406 0-168.300781 75.734374-168.300781 168.300781v87.34375c0 61.578125 33.53125 115.71875 83.226563 145.058593-8.414063-38.714843-7.816406-77.527343-4.378906-109.046874 3.816406-35.011719 21.089843-67.234376 48.089843-89.847657 54.394531-45.542969 70.195313-137.46875 74.488281-198.511719-10.71875-2.164062-21.796874-3.296874-33.125-3.296874zm0 0" fill="#d8d7da"/><g fill="#898890"><path d="m181.523438 291.011719c0 23.1875-18.796876 41.980469-41.980469 41.980469-23.1875 0-41.984375-18.792969-41.984375-41.980469s18.796875-41.984375 41.984375-41.984375c23.183593 0 41.980469 18.796875 41.980469 41.984375zm0 0"/><path d="m346.394531 291.011719c0 23.1875-18.796875 41.980469-41.984375 41.980469-23.183594 0-41.980468-18.792969-41.980468-41.980469s18.796874-41.984375 41.980468-41.984375c23.1875 0 41.984375 18.796875 41.984375 41.984375zm0 0"/><path d="m203.890625 352.804688h36.171875c9.132812 0 13.710938-11.046876 7.25-17.507813l-11.558594-11.558594c-7.882812-7.882812-20.710937-7.730469-28.40625.335938l-10.875 11.394531c-6.226562 6.527344-1.601562 17.335938 7.417969 17.335938zm0 0"/><path d="m193.347656 381.503906c0 4.265625-3.460937 7.726563-7.726562 7.726563s-7.726563-3.460938-7.726563-7.726563c0-4.269531 3.460938-7.726562 7.726563-7.726562s7.726562 3.457031 7.726562 7.726562zm0 0"/><path d="m144.109375 378.410156c0 4.269532-3.460937 7.726563-7.726563 7.726563-4.269531 0-7.726562-3.457031-7.726562-7.726563 0-4.265625 3.457031-7.726562 7.726562-7.726562 4.265626 0 7.726563 3.460937 7.726563 7.726562zm0 0"/><path d="m176.988281 415.722656c0 4.265625-3.460937 7.726563-7.726562 7.726563-4.269531 0-7.726563-3.460938-7.726563-7.726563s3.457032-7.726562 7.726563-7.726562c4.265625 0 7.726562 3.460937 7.726562 7.726562zm0 0"/><path d="m266.058594 381.503906c0 4.265625-3.460938 7.726563-7.726563 7.726563-4.269531 0-7.726562-3.460938-7.726562-7.726563 0-4.269531 3.457031-7.726562 7.726562-7.726562 4.265625 0 7.726563 3.457031 7.726563 7.726562zm0 0"/><path d="m229.703125 203.6875c0 4.265625-3.460937 7.726562-7.726563 7.726562-4.265624 0-7.726562-3.460937-7.726562-7.726562 0-4.269531 3.460938-7.726562 7.726562-7.726562 4.265626 0 7.726563 3.457031 7.726563 7.726562zm0 0"/><path d="m169.261719 192.28125c0 4.265625-3.460938 7.726562-7.726563 7.726562-4.269531 0-7.726562-3.460937-7.726562-7.726562 0-4.269531 3.457031-7.726562 7.726562-7.726562 4.265625 0 7.726563 3.457031 7.726563 7.726562zm0 0"/><path d="m109.015625 189.78125c0 4.265625-3.457031 7.722656-7.726563 7.722656-4.265624 0-7.726562-3.457031-7.726562-7.722656 0-4.269531 3.460938-7.726562 7.726562-7.726562 4.269532 0 7.726563 3.457031 7.726563 7.726562zm0 0"/><path d="m157.695312 148.953125c0 4.265625-3.457031 7.726563-7.726562 7.726563-4.265625 0-7.726562-3.460938-7.726562-7.726563 0-4.269531 3.460937-7.726563 7.726562-7.726563 4.269531 0 7.726562 3.457032 7.726562 7.726563zm0 0"/><path d="m229.703125 156.679688c0 4.265624-3.460937 7.726562-7.726563 7.726562-4.265624 0-7.726562-3.460938-7.726562-7.726562 0-4.269532 3.460938-7.726563 7.726562-7.726563 4.265626 0 7.726563 3.457031 7.726563 7.726563zm0 0"/><path d="m229.703125 109.671875c0 4.265625-3.460937 7.726563-7.726563 7.726563-4.265624 0-7.726562-3.460938-7.726562-7.726563 0-4.269531 3.460938-7.726563 7.726562-7.726563 4.265626 0 7.726563 3.457032 7.726563 7.726563zm0 0"/><path d="m290.144531 192.28125c0 4.265625-3.457031 7.726562-7.726562 7.726562-4.265625 0-7.726563-3.460937-7.726563-7.726562 0-4.269531 3.460938-7.726562 7.726563-7.726562 4.269531 0 7.726562 3.457031 7.726562 7.726562zm0 0"/><path d="m350.386719 189.78125c0 4.265625-3.457031 7.722656-7.722657 7.722656-4.269531 0-7.726562-3.457031-7.726562-7.722656 0-4.269531 3.457031-7.726562 7.726562-7.726562 4.265626 0 7.722657 3.457031 7.722657 7.726562zm0 0"/><path d="m301.710938 148.953125c0 4.265625-3.460938 7.726563-7.726563 7.726563-4.269531 0-7.726563-3.460938-7.726563-7.726563 0-4.269531 3.457032-7.726563 7.726563-7.726563 4.265625 0 7.726563 3.457032 7.726563 7.726563zm0 0"/><path d="m315.296875 378.410156c0 4.269532-3.457031 7.726563-7.726563 7.726563-4.265624 0-7.726562-3.457031-7.726562-7.726563 0-4.265625 3.460938-7.726562 7.726562-7.726562 4.269532 0 7.726563 3.460937 7.726563 7.726562zm0 0"/><path d="m282.417969 415.722656c0 4.265625-3.457031 7.726563-7.726563 7.726563-4.265625 0-7.726562-3.460938-7.726562-7.726563s3.460937-7.726562 7.726562-7.726562c4.269532 0 7.726563 3.460937 7.726563 7.726562zm0 0"/><path d="m236.535156 72.539062h-29.121094c-8.128906 0-14.71875-6.59375-14.71875-14.722656v-18.753906c0-8.128906 6.589844-14.722656 14.71875-14.722656h29.121094c8.132813 0 14.722656 6.59375 14.722656 14.722656v18.753906c0 8.128906-6.589843 14.722656-14.722656 14.722656zm0 0"/></g></svg>