<svg height="511pt" viewBox="-34 1 511 511.99961" width="511pt" xmlns="http://www.w3.org/2000/svg"><path d="m114.363281 47.644531s-90.824219 49.789063-95.304687 251.484375c-.859375 50.328125-1.058594 86.621094-.976563 112.238282.09375 29.953124 24.984375 53.859374 54.917969 52.746093l320.957031-11.953125 6.855469-227.851562zm0 0" fill="#9ad880"/><path d="m107.851562 299.128906c0 29.644532-24.03125 53.675782-53.675781 53.675782s-53.675781-24.03125-53.675781-53.675782c0-29.640625 24.03125-53.671875 53.675781-53.671875s53.675781 24.03125 53.675781 53.671875zm0 0" fill="#d8d7da"/><path d="m67.382812 512h316.386719c30.960938 0 45.625-38.050781 22.761719-58.929688-36.308594-33.15625-94.914062-67.960937-180.957031-67.960937s-144.648438 34.804687-180.957031 67.960937c-22.859376 20.878907-8.195313 58.929688 22.765624 58.929688zm0 0" fill="#9dad92"/><path d="m270.863281 450.890625v-62.390625c-14.167969-2.183594-29.25-3.390625-45.289062-3.390625-86.042969 0-144.648438 34.804687-180.953125 67.960937-22.863282 20.875-8.199219 58.929688 22.761718 58.929688h120.929688c62.65625-14.15625 82.550781-61.109375 82.550781-61.109375zm0 0" fill="#8e9b84"/><path d="m133.539062 400.042969c-38.152343 13.222656-67.441406 33.410156-88.917968 53.027343-22.863282 20.875-8.199219 58.929688 22.761718 58.929688h91.464844zm0 0" fill="#9479bc"/><path d="m317.613281 400.042969c38.152344 13.222656 67.441407 33.410156 88.917969 53.027343 22.863281 20.875 8.199219 58.929688-22.761719 58.929688h-91.464843zm0 0" fill="#aa85d6"/><path d="m222.476562 458.027344c-92.566406 0-168.300781-75.734375-168.300781-168.296875v-87.34375c0-92.5625 75.734375-168.300781 168.300781-168.300781 92.5625 0 168.296876 75.734374 168.296876 168.300781v87.34375c0 92.5625-75.734376 168.296875-168.296876 168.296875zm0 0" fill="#f4f4f4"/><path d="m222.476562 34.089844c-92.566406 0-168.300781 75.734375-168.300781 168.296875v87.34375c0 61.578125 33.53125 115.71875 83.222657 145.058593-8.414063-38.714843-7.8125-77.523437-4.378907-109.046874 3.816407-35.011719 21.089844-67.234376 48.09375-89.84375 54.390625-45.542969 70.191407-137.472657 74.480469-198.515626-10.714844-2.160156-21.789062-3.292968-33.117188-3.292968zm0 0" fill="#eaeaea"/><path d="m174.085938 296.082031c0-23.148437-15.535157-41.914062-34.703126-41.914062-19.164062 0-34.703124 18.765625-34.703124 41.914062 0 23.148438 15.539062 41.914063 34.703124 41.914063 19.167969 0 34.703126-18.765625 34.703126-41.914063zm0 0" fill="#898890"/><path d="m340.269531 296.082031c0-23.148437-15.539062-41.914062-34.703125-41.914062-19.167968 0-34.703125 18.765625-34.703125 41.914062 0 23.148438 15.535157 41.914063 34.703125 41.914063 19.164063 0 34.703125-18.765625 34.703125-41.914063zm0 0" fill="#898890"/><g fill="#57565c"><path d="m222.472656 352.667969c-15.988281 0-28.945312-12.960938-28.945312-28.949219v-21.046875c0-4.363281 3.535156-7.902344 7.902344-7.902344h42.089843c4.367188 0 7.902344 3.539063 7.902344 7.902344v21.046875c0 15.988281-12.960937 28.949219-28.949219 28.949219zm0 0"/><path d="m305.566406 310.222656c-4.269531 0-7.726562-3.460937-7.726562-7.726562v-12.828125c0-4.265625 3.457031-7.726563 7.726562-7.726563 4.265625 0 7.726563 3.460938 7.726563 7.726563v12.828125c0 4.265625-3.460938 7.726562-7.726563 7.726562zm0 0"/><path d="m139.382812 310.222656c-4.265624 0-7.726562-3.460937-7.726562-7.726562v-12.828125c0-4.265625 3.460938-7.726563 7.726562-7.726563 4.269532 0 7.726563 3.460938 7.726563 7.726563v12.828125c0 4.265625-3.457031 7.726562-7.726563 7.726562zm0 0"/></g><path d="m197.6875 103.933594s-29.4375 58.226562-73.925781 77.199218c-44.484375 18.96875-69.585938 64.324219-69.585938 64.324219s-37.703125-219.890625 143.511719-219.890625zm0 0" fill="#9ad880"/><path d="m133.527344 176.234375c38.976562-22.496094 64.160156-72.300781 64.160156-72.300781s0-77.195313 0-78.371094c-35.140625 0-62.042969 8.265625-82.589844 21.597656-5.605468 35.1875-7.394531 87.40625 18.429688 129.074219zm0 0" fill="#8dc971"/><path d="m164.59375 91.898438c10.207031 26.378906 30.433594 54.082031 70.09375 69.140624 10.371094 3.9375 18.816406 11.742188 23.722656 21.695313 10.933594 22.164063 35.957032 61.785156 83.804688 87.183594 13.601562 7.21875 22.300781 21.167969 23.171875 36.542969 1.742187 30.773437 3.496093 82.664062-.785157 126.960937-1.589843 16.464844 19.625 24.449219 29.351563 11.070313 22.125-30.425782 46.039063-78.691407 49.277344-147.484376 5.75-122.15625-31.640625-169.585937-69.421875-227.59375-28.6875-44.046874-91.984375-78-157.273438-67.488281-42.019531 6.761719-67.304687 50.277344-51.941406 89.972657zm0 0" fill="#b2e59c"/></svg>