<svg height="512pt" viewBox="-25 0 512 512.00082" width="512pt" xmlns="http://www.w3.org/2000/svg"><path d="m72.792969 512h316.386719c30.960937 0 45.625-38.050781 22.761718-58.929688-36.304687-33.15625-94.910156-67.964843-180.957031-67.964843-86.042969 0-144.648437 34.808593-180.953125 67.964843-22.863281 20.878907-8.199219 58.929688 22.761719 58.929688zm0 0" fill="#c3dfed"/><path d="m313.925781 397.074219c-24.214843-7.402344-51.769531-11.964844-82.9375-11.964844-86.046875 0-144.652343 34.804687-180.957031 67.960937-22.863281 20.878907-8.199219 58.929688 22.761719 58.929688h158.195312c72.773438-26.195312 81.820313-99.019531 82.9375-114.925781zm0 0" fill="#a6cddd"/><path d="m360.515625 377.113281h-259.058594s-125.136719 90.308594 129.527344 134.886719c254.667969-44.578125 129.53125-134.886719 129.53125-134.886719zm0 0" fill="#ff929f"/><path d="m314.078125 393.992188v-16.878907h-212.621094s-125.136719 90.308594 129.527344 134.886719c81.90625-29.480469 83.09375-118.007812 83.09375-118.007812zm0 0" fill="#ff737d"/><path d="m116.363281 299.128906c0 29.644532-24.03125 53.675782-53.675781 53.675782s-53.675781-24.03125-53.675781-53.675782c0-29.640625 24.03125-53.671875 53.675781-53.671875s53.675781 24.03125 53.675781 53.671875zm0 0" fill="#ffaea1"/><path d="m452.960938 299.128906c0 29.644532-24.03125 53.675782-53.675782 53.675782-29.644531 0-53.675781-24.03125-53.675781-53.675782 0-29.640625 24.03125-53.671875 53.675781-53.671875 29.644532 0 53.675782 24.03125 53.675782 53.671875zm0 0" fill="#ffcfc2"/><path d="m230.988281 458.027344c-92.566406 0-168.300781-75.734375-168.300781-168.296875v-87.34375c0-92.5625 75.734375-168.296875 168.300781-168.296875 92.5625 0 168.296875 75.734375 168.296875 168.296875v87.34375c0 92.5625-75.734375 168.296875-168.296875 168.296875zm0 0" fill="#ffe2d9"/><path d="m230.988281 34.089844c-92.566406 0-168.300781 75.734375-168.300781 168.296875v87.34375c0 61.578125 33.53125 115.71875 83.222656 145.058593-8.410156-38.714843-7.8125-77.527343-4.375-109.050781 3.8125-35.007812 21.085938-67.230469 48.089844-89.84375 54.390625-45.542969 70.191406-137.46875 74.484375-198.511719-10.71875-2.160156-21.792969-3.292968-33.121094-3.292968zm0 0" fill="#ffcfc2"/><path d="m132.136719 212.0625s-10.824219 35.992188-44.878907 58.183594c-12.660156 8.253906-29.722656 1.453125-33.34375-13.21875-4.992187-20.234375-8.605468-51.242188.761719-87.21875-.882812-.878906 77.460938 42.253906 77.460938 42.253906zm0 0" fill="#898890"/><path d="m329.835938 212.0625s10.820312 35.992188 44.878906 58.183594c12.660156 8.253906 29.722656 1.453125 33.34375-13.21875 4.992187-20.234375 8.601562-51.242188-.761719-87.21875.882813-.878906-77.460937 42.253906-77.460937 42.253906zm0 0" fill="#898890"/><g fill="#57565c"><path d="m314.078125 310.222656c-4.269531 0-7.726563-3.460937-7.726563-7.726562v-12.828125c0-4.265625 3.457032-7.726563 7.726563-7.726563 4.265625 0 7.726563 3.460938 7.726563 7.726563v12.828125c0 4.265625-3.460938 7.726562-7.726563 7.726562zm0 0"/><path d="m147.894531 310.222656c-4.265625 0-7.726562-3.460937-7.726562-7.726562v-12.828125c0-4.265625 3.460937-7.726563 7.726562-7.726563 4.269531 0 7.726563 3.460938 7.726563 7.726563v12.828125c0 4.265625-3.457032 7.726562-7.726563 7.726562zm0 0"/><path d="m230.988281 318.3125c-10 0-20-3.238281-28.347656-9.710938-3.371094-2.613281-3.984375-7.46875-1.367187-10.839843 2.613281-3.371094 7.46875-3.984375 10.839843-1.371094 11.113281 8.621094 26.632813 8.621094 37.746094 0 3.371094-2.613281 8.226563-2 10.839844 1.371094 2.617187 3.371093 2.003906 8.226562-1.371094 10.839843-8.339844 6.472657-18.339844 9.710938-28.339844 9.710938zm0 0"/></g><path d="m230.988281 47.46875s-100.847656 38.089844-190.078125 29.679688c-25.914062-2.445313-46.433594 21.808593-39.570312 46.917968 14.171875 51.867188 64.300781 121.390625 229.648437 121.390625 165.34375 0 215.472657-69.523437 229.648438-121.390625 6.859375-25.105468-13.660157-49.359375-39.574219-46.917968-89.226562 8.410156-190.074219-29.679688-190.074219-29.679688zm0 0" fill="#c68d6d"/><path d="m328.1875 165.695312v-93.136718c-54.453125-8.945313-97.203125-25.089844-97.203125-25.089844s-100.847656 38.089844-190.078125 29.679688c-25.914062-2.445313-46.429688 21.808593-39.570312 46.917968 13.003906 47.582032 56.242187 110.019532 190.953124 120.011719 98.039063-20.019531 135.898438-78.382813 135.898438-78.382813zm0 0" fill="#b2785b"/><path d="m264.851562 1.648438c-14.117187 4.449218-33.863281 10.765624-33.863281 10.765624s-19.75-6.316406-33.863281-10.765624c-9.292969-2.929688-19.410156-1.9375-27.890625 2.863281-53.339844 30.199219-79.25 79.210937-91.105469 111.230469-6.46875 17.476562 3.464844 36.726562 21.398438 41.789062 28.0625 7.921875 74.011718 17.558594 131.460937 17.558594s103.398438-9.636719 131.460938-17.558594c17.933593-5.0625 27.867187-24.3125 21.394531-41.789062-11.851562-32.019532-37.765625-81.03125-91.101562-111.230469-8.480469-4.804688-18.597657-5.792969-27.890626-2.863281zm0 0" fill="#dd9f80"/><path d="m131.265625 32.863281c-28.519531 27.449219-44.535156 59.640625-53.136719 82.878907-6.46875 17.476562 3.460938 36.726562 21.398438 41.789062 25.480468 7.191406 65.714844 15.800781 115.914062 17.324219-54.980468-34.402344-76.371094-104.101563-84.175781-141.992188zm0 0" fill="#c68d6d"/></svg>