<svg height="511pt" viewBox="-22 1 511 511.99999" width="511pt" xmlns="http://www.w3.org/2000/svg"><path d="m445.179688 202.894531c-14.03125-119.71875-128.277344-173.925781-128.277344-173.925781h-166.210938s-113.90625 54.210938-127.933594 173.925781c-12.566406 107.21875 14.425782 145.398438-20.785156 264.078125-6.664062 22.464844 10.128906 45.027344 33.5625 45.027344h396.867188c23.433594 0 40.226562-22.5625 33.558594-45.027344-35.207032-118.679687-8.21875-156.859375-20.78125-264.078125zm0 0" fill="#c68d6d"/><path d="m119.15625 299.097656c0 29.648438-24.035156 53.683594-53.683594 53.683594-29.648437 0-53.683594-24.035156-53.683594-53.683594 0-29.648437 24.035157-53.683594 53.683594-53.683594 29.648438 0 53.683594 24.035157 53.683594 53.683594zm0 0" fill="#ffaea1"/><path d="m455.800781 299.097656c0 29.648438-24.03125 53.683594-53.679687 53.683594-29.648438 0-53.683594-24.035156-53.683594-53.683594 0-29.648437 24.035156-53.683594 53.683594-53.683594 29.648437 0 53.679687 24.035157 53.679687 53.683594zm0 0" fill="#ffcfc2"/><path d="m75.578125 512h316.433594c30.96875 0 45.632812-38.058594 22.765625-58.941406-36.3125-33.15625-94.925782-67.96875-180.980469-67.96875-86.058594 0-144.671875 34.808594-180.984375 67.96875-22.867188 20.882812-8.199219 58.941406 22.765625 58.941406zm0 0" fill="#c2e8ef"/><path d="m118.449219 389.097656-36.449219 14.855469c-11.578125 4.71875-12.921875 20.574219-2.304688 27.175781l20.648438 12.835938-10.554688 20.382812c-4.074218 7.863282-.644531 17.53125 7.476563 21.070313l60.976563 26.582031h55.578124l-52.996093-122.902344zm0 0" fill="#def4f9"/><path d="m349.144531 389.097656 36.449219 14.855469c11.578125 4.71875 12.917969 20.574219 2.300781 27.175781l-20.648437 12.835938 10.558594 20.382812c4.070312 7.863282.640624 17.53125-7.476563 21.070313l-60.976563 26.582031h-55.578124l52.996093-122.902344zm0 0" fill="#def4f9"/><path d="m233.796875 458.019531c-92.578125 0-168.324219-75.746093-168.324219-168.324219v-87.355468c0-92.578125 75.746094-168.324219 168.324219-168.324219s168.324219 75.746094 168.324219 168.324219v87.355468c0 92.578126-75.746094 168.324219-168.324219 168.324219zm0 0" fill="#ffe2d9"/><path d="m233.796875 34.019531c-92.578125 0-168.324219 75.742188-168.324219 168.324219v87.355469c0 61.585937 33.542969 115.738281 83.242188 145.082031-8.414063-38.722656-7.820313-77.539062-4.386719-109.066406 3.816406-35.019532 21.09375-67.246094 48.101563-89.859375 54.398437-45.546875 70.203124-137.488281 74.496093-198.539063-10.71875-2.164062-21.796875-3.296875-33.128906-3.296875zm0 0" fill="#ffcfc2"/><path d="m211.257812 165.558594v56.574218c0 9.273438 7.585938 16.859376 16.859376 16.859376 16.855468 0 16.855468-14.234376 16.855468-14.234376v-15.964843c0-8.382813 6.859375-15.242188 15.242188-15.242188 8.382812 0 15.242187 6.859375 15.242187 15.242188v30.316406c0 9.269531 7.585938 16.855469 16.855469 16.855469 9.273438 0 16.859375-7.585938 16.859375-16.859375v-73.546875c0-.042969-97.914063 0-97.914063 0zm0 0" fill="#ff929f"/><path d="m233.796875 13.527344c-214.390625 0-168.324219 231.890625-168.324219 231.890625 107.140625-11.292969 116.457032-90.792969 116.457032-90.792969h103.730468s9.316406 79.5 116.460938 90.792969c0-.003907 46.0625-231.890625-168.324219-231.890625zm0 0" fill="#dd9f80"/><g fill="#57565c"><path d="m316.898438 310.191406c-4.269532 0-7.726563-3.460937-7.726563-7.726562v-12.828125c0-4.269531 3.457031-7.730469 7.726563-7.730469 4.269531 0 7.726562 3.460938 7.726562 7.730469v12.828125c0 4.265625-3.457031 7.726562-7.726562 7.726562zm0 0"/><path d="m150.691406 310.191406c-4.265625 0-7.726562-3.460937-7.726562-7.726562v-12.828125c0-4.269531 3.460937-7.730469 7.726562-7.730469 4.269532 0 7.730469 3.460938 7.730469 7.730469v12.828125c0 4.265625-3.460937 7.726562-7.730469 7.726562zm0 0"/><path d="m233.796875 318.28125c-10.003906 0-20.003906-3.234375-28.351563-9.707031-3.371093-2.617188-3.984374-7.472657-1.367187-10.84375 2.613281-3.375 7.46875-3.984375 10.839844-1.371094 11.113281 8.621094 26.640625 8.621094 37.753906 0 3.371094-2.613281 8.226563-2.003906 10.839844 1.371094 2.617187 3.371093 2.003906 8.226562-1.367188 10.84375-8.347656 6.472656-18.347656 9.707031-28.347656 9.707031zm0 0"/></g><path d="m233.796875 0c-44.546875 0-76.582031 13.40625-96.71875 25.847656-15.933594 9.84375-22.558594 29.667969-15.855469 47.15625l29.179688 76.117188c4.828125 12.601562 16.929687 20.917968 30.421875 20.917968h106.320312c13.496094 0 25.59375-8.316406 30.421875-20.917968l29.144532-76.03125c6.714843-17.519532.054687-37.371094-15.925782-47.203125-20.234375-12.453125-52.398437-25.886719-96.988281-25.886719zm0 0" fill="#def4f9"/><path d="m200.566406 96.007812c-2.996094-16.851562 2.609375-34.1875 15.074219-45.910156 21.089844-19.828125 27.53125-38.316406 29.335937-49.8125-3.636718-.1874998-7.363281-.285156-11.179687-.285156-44.546875 0-76.582031 13.40625-96.722656 25.847656-15.933594 9.84375-22.554688 29.667969-15.851563 47.15625l29.175782 76.117188c4.832031 12.601562 16.929687 20.917968 30.425781 20.917968h57.550781c-23.800781-21.074218-33.765625-51.285156-37.808594-74.03125zm0 0" fill="#c2e8ef"/><path d="m286.003906 85.019531c0 28.738281-23.296875 52.039063-52.035156 52.039063s-52.039062-23.300782-52.039062-52.039063 23.300781-52.035156 52.039062-52.035156 52.035156 23.296875 52.035156 52.035156zm0 0" fill="#ff929f"/><path d="m255.335938 77.292969h-13.640626v-13.640625c0-4.269532-3.460937-7.726563-7.726562-7.726563-4.269531 0-7.730469 3.457031-7.730469 7.726563v13.640625h-13.640625c-4.265625 0-7.726562 3.457031-7.726562 7.726562s3.460937 7.726563 7.726562 7.726563h13.640625v13.644531c0 4.265625 3.460938 7.726563 7.730469 7.726563 4.265625 0 7.726562-3.460938 7.726562-7.726563v-13.644531h13.640626c4.269531 0 7.730468-3.457032 7.730468-7.726563s-3.460937-7.726562-7.730468-7.726562zm0 0" fill="#fff"/></svg>