<svg xmlns="http://www.w3.org/2000/svg" height="512pt" version="1.1" viewBox="0 0 512 512" width="512pt">
<g id="surface1">
<path d="M 512 256 C 512 397.386719 397.386719 512 256 512 C 114.613281 512 0 397.386719 0 256 C 0 114.613281 114.613281 0 256 0 C 397.386719 0 512 114.613281 512 256 Z M 512 256 " style=" stroke:none;fill-rule:nonzero;fill:rgb(70.980392%,88.627451%,21.568627%);fill-opacity:1;" />
<path d="M 512 256 C 512 282.050781 508.109375 307.191406 500.871094 330.871094 C 495.839844 347.339844 489.199219 363.101562 481.121094 377.980469 C 472.871094 393.179688 463.121094 407.441406 452.070312 420.589844 C 451.488281 421.28125 450.910156 421.96875 450.320312 422.648438 C 403.378906 477.351562 333.730469 512 256 512 C 178.269531 512 108.621094 477.351562 61.691406 422.648438 C 61.101562 421.960938 60.511719 421.269531 59.941406 420.578125 C 48.878906 407.441406 39.128906 393.179688 30.890625 377.980469 C 27.601562 371.949219 24.558594 365.769531 21.769531 359.449219 C 7.769531 327.820312 0 292.820312 0 256 C 0 209.78125 12.25 166.429688 33.679688 129 C 77.800781 206.070312 160.839844 258 256 258 C 351.160156 258 434.210938 206.070312 478.320312 129 C 499.75 166.429688 512 209.78125 512 256 Z M 512 256 " style=" stroke:none;fill-rule:nonzero;fill:rgb(58.431373%,83.921569%,0%);fill-opacity:1;" />
<path d="M 481.261719 377.699219 C 474.101562 390.921875 465.828125 403.441406 456.539062 415.128906 C 448.101562 425.761719 438.820312 435.699219 428.820312 444.851562 C 383.28125 486.550781 322.609375 512 256 512 C 189.390625 512 128.71875 486.550781 83.179688 444.851562 C 73.179688 435.699219 63.898438 425.761719 55.460938 415.128906 C 46.171875 403.441406 37.898438 390.921875 30.738281 377.699219 Z M 481.261719 377.699219 " style=" stroke:none;fill-rule:nonzero;fill:rgb(19.607843%,23.137255%,35.294118%);fill-opacity:1;" />
<path d="M 251.011719 300.128906 L 238.785156 303.035156 L 203.003906 152.242188 L 209.105469 150.785156 L 215.21875 149.335938 Z M 251.011719 300.128906 " style=" stroke:none;fill-rule:nonzero;fill:rgb(61.960784%,41.176471%,88.627451%);fill-opacity:1;" />
<path d="M 209.082031 150.800781 L 215.195312 149.347656 L 251.039062 300.128906 L 244.929688 301.582031 Z M 209.082031 150.800781 " style=" stroke:none;fill-rule:nonzero;fill:rgb(55.686275%,30.980392%,82.352941%);fill-opacity:1;" />
<path d="M 259.746094 168.410156 C 259.746094 173.625 255.527344 177.84375 250.324219 177.84375 L 197.507812 177.84375 C 193.050781 177.84375 189.019531 176.035156 186.09375 173.113281 C 183.875 170.894531 182.296875 168.03125 181.671875 164.824219 C 181.46875 163.8125 181.363281 162.773438 181.363281 161.699219 C 181.363281 151.140625 191.335938 143.425781 201.550781 146.066406 L 252.675781 159.285156 C 254.761719 159.824219 256.523438 161.03125 257.773438 162.640625 C 258.296875 163.304688 258.71875 164.042969 259.035156 164.824219 C 259.5 165.933594 259.746094 167.152344 259.746094 168.410156 Z M 259.746094 168.410156 " style=" stroke:none;fill-rule:nonzero;fill:rgb(32.54902%,36.862745%,53.72549%);fill-opacity:1;" />
<path d="M 403.394531 307.746094 C 403.394531 318.445312 394.71875 327.121094 384.019531 327.121094 C 373.320312 327.121094 364.644531 318.445312 364.644531 307.746094 C 364.644531 297.046875 373.320312 288.371094 384.019531 288.371094 C 394.71875 288.371094 403.394531 297.046875 403.394531 307.746094 Z M 403.394531 307.746094 " style=" stroke:none;fill-rule:nonzero;fill:rgb(100%,100%,100%);fill-opacity:1;" />
<path d="M 395.152344 307.746094 C 395.152344 313.894531 390.167969 318.878906 384.019531 318.878906 C 377.871094 318.878906 372.886719 313.894531 372.886719 307.746094 C 372.886719 301.597656 377.871094 296.613281 384.019531 296.613281 C 390.167969 296.613281 395.152344 301.597656 395.152344 307.746094 Z M 395.152344 307.746094 " style=" stroke:none;fill-rule:nonzero;fill:rgb(19.215686%,23.137255%,35.294118%);fill-opacity:1;" />
<path d="M 383.933594 237.800781 C 345.359375 237.800781 313.980469 269.179688 313.980469 307.746094 C 313.980469 346.320312 345.359375 377.699219 383.933594 377.699219 C 422.511719 377.699219 453.890625 346.320312 453.890625 307.746094 C 453.890625 269.179688 422.511719 237.800781 383.933594 237.800781 Z M 383.933594 365.140625 C 352.289062 365.140625 326.550781 339.398438 326.550781 307.746094 C 326.550781 276.101562 352.292969 250.359375 383.933594 250.359375 C 415.578125 250.359375 441.328125 276.101562 441.328125 307.746094 C 441.328125 339.398438 415.578125 365.140625 383.933594 365.140625 Z M 383.933594 365.140625 " style=" stroke:none;fill-rule:nonzero;fill:rgb(32.54902%,36.862745%,53.72549%);fill-opacity:1;" />
<path d="M 383.933594 243.535156 C 348.53125 243.535156 319.722656 272.34375 319.722656 307.746094 C 319.722656 343.160156 348.53125 371.96875 383.933594 371.96875 C 419.347656 371.96875 448.15625 343.160156 448.15625 307.746094 C 448.15625 272.34375 419.347656 243.535156 383.933594 243.535156 Z M 383.933594 365.140625 C 352.289062 365.140625 326.550781 339.398438 326.550781 307.746094 C 326.550781 276.101562 352.292969 250.359375 383.933594 250.359375 C 415.578125 250.359375 441.328125 276.101562 441.328125 307.746094 C 441.328125 339.398438 415.578125 365.140625 383.933594 365.140625 Z M 383.933594 365.140625 " style=" stroke:none;fill-rule:nonzero;fill:rgb(19.607843%,23.137255%,35.294118%);fill-opacity:1;" />
<path d="M 384.796875 188.5 C 383.617188 190.074219 381.761719 191.007812 379.777344 191.007812 L 358.640625 191.007812 C 355.179688 191.007812 352.363281 188.199219 352.363281 184.730469 C 352.363281 181.261719 355.179688 178.449219 358.640625 178.449219 L 371.429688 178.449219 L 365.246094 157.066406 L 333.902344 157.066406 L 338.878906 175.023438 L 325.84375 175.023438 L 319.589844 152.460938 C 319.0625 150.574219 319.460938 148.550781 320.640625 146.984375 C 321.828125 145.425781 323.675781 144.507812 325.640625 144.507812 L 369.96875 144.507812 C 372.769531 144.507812 375.226562 146.359375 376 149.042969 L 385.8125 182.984375 C 386.367188 184.878906 385.988281 186.921875 384.796875 188.5 Z M 384.796875 188.5 " style=" stroke:none;fill-rule:nonzero;fill:rgb(32.54902%,36.862745%,53.72549%);fill-opacity:1;" />
<path d="M 390.292969 308.179688 C 390.152344 310.132812 389.105469 312 387.300781 313.101562 C 386.277344 313.726562 385.140625 314.027344 384.023438 314.027344 C 381.910156 314.027344 379.851562 312.960938 378.660156 311.023438 C 359.496094 279.6875 345.007812 245.796875 335.609375 210.289062 L 325.84375 175.023438 L 338.878906 175.023438 L 347.738281 207.003906 C 355.234375 235.34375 366.058594 262.566406 379.988281 288.214844 C 382.976562 293.710938 386.109375 299.125 389.378906 304.472656 C 390.082031 305.621094 390.371094 306.917969 390.292969 308.179688 Z M 390.292969 308.179688 " style=" stroke:none;fill-rule:nonzero;fill:rgb(55.686275%,30.980392%,82.352941%);fill-opacity:1;" />
<path d="M 389.378906 304.46875 C 386.109375 299.125 382.976562 293.707031 379.988281 288.210938 C 366.058594 262.566406 355.234375 235.34375 347.738281 207.003906 L 338.878906 175.023438 L 332.363281 175.023438 L 341.6875 208.683594 C 350.375 241.519531 363.511719 273.003906 380.734375 302.265625 C 382.753906 305.691406 386.328125 307.902344 390.296875 308.175781 C 390.371094 306.917969 390.082031 305.621094 389.378906 304.46875 Z M 389.378906 304.46875 " style=" stroke:none;fill-rule:nonzero;fill:rgb(55.686275%,30.980392%,82.352941%);fill-opacity:1;" />
<path d="M 369.96875 150.785156 L 325.640625 150.785156 L 332.359375 175.023438 L 338.878906 175.023438 L 333.902344 157.066406 L 365.246094 157.066406 L 371.429688 178.449219 L 358.640625 178.449219 C 355.179688 178.449219 352.359375 181.257812 352.359375 184.726562 C 352.359375 188.199219 355.179688 191.007812 358.640625 191.007812 L 359.933594 191.007812 C 359.265625 187.765625 361.742188 184.726562 365.050781 184.726562 L 379.777344 184.726562 Z M 369.96875 150.785156 " style=" stroke:none;fill-rule:nonzero;fill:rgb(19.215686%,23.137255%,35.294118%);fill-opacity:1;" />
<path d="M 152.296875 301.582031 C 152.296875 312.28125 143.621094 320.957031 132.921875 320.957031 C 122.21875 320.957031 113.546875 312.28125 113.546875 301.582031 C 113.546875 290.878906 122.21875 282.207031 132.921875 282.207031 C 143.621094 282.207031 152.296875 290.878906 152.296875 301.582031 Z M 152.296875 301.582031 " style=" stroke:none;fill-rule:nonzero;fill:rgb(100%,100%,100%);fill-opacity:1;" />
<path d="M 132.917969 228.085938 C 91.675781 228.085938 58.109375 261.640625 58.109375 302.894531 C 58.109375 344.144531 91.675781 377.699219 132.917969 377.699219 C 174.171875 377.699219 207.734375 344.144531 207.734375 302.894531 C 207.734375 261.640625 174.171875 228.085938 132.917969 228.085938 Z M 132.917969 361.257812 C 100.738281 361.257812 74.554688 335.074219 74.554688 302.894531 C 74.554688 270.710938 100.738281 244.527344 132.917969 244.527344 C 165.109375 244.527344 191.289062 270.710938 191.289062 302.894531 C 191.289062 335.074219 165.105469 361.257812 132.917969 361.257812 Z M 132.917969 361.257812 " style=" stroke:none;fill-rule:nonzero;fill:rgb(32.54902%,36.862745%,53.72549%);fill-opacity:1;" />
<path d="M 132.917969 235.34375 C 95.671875 235.34375 65.378906 265.648438 65.378906 302.894531 C 65.378906 340.140625 95.671875 370.433594 132.917969 370.433594 C 170.164062 370.433594 200.46875 340.140625 200.46875 302.894531 C 200.46875 265.648438 170.160156 235.34375 132.917969 235.34375 Z M 132.917969 361.257812 C 100.738281 361.257812 74.554688 335.074219 74.554688 302.894531 C 74.554688 270.710938 100.738281 244.527344 132.917969 244.527344 C 165.109375 244.527344 191.289062 270.710938 191.289062 302.894531 C 191.289062 335.074219 165.105469 361.257812 132.917969 361.257812 Z M 132.917969 361.257812 " style=" stroke:none;fill-rule:nonzero;fill:rgb(19.607843%,23.137255%,35.294118%);fill-opacity:1;" />
<path d="M 352.152344 222.34375 L 345.15625 197.703125 C 344.390625 195.007812 341.925781 193.140625 339.117188 193.140625 L 215.449219 193.140625 C 213.554688 193.140625 211.757812 193.992188 210.558594 195.472656 L 128.039062 297.636719 C 126.515625 299.519531 126.207031 302.101562 127.253906 304.285156 C 128.292969 306.46875 130.503906 307.859375 132.917969 307.859375 L 244.898438 307.859375 C 246.28125 307.859375 247.617188 307.402344 248.71875 306.566406 L 349.929688 229.046875 C 351.972656 227.480469 352.855469 224.820312 352.152344 222.34375 Z M 146.066406 295.300781 L 218.449219 205.699219 L 334.367188 205.699219 L 338.90625 221.664062 L 242.777344 295.300781 Z M 146.066406 295.300781 " style=" stroke:none;fill-rule:nonzero;fill:rgb(55.686275%,30.980392%,82.352941%);fill-opacity:1;" />
<path d="M 339.117188 199.421875 L 215.449219 199.421875 L 132.917969 301.582031 L 244.898438 301.582031 L 346.109375 224.0625 Z M 242.777344 295.300781 L 146.066406 295.300781 L 218.449219 205.699219 L 334.367188 205.699219 L 338.90625 221.664062 Z M 242.777344 295.300781 " style=" stroke:none;fill-rule:nonzero;fill:rgb(61.960784%,41.176471%,88.627451%);fill-opacity:1;" />
<path d="M 238.734375 279.570312 L 238.734375 314.273438 L 139.085938 306.222656 L 139.085938 296.460938 L 238.734375 279.570312 M 244.902344 272.273438 L 132.921875 291.25 L 132.921875 311.910156 L 244.902344 320.957031 Z M 244.902344 272.273438 " style=" stroke:none;fill-rule:nonzero;fill:rgb(19.215686%,23.137255%,35.294118%);fill-opacity:1;" />
<path d="M 269.242188 296.613281 C 269.242188 310.058594 258.34375 320.957031 244.902344 320.957031 C 231.457031 320.957031 220.558594 310.058594 220.558594 296.613281 C 220.558594 283.171875 231.457031 272.273438 244.902344 272.273438 C 258.34375 272.273438 269.242188 283.171875 269.242188 296.613281 Z M 269.242188 296.613281 " style=" stroke:none;fill-rule:nonzero;fill:rgb(19.215686%,23.137255%,35.294118%);fill-opacity:1;" />
<path d="M 253.480469 296.613281 C 253.480469 301.351562 249.640625 305.195312 244.902344 305.195312 C 240.164062 305.195312 236.320312 301.351562 236.320312 296.613281 C 236.320312 291.875 240.164062 288.035156 244.902344 288.035156 C 249.640625 288.035156 253.480469 291.875 253.480469 296.613281 Z M 253.480469 296.613281 " style=" stroke:none;fill-rule:nonzero;fill:rgb(100%,100%,100%);fill-opacity:1;" />
<path d="M 259.746094 168.410156 C 259.746094 173.625 255.527344 177.84375 250.324219 177.84375 L 197.507812 177.84375 C 193.050781 177.84375 189.019531 176.035156 186.09375 173.113281 C 183.875 170.894531 182.296875 168.03125 181.671875 164.824219 L 259.035156 164.824219 C 259.5 165.933594 259.746094 167.152344 259.746094 168.410156 Z M 259.746094 168.410156 " style=" stroke:none;fill-rule:nonzero;fill:rgb(19.215686%,23.137255%,35.294118%);fill-opacity:1;" />
<path d="M 143.25 301.582031 C 143.25 307.285156 138.625 311.910156 132.921875 311.910156 C 127.214844 311.910156 122.589844 307.285156 122.589844 301.582031 C 122.589844 295.875 127.214844 291.25 132.921875 291.25 C 138.625 291.25 143.25 295.875 143.25 301.582031 Z M 143.25 301.582031 " style=" stroke:none;fill-rule:nonzero;fill:rgb(19.215686%,23.137255%,35.294118%);fill-opacity:1;" />
<path d="M 137.285156 301.582031 C 137.285156 303.992188 135.332031 305.945312 132.921875 305.945312 C 130.507812 305.945312 128.554688 303.992188 128.554688 301.582031 C 128.554688 299.167969 130.507812 297.214844 132.921875 297.214844 C 135.332031 297.214844 137.285156 299.167969 137.285156 301.582031 Z M 137.285156 301.582031 " style=" stroke:none;fill-rule:nonzero;fill:rgb(100%,100%,100%);fill-opacity:1;" />
<path d="M 131.828125 191.527344 C 132.378906 190.941406 132.648438 190.652344 133.199219 190.066406 C 132.535156 180.394531 124.480469 172.753906 114.636719 172.753906 C 112.578125 172.753906 110.597656 173.09375 108.746094 173.710938 C 108.164062 173.90625 107.511719 173.683594 107.1875 173.160156 C 102.9375 166.277344 95.328125 161.691406 86.648438 161.691406 C 75.277344 161.691406 65.746094 169.558594 63.191406 180.144531 C 63.039062 180.78125 62.433594 181.195312 61.777344 181.15625 C 61.519531 181.140625 61.265625 181.136719 61.003906 181.136719 C 55.289062 181.136719 50.40625 184.664062 48.402344 189.660156 C 48.042969 190.554688 48.710938 191.527344 49.671875 191.527344 Z M 131.828125 191.527344 " style=" stroke:none;fill-rule:nonzero;fill:rgb(100%,100%,100%);fill-opacity:1;" />
<path d="M 113.636719 191.527344 C 114.210938 190.855469 114.414062 190.613281 114.984375 189.945312 C 114.261719 184.738281 109.796875 180.730469 104.390625 180.730469 C 103.351562 180.730469 102.347656 180.882812 101.394531 181.160156 C 100.824219 181.324219 100.214844 181.117188 99.886719 180.621094 C 97.40625 176.855469 93.140625 174.371094 88.296875 174.371094 C 81.910156 174.371094 76.53125 178.6875 74.917969 184.558594 C 74.75 185.164062 74.1875 185.550781 73.5625 185.550781 C 73.558594 185.550781 73.554688 185.550781 73.550781 185.550781 C 70.636719 185.550781 68.097656 187.148438 66.757812 189.511719 C 66.246094 190.410156 66.925781 191.523438 67.957031 191.523438 L 113.636719 191.523438 Z M 113.636719 191.527344 " style=" stroke:none;fill-rule:nonzero;fill:rgb(81.568627%,96.470588%,100%);fill-opacity:1;" />
<path d="M 225.207031 89.488281 C 225.757812 88.902344 226.027344 88.613281 226.574219 88.027344 C 225.914062 78.355469 217.855469 70.714844 208.015625 70.714844 C 205.957031 70.714844 203.976562 71.054688 202.125 71.671875 C 201.539062 71.867188 200.890625 71.644531 200.566406 71.121094 C 196.316406 64.238281 188.707031 59.652344 180.027344 59.652344 C 168.65625 59.652344 159.125 67.519531 156.570312 78.105469 C 156.414062 78.742188 155.8125 79.15625 155.15625 79.117188 C 154.898438 79.101562 154.640625 79.097656 154.382812 79.097656 C 148.667969 79.097656 143.78125 82.625 141.78125 87.621094 C 141.421875 88.515625 142.089844 89.488281 143.050781 89.488281 Z M 225.207031 89.488281 " style=" stroke:none;fill-rule:nonzero;fill:rgb(100%,100%,100%);fill-opacity:1;" />
<path d="M 207.015625 89.488281 C 207.585938 88.816406 207.792969 88.574219 208.363281 87.90625 C 207.640625 82.699219 203.171875 78.691406 197.769531 78.691406 C 196.726562 78.691406 195.722656 78.84375 194.773438 79.121094 C 194.203125 79.285156 193.589844 79.078125 193.265625 78.582031 C 190.78125 74.816406 186.519531 72.332031 181.671875 72.332031 C 175.285156 72.332031 169.910156 76.648438 168.292969 82.519531 C 168.128906 83.125 167.566406 83.511719 166.9375 83.511719 C 166.933594 83.511719 166.929688 83.511719 166.929688 83.511719 C 164.015625 83.511719 161.476562 85.109375 160.132812 87.472656 C 159.625 88.371094 160.300781 89.484375 161.335938 89.484375 Z M 207.015625 89.488281 " style=" stroke:none;fill-rule:nonzero;fill:rgb(81.568627%,96.470588%,100%);fill-opacity:1;" />
<path d="M 381.609375 89.488281 C 382.15625 88.902344 382.425781 88.613281 382.976562 88.027344 C 382.3125 78.355469 374.257812 70.714844 364.417969 70.714844 C 362.355469 70.714844 360.378906 71.054688 358.527344 71.671875 C 357.941406 71.867188 357.292969 71.644531 356.96875 71.121094 C 352.714844 64.238281 345.109375 59.652344 336.425781 59.652344 C 325.054688 59.652344 315.527344 67.519531 312.972656 78.105469 C 312.816406 78.742188 312.210938 79.15625 311.554688 79.117188 C 311.300781 79.101562 311.042969 79.097656 310.78125 79.097656 C 305.070312 79.097656 300.183594 82.625 298.179688 87.621094 C 297.824219 88.515625 298.492188 89.488281 299.453125 89.488281 Z M 381.609375 89.488281 " style=" stroke:none;fill-rule:nonzero;fill:rgb(100%,100%,100%);fill-opacity:1;" />
<path d="M 363.414062 89.488281 C 363.988281 88.816406 364.195312 88.574219 364.765625 87.90625 C 364.042969 82.699219 359.574219 78.691406 354.171875 78.691406 C 353.128906 78.691406 352.125 78.84375 351.175781 79.121094 C 350.605469 79.285156 349.992188 79.078125 349.667969 78.582031 C 347.183594 74.816406 342.921875 72.332031 338.074219 72.332031 C 331.6875 72.332031 326.3125 76.648438 324.695312 82.519531 C 324.53125 83.125 323.96875 83.511719 323.339844 83.511719 C 323.335938 83.511719 323.332031 83.511719 323.328125 83.511719 C 320.414062 83.511719 317.878906 85.109375 316.535156 87.472656 C 316.027344 88.371094 316.703125 89.484375 317.734375 89.484375 Z M 363.414062 89.488281 " style=" stroke:none;fill-rule:nonzero;fill:rgb(81.568627%,96.470588%,100%);fill-opacity:1;" />
<path d="M 473.273438 204.046875 C 473.820312 203.460938 474.09375 203.171875 474.640625 202.585938 C 473.976562 192.914062 465.921875 185.273438 456.082031 185.273438 C 454.019531 185.273438 452.039062 185.613281 450.191406 186.230469 C 449.605469 186.425781 448.957031 186.203125 448.632812 185.679688 C 444.378906 178.796875 436.773438 174.210938 428.089844 174.210938 C 416.71875 174.210938 407.191406 182.078125 404.636719 192.664062 C 404.480469 193.300781 403.875 193.714844 403.21875 193.675781 C 402.964844 193.660156 402.707031 193.652344 402.445312 193.652344 C 396.734375 193.652344 391.847656 197.183594 389.84375 202.179688 C 389.488281 203.070312 390.15625 204.046875 391.117188 204.046875 Z M 473.273438 204.046875 " style=" stroke:none;fill-rule:nonzero;fill:rgb(100%,100%,100%);fill-opacity:1;" />
<path d="M 455.078125 204.046875 C 455.652344 203.375 455.855469 203.132812 456.429688 202.464844 C 455.703125 197.257812 451.238281 193.25 445.832031 193.25 C 444.792969 193.25 443.789062 193.402344 442.835938 193.679688 C 442.269531 193.84375 441.65625 193.636719 441.328125 193.140625 C 438.847656 189.375 434.585938 186.890625 429.738281 186.890625 C 423.351562 186.890625 417.976562 191.207031 416.359375 197.078125 C 416.191406 197.683594 415.632812 198.070312 415.003906 198.070312 C 415 198.070312 414.996094 198.070312 414.992188 198.070312 C 412.078125 198.070312 409.539062 199.664062 408.199219 202.03125 C 407.691406 202.929688 408.367188 204.042969 409.398438 204.042969 L 455.078125 204.042969 Z M 455.078125 204.046875 " style=" stroke:none;fill-rule:nonzero;fill:rgb(81.568627%,96.470588%,100%);fill-opacity:1;" />
</g>
</svg>