<?xml version="1.0" encoding="iso-8859-1"?>
<!-- Generator: Adobe Illustrator 19.0.0, SVG Export Plug-In . SVG Version: 6.00 Build 0)  -->
<svg version="1.1" id="Layer_1" xmlns="http://www.w3.org/2000/svg" xmlns:xlink="http://www.w3.org/1999/xlink" x="0px" y="0px"
	 viewBox="0 0 496.2 496.2" style="enable-background:new 0 0 496.2 496.2;" xml:space="preserve">
<path style="fill:#48A1AF;" d="M248.1,0C111.1,0,0,111.1,0,248.1s111.1,248.1,248.1,248.1s248.1-111.1,248.1-248.1S385.1,0,248.1,0z
	"/>
<path style="fill:#334D5C;" d="M418.5,382.8c-8.5-27.3-81.2-49.3-170.8-49.3s-161.5,22-170,49.3c-2.6,8.5-5.5,22.2-8.3,37.4
	c45.1,46.9,108.5,76,178.7,76s133.6-29.2,178.7-76C424.1,405,421.2,391.2,418.5,382.8z"/>
<polygon style="fill:#1B2A30;" points="247.9,317 205.1,324.9 210.2,335.4 247.8,363.5 286,335.4 291,324.9 "/>
<g>
	<path style="fill:#E2A379;" d="M287,282.1h-77.8c12.1,36.6,1,53.3,1,53.3l26.9,6.1h22l26.9-6.1C286,335.4,274.9,318.7,287,282.1z"
		/>
	<path style="fill:#E2A379;" d="M247.9,317l-37.7,18.4c0,0,16.8,28.1,37.6,28.1s38.2-28.1,38.2-28.1L247.9,317z"/>
</g>
<path style="fill:#263A44;" d="M247.8,333.4c-15.9,0-31.2,0.9-45.5,2.7l45.8,91l45.8-90.9C279.4,334.4,263.9,333.4,247.8,333.4z"/>
<path style="fill:#E2A379;" d="M247.8,322.9c-28.2,0-37.4,12.4-37.4,12.4l37.8,61.3l37.8-61.3C285.9,335.3,275.9,322.9,247.8,322.9z
	"/>
<path style="fill:#BF8A3D;" d="M248.1,115.6c-92.6,0-168.3-8.9-168.3-8.9c0,4.5,11.1,33.4,11.3,33.9c3.8,9.8,38.6,63.2,157.1,63.2
	s152.4-53.3,157-62.9c0.2-0.5,11.4-29.7,11.4-34.1C416.4,106.7,340.7,115.6,248.1,115.6z"/>
<path style="fill:#E6E7E8;" d="M248.1,61.6c-48.7,0-88.3,21.2-88.3,113.6c0,31.3,6.2,55.8,15.5,74.7c20.4,41.6,55.7,56.1,72.8,56.1
	s52.4-14.5,72.8-56.1c9.3-18.9,15.5-43.4,15.5-74.7C336.4,82.8,296.8,61.6,248.1,61.6z"/>
<path style="fill:#F4B382;" d="M248.1,61.6c-48.7,0-78.2,21.2-78.2,113.6c0,31.3,32.2,111.4,78.2,111.4s78.2-80.2,78.2-111.4
	C326.3,82.8,296.8,61.6,248.1,61.6z"/>
<path style="fill:#E6E7E8;" d="M292.1,250.7c0-6.5-19.2-14.2-40.4-15.1c-1,0-3.4,2.3-3.6,2.3s-2.5-2.4-3.4-2.3
	c-21.3,0.9-40.5,8.6-40.5,15.1c0,2-1.6,16.8,5.8,12.5c6.1-7.9,19.8-14,34.5-14.5c1.2,0,2.4,1,3.7,1c1.3,0,2.6-1,3.8-1
	c14.6,0.6,27.6,5.6,34.3,14.5C293.7,267.5,292.1,252.8,292.1,250.7z"/>
<g>
	<path style="fill:#F4B382;" d="M161.4,178c-8.4,1.4-14.9,5.1-10.1,32.9s10.7,29.1,19.1,27.7L161.4,178z"/>
	<path style="fill:#F4B382;" d="M334.9,178l-9,60.6c8.4,1.4,14.3,0.1,19.1-27.7C349.7,183.1,343.3,179.5,334.9,178z"/>
</g>
<path style="fill:#E6E7E8;" d="M248.1,59.1c-58,0-88.3,23.7-88.3,116.1l38.8-68.4c0,0,27.5,4.3,49.5,4.3s46.2-4.3,46.2-4.3
	l42.1,68.4C336.4,82.8,306.1,59.1,248.1,59.1z"/>
<path style="fill:#9B7334;" d="M269.1,22.4c-7.8-2.1-14.4-3.1-21.8-3.1c-6.7,0-15.5,1.2-22.3,3.3c-8.9,0,8,11.5,23,11.5
	S276.4,22.4,269.1,22.4z"/>
<path style="fill:#D19743;" d="M269.1,20.2c-7.6,0-14.4,5.1-21.8,5.2c-6.7,0-13.8-5-22.3-5c-17.9,0-47.8,64.7-47.8,64.7H319
	C319,85.1,283.6,20.2,269.1,20.2z"/>
<g>
	<path style="fill:#E6E7E8;" d="M180.1,138.6l-14.6,2.2c-4.2,10.9-5.6,24.4-5.6,37.5c0,0,8.8-1.9,8.8,2.6l2.8,27.6l3.9-1.9
		C175,183.6,180.1,138.6,180.1,138.6z"/>
	<path style="fill:#E6E7E8;" d="M330.8,140.8l-14.6-0.4c0,0,5.1,43.2,4.9,66.2l3.9,1.9l2.8-27.6c0-4.5,8.8-2.6,8.8-2.6
		C336.5,165.1,335.1,151.7,330.8,140.8z"/>
</g>
<path style="fill:#E2A84B;" d="M248.1,77.1c-92.6,0-168.3,30.8-168.3,30.8c0,4.5,11.3,34.3,11.3,33.9c0-1.1,83.6-7.1,157.1-7.1
	s157,7.4,157,7.4c0.2-0.5,11.4-29.7,11.4-34.1C416.4,107.9,340.7,77.1,248.1,77.1z"/>
<path style="fill:#263A44;" d="M241.1,402.4v93.7c2.3,0.1,4.7,0.1,7,0.1c2.3,0,4.7,0,7-0.1v-93.6h-14V402.4z"/>
<path style="fill:#E2A84B;" d="M330.5,340.3v112.8H165.7V340.2c-9.1,1.6-17.6,3.5-25.6,5.5v125.7c32.7,15.8,69.3,24.7,108.1,24.7
	c38.7,0,75.4-8.9,108-24.7V345.8C348.2,343.7,339.6,341.9,330.5,340.3z"/>
<g>
	<circle style="fill:#424131;" cx="152.8" cy="452.4" r="7.3"/>
	<circle style="fill:#424131;" cx="343.4" cy="452.4" r="7.3"/>
</g>
<g>
	<path style="fill:#263A44;" d="M248.8,407.1c0.3,0.3-43.7-82.2-43.7-82.2l-36,14.2l7,23h32l-11,11L248.8,407.1z"/>
	<path style="fill:#263A44;" d="M327,339.1l-36-14.2c0,0-44,82.5-43.7,82.2l51.7-34l-11-11h32L327,339.1z"/>
</g>
<g>
</g>
<g>
</g>
<g>
</g>
<g>
</g>
<g>
</g>
<g>
</g>
<g>
</g>
<g>
</g>
<g>
</g>
<g>
</g>
<g>
</g>
<g>
</g>
<g>
</g>
<g>
</g>
<g>
</g>
</svg>
