<svg height="150pt" viewBox="-64 0 384 384" width="150pt" xmlns="http://www.w3.org/2000/svg"><path d="m198.160156 160-1.679687 16h-136.960938l-1.679687-16zm0 0" fill="#ff8a65"/><path d="m193.039062 208-15.4375 144h-99.203124l-1.757813-16.238281c28.71875-2.402344 51.359375-26.480469 51.359375-55.761719 0-30.878906-25.121094-56-56-56-2.480469 0-4.878906.160156-7.28125.480469l-1.757812-16.480469zm0 0" fill="#4dd0e1"/><path d="m96 280c0 12.800781-10.160156 23.199219-22.800781 23.839844l-5.039063-47.519532c1.199219-.160156 2.558594-.320312 3.839844-.320312 13.199219 0 24 10.800781 24 24zm0 0" fill="#ff7043"/><path d="m0 144c0 8.800781 7.199219 16 16 16h9.601562l22.476563 209.679688c.882813 8.160156 7.761719 14.320312 15.921875 14.320312h128c8.160156 0 15.039062-6.160156 15.921875-14.320312l22.476563-209.679688h9.601562c8.800781 0 16-7.199219 16-16s-7.199219-16-16-16h-100.238281l-36.480469-116.800781c-2.082031-6.640625-8.242188-11.199219-15.28125-11.199219h-56c-8.800781 0-16 7.199219-16 16s7.199219 16 16 16h44.238281l30 96h-90.238281c-8.800781 0-16 7.199219-16 16zm68.160156 112.320312c1.199219-.160156 2.558594-.320312 3.839844-.320312 13.199219 0 24 10.800781 24 24 0 12.800781-10.160156 23.199219-22.800781 23.839844zm109.441406 95.679688h-99.203124l-1.757813-16.238281c28.71875-2.402344 51.359375-26.480469 51.359375-55.761719 0-30.878906-25.121094-56-56-56-2.480469 0-4.878906.160156-7.28125.480469l-1.757812-16.480469h130.078124zm-49.601562-192h70.160156l-1.679687 16h-136.960938l-1.679687-16zm0 0" fill="#012e52"/></svg>