<?xml version="1.0" encoding="iso-8859-1"?>
<!-- Generator: Adobe Illustrator 19.0.0, SVG Export Plug-In . SVG Version: 6.00 Build 0)  -->
<svg version="1.1" id="Capa_1" xmlns="http://www.w3.org/2000/svg" xmlns:xlink="http://www.w3.org/1999/xlink" x="0px" y="0px"
	 viewBox="0 0 512 512" style="enable-background:new 0 0 512 512;" xml:space="preserve">
<path style="fill:#AFEAF2;" d="M512,256c0,141.385-114.615,256-256,256S0,397.385,0,256S114.615,0,256,0S512,114.615,512,256z"/>
<path style="fill:#D5F3F7;" d="M205,120H39.094c6.624-10.542,13.992-20.566,22.036-30H180c5.523,0,10-4.477,10-10s-4.477-10-10-10
	h-25c-8.284,0-15-6.716-15-15s6.716-15,15-15h130c8.284,0,15,6.716,15,15s-6.716,15-15,15h-75c-5.523,0-10,4.477-10,10
	s4.477,10,10,10h-5c8.284,0,15,6.716,15,15l0,0C220,113.284,213.284,120,205,120z M40,210h25c8.284,0,15-6.716,15-15
	s-6.716-15-15-15H11.472C4.017,204.012,0,229.537,0,256c0,1.337,0.03,2.667,0.051,4H65c8.284,0,15-6.716,15-15l0,0
	c0-8.284-6.716-15-15-15H40c-5.523,0-10-4.477-10-10S34.477,210,40,210z M410,300h25c8.284,0,15-6.716,15-15s-6.716-15-15-15H305
	c-8.284,0-15,6.716-15,15s6.716,15,15,15h25c5.523,0,10,4.477,10,10s-4.477,10-10,10H215c-8.284,0-15,6.716-15,15l0,0
	c0,8.284,6.716,15,15,15h220c8.284,0,15-6.716,15-15l0,0c0-8.284-6.716-15-15-15h-25c-5.523,0-10-4.477-10-10S404.477,300,410,300z
	 M505.84,200H465c-8.284,0-15,6.716-15,15s6.716,15,15,15h45.694C509.666,219.81,508.027,209.802,505.84,200z M325,160h168.372
	c-12.099-29.886-29.668-56.969-51.48-80H415c-8.284,0-15,6.716-15,15s6.716,15,15,15h25c5.523,0,10,4.477,10,10s-4.477,10-10,10H325
	c-8.284,0-15,6.716-15,15l0,0C310,153.284,316.716,160,325,160z"/>
<path style="fill:#FF4343;" d="M225,155c0,2.761-2.239,5-5,5h-1.429L210,220h-30l-8.571-60H170c-2.761,0-5-2.239-5-5s2.239-5,5-5h10
	h30h10C222.761,150,225,152.239,225,155z"/>
<path style="fill:#87523E;" d="M441.074,424.049c-12.163,0.957-27.256-4.05-27.256-4.05l-35.454-130H133.636L98.182,420
	c0,0-17.118,5.678-29.584,3.785c-5.879-0.893-9.583-6.838-8.019-12.575L110,230h40l-10.909,40h233.818L362,230h40l49.033,179.789
	C452.893,416.609,448.122,423.495,441.074,424.049z"/>
<path style="fill:#FF8835;" d="M401.17,141c0,11.598-9.402,21-21,21c-1.13,0-2.232-0.115-3.314-0.286
	c-3.837,5.028-9.874,8.286-16.686,8.286c-10.872,0-19.815-8.263-20.891-18.851c-3.806,5.35-10.043,8.851-17.109,8.851
	c-5.965,0-11.337-2.499-15.16-6.492c-3.828,5.145-9.935,8.492-16.84,8.492c-11.598,0-21-9.402-21-21s9.402-21,21-21
	c0.354,0,0.698,0.036,1.048,0.053C291.716,108.898,300.892,100,312.17,100c11.598,0,21,9.402,21,21c0,0.045-0.006,0.088-0.007,0.132
	c2.403,1.482,4.483,3.425,6.115,5.719C340.355,116.263,349.297,108,360.17,108c8.393,0,15.615,4.935,18.977,12.052
	c0.341-0.016,0.678-0.052,1.023-0.052C391.768,120,401.17,129.402,401.17,141z"/>
<path style="fill:#FF7118;" d="M305.582,155.224c-3.833,4.159-9.31,6.776-15.413,6.776c-11.598,0-21-9.402-21-21s9.402-21,21-21
	c0.354,0,0.698,0.036,1.048,0.053C291.716,108.898,300.892,100,312.17,100c6.105,0,11.585,2.621,15.422,6.781
	c-3.246,3.526-5.315,8.154-5.544,13.272c-0.35-0.017-0.694-0.053-1.048-0.053c-11.598,0-21,9.402-21,21
	C300,146.495,302.128,151.481,305.582,155.224z"/>
<path style="fill:#8D9CA8;" d="M399.93,147.589c0.263,2.379,0.41,4.792,0.41,7.241c0,35.992-29.177,65.17-65.17,65.17
	S270,190.822,270,154.83c0-2.449,0.147-4.862,0.41-7.241H399.93z"/>
<path style="fill:#7A8C98;" d="M350,218.284c-4.766,1.11-9.726,1.716-14.83,1.716c-35.992,0-65.17-29.178-65.17-65.17
	c0-2.449,0.147-4.862,0.41-7.241h29.66c-0.263,2.379-0.41,4.792-0.41,7.241C299.66,185.718,321.156,211.569,350,218.284z"/>
<path style="fill:#DCA050;" d="M140,320v20c0,5.523-4.477,10-10,10H10c-5.523,0-10-4.477-10-10v-20c0-5.523,4.477-10,10-10h120
	C135.523,310,140,314.477,140,320z M502,310H382c-5.523,0-10,4.477-10,10v20c0,5.523,4.477,10,10,10h120c5.523,0,10-4.477,10-10v-20
	C512,314.477,507.523,310,502,310z M100,250h312c5.523,0,10-4.477,10-10v-20c0-5.523-4.477-10-10-10H100c-5.523,0-10,4.477-10,10v20
	C90,245.523,94.477,250,100,250z"/>
<path style="fill:#D09247;" d="M118,220v20c0,5.523,4.477,10,10,10h-28c-5.523,0-10-4.477-10-10v-20c0-5.523,4.477-10,10-10h28
	C122.477,210,118,214.477,118,220z M400,340v-20c0-5.523,4.477-10,10-10h-28c-5.523,0-10,4.477-10,10v20c0,5.523,4.477,10,10,10h28
	C404.477,350,400,345.523,400,340z M38,310H10c-5.523,0-10,4.477-10,10v20c0,5.523,4.477,10,10,10h28c-5.523,0-10-4.477-10-10v-20
	C28,314.477,32.477,310,38,310z"/>
<path style="fill:#BFB617;" d="M460.505,410C413.781,471.948,339.571,512,256,512S98.219,471.948,51.495,410h129.866l-6.856-15.939
	c-0.802-1.865,1.364-3.601,3.01-2.411l24.125,17.456l1.046-57.452c0.041-2.248,3.186-2.729,3.897-0.596l15.464,46.41l22.766-54.951
	c0.881-2.127,4.067-1.326,3.838,0.965l-6.535,65.347l22.009-15.925c1.645-1.19,3.812,0.545,3.01,2.411L260.818,410H460.505z"/>
<path style="fill:#D0C731;" d="M413.267,458C369.87,491.835,315.292,512,256,512s-113.87-20.165-157.267-54h190.953l-6.316-14.684
	c-0.802-1.865,1.364-3.601,3.01-2.411l22.009,15.925l-6.535-65.347c-0.229-2.291,2.957-3.091,3.838-0.965l22.766,54.951
	l15.464-46.41c0.711-2.133,3.856-1.652,3.897,0.596l1.046,57.452l24.125-17.456c1.645-1.19,3.812,0.545,3.01,2.411L369.143,458
	H413.267z"/>
<g>
</g>
<g>
</g>
<g>
</g>
<g>
</g>
<g>
</g>
<g>
</g>
<g>
</g>
<g>
</g>
<g>
</g>
<g>
</g>
<g>
</g>
<g>
</g>
<g>
</g>
<g>
</g>
<g>
</g>
</svg>
