<?xml version="1.0" encoding="iso-8859-1"?>
<!-- Generator: Adobe Illustrator 19.0.0, SVG Export Plug-In . SVG Version: 6.00 Build 0)  -->
<svg version="1.1" id="Capa_1" xmlns="http://www.w3.org/2000/svg" xmlns:xlink="http://www.w3.org/1999/xlink" x="0px" y="0px"
	 viewBox="0 0 512 512" style="enable-background:new 0 0 512 512;" xml:space="preserve">
<path style="fill:#68F2EE;" d="M512,338.5c0,75.599-112.899,135-256,135S0,414.099,0,338.5c0-57.301,65.799-107.1,165.7-126.601
	h180.6C446.201,231.4,512,281.199,512,338.5z"/>
<g>
	<path style="fill:#18DBDB;" d="M512,338.5c0,75.599-112.899,135-256,135V211.899h90.3C446.201,231.4,512,281.199,512,338.5z"/>
	<path style="fill:#18DBDB;" d="M421,338.5c0,48.6-84.901,75-165,75s-165-26.4-165-75c0-28.2,29.399-51.901,80.4-65.101h169.2
		C391.601,286.599,421,310.3,421,338.5z"/>
</g>
<path style="fill:#00B3BD;" d="M421,338.5c0,48.6-84.901,75-165,75V273.399h84.6C391.601,286.599,421,310.3,421,338.5z"/>
<path style="fill:#AEFDFF;" d="M346.901,196L256,38.5L165.099,196c-9.3,15.899-14.099,34.2-14.099,52.5c0,57.9,47.1,105,105,105
	s105-47.1,105-105C361,230.2,356.201,211.899,346.901,196z"/>
<path style="fill:#68F2EE;" d="M361,248.5c0,57.9-47.1,105-105,105v-315L346.901,196C356.201,211.899,361,230.2,361,248.5z"/>
<g>
</g>
<g>
</g>
<g>
</g>
<g>
</g>
<g>
</g>
<g>
</g>
<g>
</g>
<g>
</g>
<g>
</g>
<g>
</g>
<g>
</g>
<g>
</g>
<g>
</g>
<g>
</g>
<g>
</g>
</svg>
