<?xml version="1.0" encoding="iso-8859-1"?>
<!-- Generator: Adobe Illustrator 19.0.0, SVG Export Plug-In . SVG Version: 6.00 Build 0)  -->
<svg version="1.1" id="Capa_1" xmlns="http://www.w3.org/2000/svg" xmlns:xlink="http://www.w3.org/1999/xlink" x="0px" y="0px"
	 viewBox="0 0 512 512" style="enable-background:new 0 0 512 512;" xml:space="preserve">
<path style="fill:#FADA6D;" d="M509.344,180.757l-95.034-78.635c-21.818-18.053-49.251-27.931-77.57-27.931H175.26
	c-28.319,0-55.751,9.878-77.57,27.931L2.656,180.757c-3.089,2.556-3.55,7.121-1.033,10.243l46.767,58.012
	c2.507,3.11,7.044,3.638,10.199,1.187l56.947-44.248c6.478-5.033,15.911-0.417,15.911,7.786v211.57
	c0,6.904,5.597,12.501,12.501,12.501h224.105c6.904,0,12.501-5.597,12.501-12.501v-211.57c0-8.203,9.433-12.819,15.911-7.786
	l56.947,44.248c3.155,2.451,7.692,1.923,10.199-1.187L510.377,191C512.894,187.878,512.433,183.313,509.344,180.757z"/>
<path style="fill:#F2C55A;" d="M380.357,427.448c-166.885-36.712-208.265-220.797-215.87-352.775
	c-24.446,2.173-47.759,11.696-66.797,27.449L2.656,180.757c-3.089,2.556-3.55,7.121-1.033,10.243l46.767,58.012
	c2.507,3.11,7.044,3.638,10.199,1.187l56.947-44.248c6.478-5.033,15.911-0.417,15.911,7.786v211.57
	c0,6.904,5.597,12.501,12.501,12.501h224.105C374.226,437.809,379.341,433.33,380.357,427.448z"/>
<path style="fill:#FFFFFF;" d="M291.013,74.191c0,19.337-15.676,35.013-35.013,35.013s-35.013-15.676-35.013-35.013h-27.089
	c0,34.298,27.804,62.102,62.102,62.102s62.102-27.804,62.102-62.102C318.102,74.191,291.013,74.191,291.013,74.191z"/>
<path style="fill:#EBAC40;" d="M78.362,234.836L21.917,164.82L2.656,180.757c-3.089,2.556-3.55,7.121-1.033,10.243l46.767,58.012
	c2.507,3.11,7.044,3.639,10.199,1.187L78.362,234.836z"/>
<g>
	<path style="fill:#F4BC48;" d="M433.638,234.836l56.445-70.016l19.261,15.938c3.089,2.556,3.55,7.121,1.033,10.243l-46.767,58.012
		c-2.507,3.11-7.044,3.639-10.199,1.187L433.638,234.836z"/>
	<path style="fill:#F4BC48;" d="M380.553,403.98H131.447v21.328c0,6.904,5.597,12.501,12.501,12.501h224.105
		c6.904,0,12.501-5.597,12.501-12.501V403.98H380.553z"/>
</g>
<path style="fill:#EBAC40;" d="M380.357,427.448c-23.308-5.127-44.163-13.135-62.825-23.468H131.447v21.328
	c0,6.904,5.597,12.501,12.501,12.501h224.105C374.226,437.809,379.341,433.33,380.357,427.448z"/>
<g>
	<path style="fill:#60C28E;" d="M235.297,318.938h-31.581c-7.706,0-14.606-3.984-18.459-10.657s-3.853-14.641,0-21.314
		l26.142-45.279c2.071-3.588,6.657-4.816,10.245-2.745c3.587,2.071,4.816,6.658,2.745,10.245l-26.142,45.279
		c-1.645,2.85-0.548,5.365,0,6.314s2.178,3.157,5.468,3.157h31.581c4.142,0,7.5,3.358,7.5,7.5S239.439,318.938,235.297,318.938z"/>
	<path style="fill:#60C28E;" d="M308.284,318.938H256c-4.142,0-7.5-3.358-7.5-7.5s3.358-7.5,7.5-7.5h52.284
		c3.291,0,4.92-2.208,5.468-3.157c0.548-0.949,1.645-3.465,0-6.315l-17.407-30.149c-2.071-3.587-0.842-8.174,2.745-10.245
		s8.174-0.843,10.245,2.745l17.407,30.149c3.853,6.674,3.853,14.642,0,21.315C322.89,314.955,315.989,318.938,308.284,318.938z"/>
	<path style="fill:#60C28E;" d="M294.112,252.939c-2.592,0-5.113-1.345-6.502-3.752l-26.142-45.279
		c-1.646-2.85-4.373-3.157-5.469-3.157s-3.823,0.308-5.469,3.157l-17.407,30.149c-2.072,3.586-6.659,4.817-10.245,2.745
		c-3.587-2.071-4.816-6.658-2.745-10.245l17.407-30.149c3.853-6.673,10.753-10.657,18.459-10.657
		c7.706,0,14.606,3.984,18.459,10.657l26.142,45.279c2.071,3.587,0.842,8.174-2.745,10.245
		C296.674,252.615,295.385,252.939,294.112,252.939z"/>
	<path style="fill:#60C28E;" d="M276.977,337.011c-1.561,0-3.135-0.485-4.482-1.492l-19.06-14.236
		c-3.136-2.342-4.934-5.93-4.934-9.844c0-3.915,1.798-7.503,4.935-9.845l19.06-14.236c3.318-2.479,8.018-1.798,10.497,1.521
		s1.798,8.019-1.521,10.497l-16.151,12.063l16.151,12.063c3.318,2.478,4,7.178,1.521,10.497
		C281.519,335.971,279.262,337.011,276.977,337.011z"/>
	<path style="fill:#60C28E;" d="M291.725,253.592c-1.643,0-3.292-0.335-4.863-1.01l-21.859-9.388
		c-3.806-1.634-5.566-6.045-3.931-9.851s6.046-5.565,9.851-3.931l18.522,7.955l2.372-20.019c0.487-4.113,4.214-7.052,8.33-6.565
		c4.113,0.487,7.053,4.217,6.565,8.33l-2.799,23.624c-0.46,3.887-2.669,7.239-6.059,9.196
		C295.947,253.035,293.842,253.592,291.725,253.592z"/>
	<path style="fill:#60C28E;" d="M223.045,280.146c-3.748,0-6.987-2.805-7.439-6.619l-2.372-20.018l-18.523,7.955
		c-3.806,1.635-8.216-0.125-9.851-3.932c-1.635-3.806,0.126-8.216,3.932-9.851l21.859-9.387c3.595-1.545,7.602-1.309,10.993,0.649
		c3.39,1.957,5.598,5.309,6.058,9.196l2.799,23.624c0.488,4.113-2.452,7.843-6.565,8.33
		C223.637,280.128,223.339,280.146,223.045,280.146z"/>
	<path style="fill:#60C28E;" d="M308.284,318.938H256c-4.142,0-7.5-3.358-7.5-7.5s3.358-7.5,7.5-7.5h52.284
		c3.291,0,4.92-2.208,5.468-3.157c0.548-0.949,1.645-3.465,0-6.315l-15.791-27.35c-2.071-3.587-0.842-8.174,2.745-10.245
		c3.587-2.071,8.174-0.842,10.245,2.745l15.791,27.35c3.853,6.674,3.853,14.642,0,21.315
		C322.89,314.955,315.989,318.938,308.284,318.938z"/>
</g>
<path style="fill:#F4BC48;" d="M220.987,74.191c0,19.337,15.676,35.013,35.013,35.013s35.013-15.676,35.013-35.013H220.987z"/>
<g>
</g>
<g>
</g>
<g>
</g>
<g>
</g>
<g>
</g>
<g>
</g>
<g>
</g>
<g>
</g>
<g>
</g>
<g>
</g>
<g>
</g>
<g>
</g>
<g>
</g>
<g>
</g>
<g>
</g>
</svg>
