<svg width="73" height="73" viewBox="0 0 73 73" fill="none" xmlns="http://www.w3.org/2000/svg">
<path d="M72.82 36.41C72.82 56.5189 56.5189 72.82 36.41 72.82C16.3011 72.82 0 56.5189 0 36.41C0 16.3011 16.3011 0 36.41 0C56.5189 0 72.82 16.3011 72.82 36.41Z" fill="#B5E237"/>
<path d="M72.82 36.41C72.82 40.1151 72.2666 43.6908 71.2372 47.0587C70.5216 49.401 69.5771 51.6427 68.4282 53.7589C67.2548 55.9206 65.8681 57.949 64.2964 59.819C64.2136 59.9174 64.1314 60.0152 64.0475 60.1118C57.3712 67.8921 47.4653 72.82 36.41 72.82C25.3547 72.82 15.4488 67.8921 8.77416 60.1118C8.69026 60.0141 8.60637 59.9157 8.52526 59.8174C6.95188 57.949 5.56517 55.9206 4.39347 53.7589C3.92568 52.9011 3.49288 52.0221 3.09621 51.1232C1.10503 46.6248 0 41.6468 0 36.41C0 29.8365 1.74228 23.6707 4.79015 18.3472C11.0653 29.3087 22.8757 36.6945 36.41 36.6945C49.9443 36.6945 61.7563 29.3087 68.0299 18.3472C71.0777 23.6707 72.82 29.8365 72.82 36.41Z" fill="#95D600"/>
<path d="M68.4482 53.7189C67.4299 55.5995 66.2532 57.3801 64.932 59.0424C64.1498 60.0268 63.3181 60.9713 62.4375 61.8686C55.8284 68.626 46.6092 72.82 36.41 72.82C36.2622 72.82 36.1128 72.8183 35.965 72.8172C35.8495 72.8156 35.7344 72.8145 35.6194 72.8117C35.5767 72.8117 35.5356 72.8117 35.4928 72.8089C26.3403 72.5822 18.0256 68.9771 11.7493 63.1953C11.2815 62.7647 10.8248 62.3225 10.3826 61.8686C10.162 61.6452 9.94755 61.4174 9.73421 61.1885C9.09141 60.4974 8.47528 59.7818 7.88804 59.0424C6.56689 57.3801 5.39019 55.5995 4.37183 53.7189H68.4482Z" fill="#323B5A"/>
<path d="M45.8808 28.6814C45.8808 30.0442 44.7758 31.1493 43.413 31.1493C42.0502 31.1493 40.9451 30.0442 40.9451 28.6814C40.9451 27.3186 42.0502 26.2136 43.413 26.2136C44.7758 26.2136 45.8808 27.3186 45.8808 28.6814Z" fill="#323B5A"/>
<path d="M18.8256 43.413V53.7261H66.562V43.413C66.562 35.2767 59.9663 28.6815 51.8288 28.6815H33.5588C25.4213 28.6815 18.8256 35.2767 18.8256 43.413Z" fill="white"/>
<path d="M18.8256 43.413V53.7261H60.5296V43.413C60.5296 35.2767 53.9339 28.6815 45.7964 28.6815H33.5588C25.4213 28.6815 18.8256 35.2767 18.8256 43.413Z" fill="#D0F6FF"/>
<path d="M18.8256 43.413V53.7261H54.4972V43.413C54.4972 35.2767 47.9014 28.6815 39.7656 28.6815H33.5588C25.4213 28.6815 18.8256 35.2767 18.8256 43.413Z" fill="#DD1265"/>
<path d="M35.6744 28.6815V53.7261H18.825V43.413C18.825 35.2767 25.4213 28.6815 33.5582 28.6815H35.6744Z" fill="#FF7195"/>
<path d="M35.6744 28.6815V53.7261H26.6591V42.7308C26.6591 36.5823 30.192 31.2588 35.3377 28.6815H35.6744Z" fill="#FF3445"/>
<path d="M35.6744 34.746H33.5938L27.808 48.4481H32.4604L33.1632 46.5136H35.6744V43.268H34.3366L35.6744 39.5617V34.746Z" fill="white"/>
<path d="M43.8169 48.4481H38.9884L38.3045 46.5136H35.6744V43.268H37.1906L35.7828 39.2617L35.6744 39.5617V34.746H38.2462L43.8169 48.4481Z" fill="#D0F6FF"/>
<path d="M54.4972 53.7261L45.0886 63.1358C41.8402 66.3842 36.9789 67.4009 32.6993 65.7298L30.1348 64.7286C28.1781 63.9636 26.1625 63.3958 24.1146 63.0264C20.0367 62.2897 15.8383 62.3408 11.7493 63.1953C11.0509 62.5525 10.3781 61.8841 9.73419 61.1885C9.80364 61.0974 9.88475 61.0107 9.98309 60.9313L18.825 53.7261H54.4972Z" fill="#FF9F00"/>
<path d="M35.6744 53.7261L24.1146 63.0264C20.0367 62.2897 15.8383 62.3408 11.7493 63.1953C11.0509 62.5525 10.3781 61.8841 9.73419 61.1885C9.80364 61.0974 9.88475 61.0107 9.98309 60.9313L18.825 53.7261H35.6744Z" fill="#FFE955"/>
</svg>
