<?xml version="1.0" encoding="iso-8859-1"?>
<!-- Generator: Adobe Illustrator 19.0.0, SVG Export Plug-In . SVG Version: 6.00 Build 0)  -->
<svg version="1.1" id="Capa_1" xmlns="http://www.w3.org/2000/svg" xmlns:xlink="http://www.w3.org/1999/xlink" x="0px" y="0px"
	 viewBox="0 0 512 512" style="enable-background:new 0 0 512 512;" xml:space="preserve">
<path style="fill:#FFD15C;" d="M512,256c0,92.504-49.068,173.556-122.597,218.529c-38.849,23.771-84.521,37.47-133.401,37.47
	c-110.947,0-205.405-70.572-240.931-169.272C5.311,315.642,0.003,286.438,0.003,256c0-141.384,114.614-255.998,255.998-255.998
	S512,114.616,512,256z"/>
<circle style="fill:#FFDC8D;" cx="255.998" cy="213.304" r="213.294"/>
<path style="fill:#5C5E70;" d="M389.403,167.245v307.283c-38.849,23.771-84.521,37.47-133.401,37.47
	c-110.947,0-205.405-70.572-240.931-169.272v-175.48H389.403z"/>
<g>
	<path style="fill:#E8E8E8;" d="M358.947,92.75h-31.493V54.377c0-5.88,4.767-10.646,10.646-10.646h10.201
		c5.88,0,10.646,4.767,10.646,10.646V92.75H358.947z"/>
	<path style="fill:#E8E8E8;" d="M77.013,92.75H45.52V54.377c0-5.88,4.767-10.646,10.646-10.646h10.201
		c5.88,0,10.646,4.767,10.646,10.646V92.75H77.013z"/>
</g>
<g>
	<path style="fill:#D6D6D6;" d="M56.166,92.75H45.521V54.377c0-5.88,4.767-10.646,10.646-10.646l0,0v49.02H56.166z"/>
	<path style="fill:#D6D6D6;" d="M338.101,92.75h-10.646V54.377c0-5.88,4.767-10.646,10.646-10.646l0,0V92.75z"/>
</g>
<path style="fill:#5C5560;" d="M367.688,89.978h-48.974c-4.852,0-8.786,3.934-8.786,8.786v20.153h66.547V98.764
	C376.474,93.911,372.54,89.978,367.688,89.978z"/>
<path style="fill:#5C5E70;" d="M332.82,89.978h-14.106c-4.852,0-8.786,3.934-8.786,8.786v20.153h14.106V98.764
	C324.033,93.911,327.967,89.978,332.82,89.978z"/>
<path style="fill:#279FC9;" d="M50.886,89.978H36.78c-4.852,0-8.786,3.934-8.786,8.786v20.153H42.1V98.764
	C42.1,93.911,46.033,89.978,50.886,89.978z"/>
<rect x="15.066" y="167.245" style="fill:#494B5B;" width="374.332" height="24.21"/>
<path style="fill:#5C5560;" d="M85.754,89.978H36.78c-4.852,0-8.786,3.934-8.786,8.786v20.153h66.547V98.764
	C94.54,93.911,90.607,89.978,85.754,89.978z"/>
<path style="fill:#5C5E70;" d="M50.886,89.978H36.78c-4.852,0-8.786,3.934-8.786,8.786v20.153H42.1V98.764
	C42.1,93.911,46.033,89.978,50.886,89.978z"/>
<path style="fill:#E8E8E8;" d="M404.468,175.934H0v-45.056c0-7.831,6.349-14.18,14.18-14.18h376.108
	c7.831,0,14.18,6.349,14.18,14.18V175.934z"/>
<g>
	<path style="fill:#494B5B;" d="M91.969,241.024H80.883c-4.373,0-7.917,3.545-7.917,7.917v21.694H51.27
		c-4.373,0-7.917,3.545-7.917,7.917v11.086c0,4.373,3.545,7.917,7.917,7.917h21.695v21.695c0,4.373,3.545,7.917,7.917,7.917h11.086
		c4.373,0,7.917-3.545,7.917-7.917v-21.695h21.695c4.373,0,7.917-3.545,7.917-7.917v-11.086c0-4.373-3.545-7.917-7.917-7.917H99.886
		v-21.694C99.886,244.568,96.341,241.024,91.969,241.024z"/>
	<path style="fill:#494B5B;" d="M283.656,278.553v11.086c0,4.373,3.545,7.917,7.917,7.917h70.311c4.373,0,7.917-3.545,7.917-7.917
		v-11.086c0-4.373-3.545-7.917-7.917-7.917h-70.311C287.201,270.636,283.656,274.18,283.656,278.553z"/>
</g>
<path style="fill:#4BC999;" d="M336.943,353.281v81.416c-38.153,0-62.899-0.207-78.853-4.795
	c-9.197-2.646-16.986-8.804-21.848-17.047l0,0c0-0.004,0-0.007-0.003-0.011c-3.045-8.424-7.864-27.793-0.494-42.342
	c4.882-9.642,17.374-9.923,21.143-17.22H336.943z"/>
<path style="fill:#1E9E67;" d="M269.977,254.484l40.618,81.233l-34.581-18.659c0,0-6.375,11.527-19.127,36.223
	c-3.769,7.296-8.095,15.747-12.975,25.389c-7.37,14.549-10.718,25.75-7.674,34.174l-42.861-72.682
	c-4.252-7.216-4.548-16.105-0.775-23.584l17.733-35.199l-32.015-18.663L269.977,254.484z"/>
<path style="fill:#4BC999;" d="M509.064,294.839c-3.135,20.647-8.746,40.469-16.509,59.183c-1.39,3.354-2.853,6.666-4.389,9.947
	c-3.406,1.306-6.98,2.163-10.658,2.361c-10.794,0.596-17.283-10.083-25.485-9.697l-40.03-69.329l70.509-40.709
	C493.913,266.355,502.868,282.007,509.064,294.839z"/>
<path style="fill:#1E9E67;" d="M492.555,354.021c-11.922,28.745-28.933,54.857-49.914,77.186l-29.602,1.693l-0.104,25.359
	c-1.776,1.39-3.584,2.748-5.402,4.086l-47.616-67.646l50.04-75.796l1.139,39.277c0,0,13.166-0.24,40.928-1.546
	c8.202-0.387,17.69-0.867,28.473-1.463C484.875,354.93,488.897,354.565,492.555,354.021z"/>
<path style="fill:#4BC999;" d="M315.454,256.817l-70.508-40.708c19.077-33.042,31.629-54.369,43.579-65.891
	c6.89-6.642,16.117-10.308,25.688-10.397l0,0c0.003,0.002,0.006,0.003,0.011,0.002c8.818,1.576,28.001,7.085,36.917,20.743
	c5.91,9.049-0.093,20.009,4.342,26.922L315.454,256.817z"/>
<path style="fill:#1E9E67;" d="M434.498,248.223l-90.659-5.44l33.449-20.618c0,0-6.795-11.284-21.807-34.677
	c-4.435-6.912-9.589-14.883-15.499-23.931c-8.915-13.657-16.942-22.157-25.759-23.733l84.374-0.778
	c8.376-0.074,16.221,4.113,20.812,11.121l21.617,32.957l32.17-18.395L434.498,248.223z"/>
<g>
</g>
<g>
</g>
<g>
</g>
<g>
</g>
<g>
</g>
<g>
</g>
<g>
</g>
<g>
</g>
<g>
</g>
<g>
</g>
<g>
</g>
<g>
</g>
<g>
</g>
<g>
</g>
<g>
</g>
</svg>
