<?xml version="1.0" encoding="iso-8859-1"?>
<!-- Generator: Adobe Illustrator 19.0.0, SVG Export Plug-In . SVG Version: 6.00 Build 0)  -->
<svg version="1.1" id="Capa_1" xmlns="http://www.w3.org/2000/svg" xmlns:xlink="http://www.w3.org/1999/xlink" x="0px" y="0px"
	 viewBox="0 0 512 512" style="enable-background:new 0 0 512 512;" xml:space="preserve">
<path style="fill:#FF525D;" d="M511.863,256.137c0,62.723-22.579,120.193-60.05,164.692C404.881,476.576,334.576,512,256,512
	c-42.202,0-82.022-10.214-117.112-28.312c-30.244-15.602-56.979-37.053-78.701-62.859C22.715,376.33,0.137,318.86,0.137,256.137
	C0.137,114.827,114.69,0.274,256,0.274S511.863,114.827,511.863,256.137z"/>
<circle style="fill:#FF6E7C;" cx="255.999" cy="213.463" r="213.181"/>
<path style="fill:#E8E8E8;" d="M52.796,16.2c-11.815-2.538-23.276,5.846-24.249,17.894C27.9,42.11,29.79,50.398,34.49,57.68
	c7.742,11.969,20.324,16.941,33.108,15.313c5.992-0.767,12.03-2.984,17.635-6.606c5.605-3.623,10.106-8.216,13.266-13.365
	c6.736-10.994,7.371-24.508-0.364-36.476C93.432,9.272,86.653,4.138,79.071,1.434C67.688-2.629,55.335,4.379,52.796,16.2z"/>
<path style="fill:#D6D6D6;" d="M82.248,68.168c-4.739,2.576-9.708,4.196-14.652,4.826c-12.781,1.627-25.364-3.347-33.103-15.315
	c-4.701-7.28-6.592-15.569-5.945-23.584c0.895-11.025,10.567-18.986,21.258-18.308c-3.859,3.284-6.497,8.028-6.942,13.532
	c-0.646,8.015,1.245,16.305,5.945,23.584c7.74,11.968,20.323,16.942,33.103,15.315C82.023,68.204,82.135,68.186,82.248,68.168z"/>
<path style="fill:#E8E8E8;" d="M67.598,72.993l13.238,20.483l0.651,0.251c3.617-3.479,7.961-6.757,12.757-9.856
	c6.216-4.018,12.399-7.227,18.343-9.042L98.498,53.021c-3.16,5.149-7.661,9.743-13.266,13.365
	C79.627,70.009,73.59,72.227,67.598,72.993z"/>
<path style="fill:#D6D6D6;" d="M66.305,71.899l28.459,43.128l6.596-17.898L85.232,66.387C85.232,66.387,75.357,71.87,66.305,71.899z
	"/>
<path style="fill:#C69A6A;" d="M251.777,166.765c-11.566-17.888-28.69-30.012-47.641-35.574
	c-24.895-7.3-46.178-23.602-60.259-45.384c-0.118-0.183-0.233-0.352-0.352-0.528c-1.413-2.11-2.91-3.917-4.479-5.439
	c-3.41-3.305-7.181-5.263-11.211-6.129c-4.781-1.027-9.916-0.517-15.25,1.115c-5.941,1.816-12.122,5.025-18.344,9.046
	c0,0-0.001,0.005-0.008,0.01c-4.789,3.09-9.132,6.375-12.746,9.844c-9.107,8.759-13.587,18.791-8.938,30.33
	c0.767,1.916,1.786,3.863,3.078,5.862l0.06,0.091l2.462,3.809c13.518,20.923,19.53,45.827,16.979,70.607
	c-1.81,17.564,1.795,35.79,11.376,52.036c1.781,0.147,3.552,0.256,5.324,0.328c60.835,2.613,117.108-33.573,140.016-89.927
	L251.777,166.765z"/>
<g>
	<path style="fill:#B58657;" d="M126.573,217.978c-7.413-23.218-8.045-57.452-26.065-85.335c-3.641-5.633-6.068-10.98-7.621-15.929
		c-6.037-19.249,1.135-32.448,1.345-32.831c-4.789,3.09-9.132,6.375-12.746,9.844c-9.107,8.759-13.587,18.791-8.938,30.33
		c0.767,1.916,1.786,3.863,3.078,5.862l0.06,0.091l2.462,3.809c13.518,20.923,19.53,45.827,16.979,70.607
		c-1.81,17.564,1.795,35.79,11.376,52.036c1.781,0.147,3.552,0.256,5.324,0.328c13.748,0.592,27.264-0.799,40.218-3.96
		C139.924,244.089,131.06,232.038,126.573,217.978z"/>
	<circle style="fill:#B58657;" cx="152.317" cy="155.105" r="4.872"/>
	<circle style="fill:#B58657;" cx="120.026" cy="144.244" r="4.872"/>
	<circle style="fill:#B58657;" cx="103.358" cy="137.498" r="4.872"/>
</g>
<path style="fill:#41B787;" d="M344.66,199.176c22.147-18.696,1.339-27.532,3.797-44.927c2.458-17.396,23.195-11.614,34.176-29.608
	c10.982-17.994-20.737-22.321-11.665-37.185c9.072-14.864-8.468-32.022-25.829-35.091c-22.291-3.941-16.539,25.34-30.397,28.693
	c-13.857,3.353-31.495,7.622-27.227,25.259c4.268,17.638-1.206,57.356-26.811,51.357c-25.605-6,5.013,76.19,5.013,76.19"/>
<g>
	<path style="fill:#4BC999;" d="M214.291,185.655c-26.765-22.593-1.619-33.272-4.589-54.295
		c-2.971-21.023-28.03-14.036-41.303-35.781c-13.271-21.745,25.061-26.974,14.098-44.938
		c-10.963-17.964,10.233-38.698,31.213-42.407c26.939-4.762,19.988,30.623,36.735,34.676s38.062,9.211,32.904,30.526
		s1.458,69.316,32.402,62.065c30.944-7.251-6.058,92.075-6.058,92.075"/>
	<path style="fill:#4BC999;" d="M439.935,103.66c16.293-24.703,46.376-44.413,46.892-44.757
		c-18.614-1.019-34.16,5.202-46.313,13.377c0,0,0.452-0.846,1.223-2.39c4.458-8.947,19.606-41.398,19.96-69.889
		c-26.422,20.458-44.947,60.439-44.947,60.439c0.457,8.408-0.274,16.312-1.43,23.058c-2.196,12.817-5.919,21.459-5.919,21.459
		s13.324,6.244,21.948,16.579C433.099,115.431,436.142,109.411,439.935,103.66z"/>
</g>
<path style="fill:#41B787;" d="M416.75,60.439c-0.06-1.101-0.141-2.206-0.243-3.322c-1.255-13.723-5.851-28.533-16.968-41.708
	c0.031,0.617,2.415,36.51-7.499,64.391c-0.982,2.761-2.081,5.446-3.323,8.003c-1.663,3.462-3.576,6.699-5.773,9.613
	c13.449,0.663,26.458,7.54,26.458,7.54L461.696,0C435.274,20.458,416.75,60.439,416.75,60.439z"/>
<path style="fill:#FFD15C;" d="M439.882,141.49c-2.88,5.78-7.099,13.242-12.355,21.879c-1.223,2.015-2.504,4.095-3.837,6.231
	c-5.319,8.511-11.463,17.952-18.199,27.912c-1.416,2.1-2.857,4.214-4.326,6.357c-1.434,2.086-2.89,4.203-4.368,6.329
	c-5.127,7.386-10.504,14.959-16.042,22.566c-1.441,1.987-2.898,3.98-4.37,5.965c-3.479,4.731-7.006,9.462-10.571,14.15
	c-0.045-0.01-0.083-0.023-0.128-0.032c-1.174-0.322-2.34-0.659-3.511-1.011c-7.334-2.214-14.583-5.074-21.673-8.607
	c-3.658-1.822-7.196-3.786-10.611-5.882c-3.217-1.966-6.318-4.05-9.318-6.24c-0.982-0.721-1.957-1.452-2.916-2.192
	c-0.035-0.03-0.073-0.055-0.108-0.086c0.447-1.575,0.891-3.146,1.342-4.718c4.224-14.7,8.717-29.298,13.228-43.141
	c0.772-2.353,1.538-4.683,2.307-6.993c1.023-3.085,2.052-6.13,3.071-9.118c0.802-2.35,1.606-4.668,2.397-6.948
	c2.859-8.177,5.661-15.888,8.344-22.957c0.932-2.46,1.848-4.842,2.748-7.137c0.967-2.469,1.911-4.829,2.839-7.091
	c1.714-4.182,3.346-7.998,4.876-11.381c1.089-2.426,2.124-4.629,3.105-6.596l0.065-0.131c7.965-15.987,19.315-21.63,29.831-22.786
	c0.113-0.013,0.226-0.025,0.336-0.033c4.989-0.509,9.768-0.006,13.896,0.861c3.807,0.795,7.056,1.906,9.385,2.835
	c2.453,0.985,3.893,1.765,3.893,1.765s13.188,6.002,20.722,18.399c0.057,0.098,0.116,0.195,0.173,0.293
	C445.514,113.041,447.852,125.494,439.882,141.49z"/>
<g>
	<path style="fill:#EDBB4C;" d="M329.891,237.348c-3.217-1.966-6.318-4.05-9.318-6.24c-0.982-0.721-1.957-1.452-2.916-2.192
		c-0.036-0.03-0.073-0.055-0.108-0.086c0.447-1.575,0.891-3.146,1.342-4.718c9.365-32.608,20.075-64.727,29.348-89.156
		c0.932-2.46,1.848-4.842,2.748-7.137c0.967-2.469,1.911-4.829,2.839-7.091c2.966-7.235,5.688-13.376,8.046-18.108
		c7.965-15.987,19.315-21.63,29.831-22.786c0.113-0.013,0.226-0.025,0.336-0.033c4.989-0.509,9.768-0.006,13.896,0.861
		c0,0-8.717,2.245-17.219,7.141c-5.649,3.254-11.211,7.68-14.057,13.391C368.551,113.452,338.381,210.041,329.891,237.348z"/>
	<path style="fill:#EDBB4C;" d="M427.528,163.37c-1.223,2.015-2.504,4.095-3.837,6.231l-16.93-8.435
		c-1.801-0.897-2.534-3.085-1.636-4.886c0.45-0.903,1.221-1.533,2.103-1.833c0.885-0.292,1.88-0.253,2.783,0.196L427.528,163.37z"/>
	<path style="fill:#EDBB4C;" d="M380.755,232.764c-1.441,1.987-2.898,3.98-4.37,5.965l-18.169-9.053
		c-1.801-0.897-2.534-3.085-1.636-4.886c0.45-0.903,1.222-1.533,2.103-1.833c0.885-0.292,1.88-0.254,2.783,0.196L380.755,232.764z"
		/>
	<path style="fill:#EDBB4C;" d="M361.773,172.885c-0.45,0.903-1.221,1.533-2.103,1.833c-0.885,0.292-1.88,0.254-2.783-0.196
		l-19.388-9.661c0.802-2.35,1.606-4.668,2.397-6.948l20.241,10.086C361.939,168.896,362.671,171.084,361.773,172.885z"/>
	<path style="fill:#EDBB4C;" d="M361.548,191.563c-0.45,0.903-1.221,1.533-2.103,1.833c-0.885,0.292-1.88,0.254-2.783-0.196
		l-24.542-12.228c0.772-2.353,1.538-4.683,2.307-6.993l25.485,12.698C361.713,187.575,362.446,189.763,361.548,191.563z"/>
	<path style="fill:#EDBB4C;" d="M383.133,117.447c-0.45,0.903-1.221,1.533-2.103,1.833c-0.885,0.292-1.88,0.254-2.783-0.196
		l-19.544-9.738c1.089-2.426,2.124-4.629,3.105-6.596l19.69,9.811C383.298,113.459,384.03,115.646,383.133,117.447z"/>
</g>
<path style="fill:#279FC9;" d="M472.533,191.879l-1.149,12.73l-2.58,28.51l-16.991,187.71C404.881,476.576,334.576,512,256,512
	c-42.202,0-82.022-10.214-117.112-28.312c-30.244-15.602-56.979-37.053-78.701-62.859L40.605,204.62l-1.149-12.741L472.533,191.879
	L472.533,191.879z"/>
<path style="fill:#41B787;" d="M257.56,180.011c2.499-48.662-45.447-131.871-45.447-131.871s75.112,98.343,69.839,135.459"/>
<g>
	<path style="fill:#34ABE0;" d="M468.805,233.12l-16.991,187.71C404.881,476.576,334.576,512,256,512
		c-42.202,0-82.022-10.214-117.112-28.312L121.03,286.276c-2.59-28.552,19.895-53.157,48.562-53.157L468.805,233.12L468.805,233.12z
		"/>
	<path style="fill:#34ABE0;" d="M491.459,211.294c-470.974,0,0.05,0-470.924,0c-5.577,0-10.099-4.521-10.099-10.099v-31.162
		c0-5.577,4.521-10.099,10.099-10.099h470.924c5.577,0,10.099,4.521,10.099,10.099v31.162
		C501.558,206.773,497.037,211.294,491.459,211.294z"/>
</g>
<path style="fill:#FCFCFC;" d="M249.684,437.575v44.075c-20.655,0-34.052-0.112-42.688-2.596c-4.979-1.432-9.195-4.766-11.827-9.229
	l0,0c0-0.002,0-0.004-0.002-0.006c-1.648-4.561-4.258-15.046-0.267-22.922c2.642-5.22,9.406-5.372,11.447-9.323h43.338V437.575z"/>
<path style="fill:#494B5B;" d="M213.432,384.09l21.99,43.976L216.7,417.966c0,0-3.451,6.24-10.355,19.61
	c-2.041,3.95-4.382,8.524-7.024,13.745c-3.989,7.876-5.802,13.941-4.154,18.5l-23.204-39.347c-2.302-3.907-2.463-8.718-0.42-12.768
	l9.6-19.055l-17.332-10.103L213.432,384.09z"/>
<path style="fill:#FCFCFC;" d="M290.317,401.856l38.171-22.038c10.327,17.887,16.929,29.545,19.096,38.267
	c1.249,5.029,0.47,10.346-2.078,14.857l0,0c-0.002,0.001-0.003,0.002-0.004,0.004c-3.126,3.707-10.902,11.21-19.718,11.693
	c-5.842,0.322-9.355-5.46-13.797-5.252L290.317,401.856z"/>
<path style="fill:#494B5B;" d="M262.123,459.995l27.09-41.032l0.612,21.263c0,0,7.13-0.132,22.16-0.838
	c4.442-0.208,9.573-0.467,15.415-0.788c8.816-0.483,14.974-1.946,18.099-5.653l-22.473,39.768
	c-2.232,3.947-6.319,6.492-10.848,6.747l-21.302,1.214l-0.084,20.062L262.123,459.995z"/>
<path style="fill:#FCFCFC;" d="M238.051,385.353l-38.171-22.038c10.327-17.887,17.123-29.434,23.593-35.672
	c3.729-3.596,8.725-5.58,13.906-5.628l0,0c0.002,0.001,0.003,0.002,0.006,0.001c4.774,0.853,15.159,3.836,19.986,11.23
	c3.199,4.899-0.05,10.832,2.35,14.574L238.051,385.353z"/>
<path style="fill:#494B5B;" d="M302.497,380.7l-49.08-2.945l18.108-11.162c0,0-3.679-6.108-11.805-18.773
	c-2.401-3.742-5.191-8.057-8.39-12.956c-4.826-7.394-9.171-11.995-13.945-12.849l45.677-0.422c4.535-0.041,8.782,2.227,11.267,6.021
	l11.703,17.841l17.415-9.958L302.497,380.7z"/>
<g>
	<path style="fill:#FCFCFC;" d="M111.649,274.788V254.13c0-13.408,8.341-18.398,19.099-18.398c10.759,0,19.177,4.989,19.177,18.398
		v20.658c0,13.408-8.419,18.397-19.177,18.397C119.991,293.186,111.649,288.196,111.649,274.788z M137.765,254.13
		c0-5.379-2.651-7.796-7.017-7.796c-4.365,0-6.939,2.417-6.939,7.796v20.658c0,5.378,2.573,7.795,6.939,7.795
		c4.366,0,7.017-2.417,7.017-7.795V254.13z"/>
	<path style="fill:#FCFCFC;" d="M157.726,239.396c0-1.949,1.481-3.665,3.742-3.665h16.136c10.68,0,19.177,3.976,19.177,16.683
		c0,8.731-3.976,13.721-9.432,15.825l9.51,17.228c0.312,0.468,0.39,1.013,0.39,1.403c0,3.04-4.053,6.314-7.638,6.314
		c-1.559,0-3.041-0.623-3.897-2.261l-10.68-20.736h-5.145v18.788c0,2.495-3.04,3.742-6.08,3.742s-6.08-1.247-6.08-3.742V239.396z
		 M169.887,246.334v14.5h7.718c4.366,0,7.017-1.793,7.017-7.25s-2.651-7.25-7.017-7.25H169.887z"/>
	<path style="fill:#FCFCFC;" d="M221.809,246.334c-4.444,0-7.017,2.495-7.017,7.796v20.658c0,5.301,2.573,7.795,6.939,7.795
		c4.366,0,7.017-2.495,7.017-7.795v-2.651h-4.599c-2.338,0-3.665-2.261-3.665-4.678c0-2.261,1.326-4.678,3.665-4.678h13.096
		c2.339,0,3.665,1.793,3.665,3.82v8.186c0,13.408-8.419,18.397-19.177,18.397c-10.758,0-19.099-4.989-19.099-18.397V254.13
		c0-13.408,8.498-18.398,18.709-18.398c11.148,0,19.567,5.613,19.567,15.513c0,4.678-1.949,5.769-6.08,5.769
		c-3.275,0-6.003-0.857-6.08-3.664C228.669,250.543,228.435,246.334,221.809,246.334z"/>
	<path style="fill:#FCFCFC;" d="M244.031,287.728c0-0.234,0.077-0.545,0.156-0.857l14.5-47.553c0.857-2.729,4.366-4.054,7.952-4.054
		c3.585,0,7.093,1.325,7.951,4.054l14.578,47.553c0.077,0.312,0.156,0.623,0.156,0.857c0,2.884-4.444,4.989-7.796,4.989
		c-1.949,0-3.507-0.623-3.976-2.261l-2.651-9.745h-16.448l-2.651,9.745c-0.468,1.636-2.027,2.261-3.977,2.261
		C248.474,292.718,244.031,290.613,244.031,287.728z M272.329,271.358l-5.691-20.892l-5.691,20.892H272.329z"/>
	<path style="fill:#FCFCFC;" d="M320.82,289.444l-14.812-26.973v26.505c0,2.495-3.04,3.742-6.08,3.742
		c-3.04,0-6.08-1.247-6.08-3.742v-49.502c0-2.572,3.04-3.742,6.08-3.742c4.365,0,6.002,0.391,8.965,6.081l12.629,24.088v-26.504
		c0-2.572,3.04-3.665,6.08-3.665c3.04,0,6.08,1.091,6.08,3.665v49.58c0,2.495-3.04,3.742-6.08,3.742
		C324.796,292.718,322.301,292.172,320.82,289.444z"/>
	<path style="fill:#FCFCFC;" d="M342.106,239.396c0-2.572,3.04-3.665,6.08-3.665c3.04,0,6.08,1.091,6.08,3.665v49.58
		c0,2.495-3.04,3.742-6.08,3.742c-3.04,0-6.08-1.247-6.08-3.742V239.396z"/>
	<path style="fill:#FCFCFC;" d="M381.241,246.334c-4.444,0-7.017,2.495-7.017,7.796v20.658c0,5.301,2.573,7.795,7.094,7.795
		c6.237,0,6.626-4.755,6.86-7.795c0.234-2.884,2.884-3.664,6.002-3.664c4.21,0,6.158,1.091,6.158,5.768
		c0,10.368-8.419,16.293-19.567,16.293c-10.212,0-18.709-4.989-18.709-18.397V254.13c0-13.408,8.498-18.398,18.709-18.398
		c11.148,0,19.567,5.613,19.567,15.513c0,4.678-1.949,5.769-6.08,5.769c-3.275,0-5.925-0.857-6.08-3.664
		C388.101,251.323,387.867,246.334,381.241,246.334z"/>
</g>
<g>
</g>
<g>
</g>
<g>
</g>
<g>
</g>
<g>
</g>
<g>
</g>
<g>
</g>
<g>
</g>
<g>
</g>
<g>
</g>
<g>
</g>
<g>
</g>
<g>
</g>
<g>
</g>
<g>
</g>
</svg>
