<?xml version="1.0" encoding="iso-8859-1"?>
<!-- Generator: Adobe Illustrator 19.0.0, SVG Export Plug-In . SVG Version: 6.00 Build 0)  -->
<svg version="1.1" id="Capa_1" xmlns="http://www.w3.org/2000/svg" xmlns:xlink="http://www.w3.org/1999/xlink" x="0px" y="0px"
	 viewBox="0 0 512 512" style="enable-background:new 0 0 512 512;" xml:space="preserve">
<path style="fill:#FFD15C;" d="M512,256c0,13.197-1.003,26.175-2.936,38.839c-3.135,20.647-8.746,40.469-16.509,59.183
	c-1.39,3.354-2.853,6.666-4.389,9.947c-11.557,24.837-26.99,47.512-45.526,67.239c-9.174,9.77-19.111,18.819-29.706,27.052
	c-1.776,1.39-3.584,2.748-5.402,4.086c-32.235,23.719-70.249,40.061-111.522,46.54C282.979,510.934,269.615,512,256,512
	c-53.541,0-103.236-16.436-144.321-44.534c-22.371-15.287-42.193-34.043-58.692-55.484C19.759,368.797,0,314.702,0,256
	C0,114.615,114.615,0,256,0S512,114.615,512,256z"/>
<circle style="fill:#FFDC8D;" cx="256" cy="213.295" r="213.295"/>
<path style="fill:#34ABE0;" d="M296.009,290.586v218.3C282.979,510.934,269.615,512,256,512
	c-82.683,0-156.202-39.194-203.013-100.018V290.586c0-13.113,2.706-25.945,7.805-37.742s12.581-22.559,22.131-31.545
	c19.111-17.983,29.936-43.05,29.936-69.287V50.479h123.277v101.533c0,13.113,2.706,25.945,7.805,37.742
	c5.089,11.797,12.581,22.559,22.131,31.545C285.174,239.282,296.009,264.349,296.009,290.586z"/>
<g>
	<path style="fill:#279FC9;" d="M252.865,65.452c0,13.124-10.648,23.771-23.771,23.771H119.912c-6.562,0-12.518-2.664-16.812-6.959
		c-4.305-4.305-6.969-10.25-6.969-16.812c0-8.986,4.984-16.802,12.34-20.846c3.396-1.87,7.293-2.926,11.442-2.926h109.181
		c4.148,0,8.046,1.055,11.442,2.926c1.494,0.825,2.894,1.808,4.18,2.936c0.408,0.345,0.805,0.711,1.191,1.097
		C250.201,52.945,252.865,58.88,252.865,65.452z"/>
	<path style="fill:#279FC9;" d="M236.136,64.386h-93.508V50.479h-29.769v101.533c0,13.113-2.706,25.945-7.805,37.742
		c-5.089,11.797-12.581,22.559-22.131,31.545c-19.101,17.983-29.936,43.05-29.936,69.287v121.396
		c16.499,21.441,36.321,40.197,58.692,55.484v-176.88c0-26.237,5.601-51.305,15.475-69.287c4.942-8.986,8.808-19.749,11.442-31.545
		c2.633-11.797,4.033-24.628,4.033-37.742V134.04c0-15.963,12.94-28.903,28.903-28.903h64.605L236.136,64.386L236.136,64.386z"/>
	<path style="fill:#279FC9;" d="M252.865,23.771c0,7.158-3.156,13.563-8.15,17.91c-1.285,1.128-2.685,2.111-4.18,2.926
		c-3.396,1.87-7.293,2.936-11.442,2.936H119.912c-4.148,0-8.046-1.066-11.442-2.936c-1.985-1.076-3.793-2.445-5.371-4.023
		c-4.305-4.305-6.969-10.25-6.969-16.812C96.131,10.648,106.778,0,119.912,0h109.181c6.562,0,12.507,2.664,16.812,6.969
		C250.201,11.264,252.865,17.209,252.865,23.771z"/>
</g>
<g>
	<path style="fill:#34ABE0;" d="M252.865,65.452c0,13.124-10.648,23.771-23.771,23.771h-77.845c-6.562,0-12.507-2.664-16.812-6.959
		c-4.295-4.305-6.959-10.25-6.959-16.812c0-7.158,3.156-13.563,8.15-17.91c1.285-1.128,2.685-2.111,4.18-2.936
		c3.396-1.87,7.293-2.926,11.442-2.926h93.466c-1.285,1.128-2.685,2.111-4.18,2.926c1.494,0.825,2.894,1.808,4.18,2.936
		c0.408,0.345,0.805,0.711,1.191,1.097C250.201,52.945,252.865,58.88,252.865,65.452z"/>
	<path style="fill:#34ABE0;" d="M252.865,23.771c0,7.158-3.156,13.563-8.15,17.91c-1.285,1.128-2.685,2.111-4.18,2.926
		c1.494,0.825,2.894,1.808,4.18,2.936h-93.466c-4.148,0-8.046-1.066-11.442-2.936c-1.494-0.815-2.894-1.797-4.18-2.926
		c-0.408-0.345-0.805-0.711-1.191-1.097c-4.295-4.305-6.959-10.25-6.959-16.812C127.478,10.648,138.125,0,151.249,0h77.845
		c6.562,0,12.507,2.664,16.812,6.969C250.201,11.264,252.865,17.209,252.865,23.771z"/>
</g>
<path style="fill:#4BC999;" d="M336.941,353.283v81.416c-38.153,0-62.9-0.207-78.853-4.795c-9.197-2.646-16.986-8.804-21.848-17.048
	l0,0c0-0.003,0-0.007-0.003-0.01c-3.045-8.424-7.864-27.793-0.494-42.342c4.882-9.642,17.375-9.923,21.144-17.22h80.055V353.283z"/>
<path style="fill:#1E9E67;" d="M269.975,254.485l40.618,81.233l-34.581-18.659c0,0-6.375,11.527-19.127,36.223
	c-3.769,7.297-8.095,15.747-12.976,25.389c-7.37,14.549-10.719,25.75-7.674,34.174l-42.862-72.682
	c-4.252-7.216-4.548-16.105-0.775-23.584l17.733-35.199l-32.016-18.663L269.975,254.485z"/>
<path style="fill:#4BC999;" d="M509.064,294.839c-3.135,20.647-8.746,40.469-16.509,59.183c-1.39,3.354-2.853,6.666-4.389,9.947
	c-3.406,1.306-6.98,2.163-10.658,2.361c-10.794,0.596-17.283-10.083-25.485-9.697l-40.03-69.329l70.51-40.709
	C493.913,266.355,502.868,282.008,509.064,294.839z"/>
<path style="fill:#1E9E67;" d="M492.554,354.022c-11.922,28.745-28.933,54.857-49.915,77.187l-29.602,1.693l-0.105,25.36
	c-1.776,1.39-3.584,2.748-5.402,4.086L359.915,394.7l50.04-75.797l1.139,39.278c0,0,13.166-0.24,40.929-1.546
	c8.202-0.387,17.69-0.867,28.473-1.463C484.874,354.931,488.897,354.565,492.554,354.022z"/>
<path style="fill:#4BC999;" d="M315.453,256.818l-70.509-40.708c19.077-33.042,31.629-54.369,43.58-65.891
	c6.89-6.642,16.118-10.308,25.687-10.397l0,0c0.003,0.002,0.006,0.004,0.011,0.002c8.818,1.576,28.001,7.085,36.917,20.743
	c5.91,9.049-0.093,20.009,4.342,26.922L315.453,256.818z"/>
<path style="fill:#1E9E67;" d="M434.498,248.223l-90.66-5.44l33.449-20.618c0,0-6.795-11.284-21.807-34.677
	c-4.435-6.912-9.589-14.884-15.499-23.931c-8.915-13.657-16.942-22.157-25.759-23.733l84.376-0.778
	c8.376-0.074,16.221,4.113,20.812,11.121l21.617,32.957l32.17-18.395L434.498,248.223z"/>
<g>
	<path style="fill:#72BBE8;" d="M208.32,179.845L208.32,179.845c-6.492,0-11.754-5.263-11.754-11.754v-31.346
		c0-6.492,5.263-11.754,11.754-11.754l0,0c6.492,0,11.754,5.263,11.754,11.754v31.346
		C220.075,174.582,214.812,179.845,208.32,179.845z"/>
	<circle style="fill:#72BBE8;" cx="226.346" cy="60.729" r="13.19"/>
	<circle style="fill:#72BBE8;" cx="226.346" cy="18.108" r="13.19"/>
</g>
<g>
</g>
<g>
</g>
<g>
</g>
<g>
</g>
<g>
</g>
<g>
</g>
<g>
</g>
<g>
</g>
<g>
</g>
<g>
</g>
<g>
</g>
<g>
</g>
<g>
</g>
<g>
</g>
<g>
</g>
</svg>
