<?xml version="1.0" encoding="iso-8859-1"?>
<!-- Generator: Adobe Illustrator 19.0.0, SVG Export Plug-In . SVG Version: 6.00 Build 0)  -->
<svg version="1.1" id="Capa_1" xmlns="http://www.w3.org/2000/svg" xmlns:xlink="http://www.w3.org/1999/xlink" x="0px" y="0px"
	 viewBox="0 0 414.4 414.4" style="enable-background:new 0 0 414.4 414.4;" xml:space="preserve">
<path style="fill:#B7F3F9;" d="M70.927,341.6c-76.8-76-76.8-199.2-1.6-276s199.2-76.8,276-1.6s76.8,199.2,1.6,276
	c-61.6,62.4-158.4,76-235.2,32l-50.4,33.6L70.927,341.6z"/>
<g>
	<polygon style="fill:#2AC6BE;" points="170.127,312 170.127,283.2 184.527,283.2 184.527,185.6 170.127,185.6 170.127,156.8 
		238.927,156.8 238.927,283.2 253.327,283.2 253.327,312 	"/>
	<circle style="fill:#2AC6BE;" cx="207.727" cy="104" r="25.6"/>
</g>
<g>
	<path style="fill:#082B33;" d="M207.727,0c-112,0-203.2,91.2-203.2,203.2c0,52.8,20.8,104,57.6,141.6l-8.8,60
		c-0.8,4,2.4,8.8,6.4,9.6c2.4,0,4,0,5.6-1.6l46.4-30.4c99.2,52.8,221.6,14.4,274.4-84s14.4-221.6-84-274.4
		C273.327,8.8,240.527,0,207.727,0z M207.727,390.4c-32,0-64-8-92-24c-2.4-1.6-5.6-1.6-8,0l-36,23.2l7.2-46.4c0-2.4-0.8-4.8-2.4-6.4
		c-73.6-72.8-74.4-191.2-1.6-264s191.2-74.4,264-1.6s74.4,191.2,1.6,264C305.327,370.4,258.127,390.4,207.727,390.4z"/>
	<path style="fill:#082B33;" d="M253.327,275.2h-6.4V156.8c0-4.8-3.2-8-8-8h-68.8c-4.8,0-8,3.2-8,8v28.8c0,4.8,3.2,8,8,8h6.4v81.6
		h-6.4c-4.8,0-8,3.2-8,8V312c0,4.8,3.2,8,8,8h84c4.8,0,8-3.2,8-8v-28.8C261.327,278.4,258.127,275.2,253.327,275.2z M245.327,304
		h-68v-12.8h6.4c4.8,0,8-3.2,8-8v-97.6c0-4.8-3.2-8-8-8h-6.4v-12.8h52.8v118.4c0,4.8,3.2,8,8,8h6.4L245.327,304z"/>
	<path style="fill:#082B33;" d="M207.727,137.6c18.4,0,33.6-15.2,33.6-33.6s-15.2-33.6-33.6-33.6s-33.6,15.2-33.6,33.6
		S189.327,137.6,207.727,137.6L207.727,137.6z M207.727,86.4c9.6,0,17.6,8,17.6,17.6s-8,17.6-17.6,17.6s-17.6-8-17.6-17.6
		S198.127,86.4,207.727,86.4L207.727,86.4L207.727,86.4z"/>
</g>
<g>
</g>
<g>
</g>
<g>
</g>
<g>
</g>
<g>
</g>
<g>
</g>
<g>
</g>
<g>
</g>
<g>
</g>
<g>
</g>
<g>
</g>
<g>
</g>
<g>
</g>
<g>
</g>
<g>
</g>
</svg>
