<?xml version="1.0" encoding="iso-8859-1"?>
<!-- Generator: Adobe Illustrator 19.0.0, SVG Export Plug-In . SVG Version: 6.00 Build 0)  -->
<svg version="1.1" id="Capa_1" xmlns="http://www.w3.org/2000/svg" xmlns:xlink="http://www.w3.org/1999/xlink" x="0px" y="0px"
	 viewBox="0 0 512 512" style="enable-background:new 0 0 512 512;" xml:space="preserve">
<circle style="fill:#41B787;" cx="256" cy="255.999" r="255.999"/>
<circle style="fill:#4BC999;" cx="256" cy="213.295" r="213.295"/>
<g>
	
		<rect x="87.49" y="39.578" transform="matrix(-0.9729 -0.2311 0.2311 -0.9729 399.9814 356.7049)" style="fill:#D6D6D6;" width="266.785" height="230.696"/>
	<path style="fill:#D6D6D6;" d="M292.67,326.206l-158.52-37.655c-55.81-13.257-90.305-69.246-77.049-125.056L86.415,40.086
		l259.572,61.659L292.67,326.206z"/>
</g>
<rect x="154.634" y="40.153" transform="matrix(-0.9863 0.165 -0.165 -0.9863 597.7738 261.3529)" style="fill:#E8E8E8;" width="266.795" height="230.704"/>
<rect x="170.935" y="20.437" transform="matrix(-0.9863 0.165 -0.165 -0.9863 626.8978 219.5024)" style="fill:#F4F4F4;" width="266.795" height="230.704"/>
<rect x="179.817" y="86.71" transform="matrix(-0.9863 0.165 -0.165 -0.9863 607.3212 142.3041)" style="fill:#D6D6D6;" width="235.866" height="19.333"/>
<g>
	<path style="fill:#5C5560;" d="M209.889,91.759l-12.517-15.866l2.872,17.168c0.27,1.615-1.564,2.753-3.533,3.082
		c-1.97,0.329-4.073-0.149-4.344-1.764l-5.365-32.064c-0.279-1.667,1.564-2.753,3.533-3.082c2.829-0.473,3.93-0.399,6.466,2.966
		l10.791,14.235l-2.872-17.168c-0.279-1.667,1.572-2.702,3.541-3.031c1.97-0.329,4.057,0.047,4.335,1.714l5.373,32.114
		c0.27,1.615-1.564,2.753-3.533,3.082C212.82,93.448,211.145,93.366,209.889,91.759z"/>
	<path style="fill:#5C5560;" d="M228.308,68.745l7.574-1.266c1.515-0.254,2.619,1.067,2.889,2.682
		c0.228,1.364-0.209,3.097-1.875,3.376l-7.574,1.266l1.437,8.584l13.532-2.264c1.515-0.254,2.643,1.219,2.956,3.088
		c0.271,1.615-0.14,3.501-1.807,3.78l-17.975,3.007c-1.718,0.287-3.569-0.234-3.839-1.849l-5.364-32.064
		c-0.27-1.615,1.311-2.71,3.028-2.998l17.975-3.007c1.667-0.279,2.669,1.371,2.939,2.986c0.312,1.868-0.275,3.627-1.79,3.881
		l-13.532,2.264L228.308,68.745z"/>
	<path style="fill:#5C5560;" d="M284.285,79.104c-0.31,1.869-2.438,3.108-4.762,3.496c-2.273,0.38-4.84-0.073-5.539-1.773
		L269.357,69.3l-0.624,12.406c-0.109,1.835-2.389,3.099-4.66,3.479c-2.323,0.389-4.79-0.082-5.64-1.755l-15.201-29.12
		c-0.076-0.143-0.169-0.387-0.211-0.639c-0.286-1.717,2.304-3.603,4.577-3.984c1.212-0.203,2.289,0.032,2.769,1.042l12.009,24.62
		l1.134-17.734c0.074-1.414,1.723-2.417,3.44-2.704c1.718-0.287,3.603,0.124,4.134,1.437l6.844,16.4l3.342-27.187
		c0.125-1.111,1.068-1.683,2.281-1.887c2.272-0.38,5.335,0.56,5.624,2.277c0.042,0.253,0.033,0.513,0.008,0.674L284.285,79.104z"/>
	<path style="fill:#5C5560;" d="M311.197,66.816c-1.022-6.111-16.851-2.372-18.828-14.188c-1.267-7.574,4.865-11.559,11.177-12.615
		c2.676-0.447,10.132-1.177,10.792,2.763c0.228,1.364-0.217,4.292-2.438,4.663c-1.818,0.305-3.098-1.454-7.239-0.762
		c-3.585,0.6-4.804,2.309-4.542,3.874c0.844,5.049,16.691,1.412,18.82,14.136c1.217,7.271-3.426,12.096-10.748,13.321
		c-6.615,1.107-12.71-1.196-13.267-4.528c-0.287-1.717,0.806-4.495,2.724-4.816c2.373-0.397,4.513,3.086,9.209,2.3
		C309.179,70.579,311.602,69.24,311.197,66.816z"/>
	
		<rect x="186.326" y="134.794" transform="matrix(-0.9863 0.165 -0.165 -0.9863 493.1897 240.8634)" style="fill:#5C5560;" width="100.53" height="12.244"/>
	
		<rect x="190.473" y="159.579" transform="matrix(-0.9863 0.165 -0.165 -0.9863 505.5175 289.4091)" style="fill:#5C5560;" width="100.53" height="12.244"/>
	
		<rect x="194.612" y="184.376" transform="matrix(-0.9863 0.165 -0.165 -0.9863 517.8304 337.9802)" style="fill:#5C5560;" width="100.53" height="12.244"/>
	
		<rect x="198.76" y="209.161" transform="matrix(-0.9863 0.165 -0.165 -0.9863 530.1583 386.526)" style="fill:#5C5560;" width="100.53" height="12.244"/>
	
		<rect x="319.803" y="112.467" transform="matrix(-0.9863 0.165 -0.165 -0.9863 754.6303 174.4925)" style="fill:#5C5560;" width="100.53" height="12.244"/>
	
		<rect x="329.683" y="136.768" transform="matrix(-0.9863 0.165 -0.165 -0.9863 784.0073 290.2574)" style="fill:#5C5560;" width="100.53" height="81.847"/>
</g>
<path style="fill:#EDBB4C;" d="M472.65,191.708l-1.149,12.737l-2.581,28.526l-17,187.81C404.961,476.557,334.619,512,256.001,512
	c-42.224,0-82.066-10.219-117.175-28.327c-30.26-15.611-57.01-37.073-78.743-62.892L40.491,204.456l-1.149-12.748H472.65z"/>
<g>
	<path style="fill:#FFD15C;" d="M468.919,232.971l-17,187.81C404.961,476.557,334.619,512,256.001,512
		c-42.224,0-82.066-10.219-117.175-28.327l-17.868-197.517c-2.591-28.567,19.905-53.185,48.588-53.185H468.919z"/>
	<path style="fill:#FFD15C;" d="M491.585,211.134c-471.225,0,0.05,0-471.175,0c-5.58,0-10.104-4.523-10.104-10.104v-31.179
		c0-5.58,4.523-10.104,10.104-10.104h471.175c5.58,0,10.104,4.523,10.104,10.104v31.179
		C501.688,206.61,497.165,211.134,491.585,211.134z"/>
</g>
<path style="fill:#FCFCFC;" d="M249.681,437.535v44.099c-20.666,0-34.07-0.112-42.711-2.598c-4.982-1.433-9.2-4.769-11.833-9.234
	l0,0c0-0.002,0-0.004-0.002-0.006c-1.649-4.563-4.26-15.054-0.267-22.934c2.644-5.222,9.411-5.375,11.453-9.328h43.361V437.535z"/>
<path style="fill:#5C5E70;" d="M213.409,384.022l22.001,44.001l-18.731-10.106c0,0-3.452,6.243-10.36,19.621
	c-2.042,3.952-4.384,8.528-7.028,13.752c-3.992,7.881-5.805,13.948-4.157,18.51l-23.217-39.367
	c-2.303-3.909-2.464-8.723-0.42-12.775l9.605-19.065l-17.341-10.108L213.409,384.022z"/>
<path style="fill:#FCFCFC;" d="M290.335,401.798l38.191-22.049c10.333,17.897,16.938,29.561,19.106,38.287
	c1.25,5.031,0.47,10.352-2.079,14.865l0,0c-0.002,0.001-0.003,0.002-0.004,0.005c-3.127,3.709-10.908,11.216-19.729,11.7
	c-5.845,0.322-9.36-5.463-13.804-5.255L290.335,401.798z"/>
<path style="fill:#5C5E70;" d="M262.127,459.967l27.105-41.054l0.612,21.274c0,0,7.134-0.132,22.172-0.838
	c4.444-0.208,9.579-0.467,15.424-0.789c8.821-0.484,14.982-1.947,18.109-5.656l-22.486,39.79c-2.233,3.949-6.323,6.495-10.853,6.751
	l-21.314,1.214l-0.084,20.072L262.127,459.967z"/>
<path style="fill:#FCFCFC;" d="M238.042,385.285l-38.191-22.049c10.333-17.897,17.132-29.449,23.605-35.69
	c3.731-3.598,8.73-5.583,13.914-5.631l0,0c0.002,0.001,0.003,0.002,0.006,0.001c4.776,0.854,15.167,3.838,19.996,11.236
	c3.201,4.902-0.05,10.838,2.351,14.582L238.042,385.285z"/>
<path style="fill:#5C5E70;" d="M302.523,380.63l-49.106-2.947l18.117-11.168c0,0-3.681-6.112-11.812-18.783
	c-2.402-3.744-5.194-8.061-8.395-12.963c-4.828-7.398-9.176-12.002-13.952-12.855l45.702-0.422
	c4.537-0.041,8.787,2.228,11.273,6.024l11.709,17.851l17.425-9.963L302.523,380.63z"/>
<g>
	<path style="fill:#FCFCFC;" d="M149.291,239.251c0-1.95,1.794-3.667,4.523-3.667h16.146c10.295,0,18.407,4.836,18.407,17.94v0.39
		c0,13.104-8.424,18.095-19.187,18.095h-7.722v16.848c0,2.496-3.042,3.744-6.083,3.744s-6.083-1.248-6.083-3.744L149.291,239.251
		L149.291,239.251z M161.458,246.192v16.457h7.722c4.369,0,7.021-2.496,7.021-7.8v-0.858c0-5.304-2.652-7.8-7.021-7.8h-7.722
		V246.192z"/>
	<path style="fill:#FCFCFC;" d="M186.888,287.609c0-0.234,0.077-0.545,0.156-0.858l14.507-47.578
		c0.858-2.73,4.368-4.056,7.956-4.056s7.097,1.326,7.955,4.056l14.586,47.578c0.078,0.312,0.156,0.624,0.156,0.858
		c0,2.886-4.446,4.991-7.8,4.991c-1.95,0-3.51-0.624-3.978-2.262l-2.652-9.75h-16.457l-2.652,9.75
		c-0.468,1.637-2.028,2.262-3.978,2.262C191.335,292.601,186.888,290.495,186.888,287.609z M215.202,271.23l-5.694-20.903
		l-5.694,20.903H215.202z"/>
	<path style="fill:#FCFCFC;" d="M236.733,239.251c0-1.95,1.794-3.667,4.523-3.667h16.146c10.295,0,18.407,4.836,18.407,17.94v0.39
		c0,13.104-8.424,18.095-19.187,18.095H248.9v16.848c0,2.496-3.042,3.744-6.083,3.744s-6.083-1.248-6.083-3.744L236.733,239.251
		L236.733,239.251z M248.901,246.192v16.457h7.722c4.369,0,7.021-2.496,7.021-7.8v-0.858c0-5.304-2.652-7.8-7.021-7.8h-7.722
		V246.192z"/>
	<path style="fill:#FCFCFC;" d="M293.283,259.373h11.699c2.341,0,3.667,2.262,3.667,4.758c0,2.105-1.092,4.602-3.667,4.602h-11.699
		v13.26h20.903c2.34,0,3.667,2.496,3.667,5.381c0,2.496-1.092,5.226-3.667,5.226h-27.767c-2.651,0-5.303-1.248-5.303-3.744v-49.528
		c0-2.496,2.652-3.744,5.303-3.744h27.767c2.575,0,3.667,2.73,3.667,5.226c0,2.886-1.327,5.381-3.667,5.381h-20.903V259.373z"/>
	<path style="fill:#FCFCFC;" d="M323.16,239.251c0-1.95,1.482-3.667,3.744-3.667h16.145c10.686,0,19.187,3.978,19.187,16.692
		c0,8.735-3.979,13.728-9.438,15.833l9.515,17.238c0.312,0.468,0.39,1.014,0.39,1.403c0,3.042-4.055,6.317-7.642,6.317
		c-1.56,0-3.042-0.624-3.9-2.262l-10.686-20.747h-5.148v18.798c0,2.496-3.042,3.744-6.083,3.744c-3.042,0-6.083-1.248-6.083-3.744
		V239.251z M335.327,246.192v14.507h7.722c4.369,0,7.021-1.794,7.021-7.254s-2.652-7.254-7.021-7.254H335.327z"/>
</g>
<g>
</g>
<g>
</g>
<g>
</g>
<g>
</g>
<g>
</g>
<g>
</g>
<g>
</g>
<g>
</g>
<g>
</g>
<g>
</g>
<g>
</g>
<g>
</g>
<g>
</g>
<g>
</g>
<g>
</g>
</svg>
