<?xml version="1.0" encoding="iso-8859-1"?>
<!-- Generator: Adobe Illustrator 19.0.0, SVG Export Plug-In . SVG Version: 6.00 Build 0)  -->
<svg version="1.1" id="Capa_1" xmlns="http://www.w3.org/2000/svg" xmlns:xlink="http://www.w3.org/1999/xlink" x="0px" y="0px"
	 viewBox="0 0 512 512" style="enable-background:new 0 0 512 512;" xml:space="preserve">
<path style="fill:#34ABE0;" d="M512,256c0,123.319-87.197,226.273-203.295,250.567c-9.718,2.038-19.644,3.521-29.727,4.42
	C271.402,511.655,263.743,512,256,512c-8.464,0-16.833-0.408-25.078-1.223c-39.09-3.793-75.588-16.384-107.53-35.756
	c-22.225-13.479-42.235-30.26-59.361-49.643C24.179,380.249,0,320.94,0,256C0,114.615,114.615,0,256,0S512,114.615,512,256z"/>
<circle style="fill:#72BBE8;" cx="256" cy="213.295" r="213.295"/>
<path style="fill:#E8E8E8;" d="M258.372,356.477v1.933c0,12.163,5.747,23.531,15.318,31.044
	c21.316,16.739,35.015,42.726,35.015,71.941v45.171C291.694,510.13,274.066,512,256,512c-76.434,0-145.053-33.499-191.969-86.622
	c6.092-14.179,15.663-26.52,27.648-35.924c9.561-7.513,15.308-18.881,15.308-31.044v-1.933c0-12.163-5.747-23.531-15.308-31.044
	c-21.316-16.739-35.015-42.736-35.015-71.941v-46.226c0-38.546,23.845-71.502,57.595-84.95c10.637-4.242,17.711-14.43,17.711-25.882
	V62.819h101.428v33.614c0,11.452,7.063,21.64,17.711,25.882c33.74,13.448,57.595,46.404,57.595,84.95v46.226
	c0,29.205-13.699,55.202-35.015,71.941C264.119,332.946,258.372,344.315,258.372,356.477z"/>
<path style="fill:#D6D6D6;" d="M233.399,62.83v22.706h-63.687c-3.009,0-5.736,1.223-7.711,3.187
	c-1.964,1.975-3.187,4.702-3.187,7.711c0,11.463-3.333,21.629-8.328,25.882c-15.882,13.448-27.094,46.404-27.094,84.961v46.216
	c0,29.205,6.437,55.212,16.468,71.941c4.493,7.523,7.21,18.871,7.21,31.044v1.933c0,12.163-2.717,23.531-7.21,31.033
	c-10.031,16.75-16.468,42.736-16.468,71.941v13.636c-22.225-13.479-42.235-30.26-59.361-49.643
	c6.081-14.19,15.653-26.52,27.648-35.934c9.561-7.502,15.297-18.871,15.297-31.033v-1.933c0-12.173-5.736-23.521-15.297-31.044
	c-21.337-16.729-35.015-42.736-35.015-71.941v-46.216c0-38.557,23.834-71.513,57.584-84.961
	c10.637-4.253,17.711-14.42,17.711-25.882V62.83H233.399z"/>
<path style="fill:#EF4152;" d="M240.718,22.693v42.402H124.653V22.693c0-12.535,10.157-22.692,22.692-22.692h70.665
	C230.546,0.001,240.718,10.158,240.718,22.693z"/>
<path style="fill:#FF525D;" d="M240.718,22.693v42.402h-82.504V22.693c0-12.535,10.157-22.692,22.692-22.692h37.104
	C230.546,0.001,240.718,10.158,240.718,22.693z"/>
<g>
	<path style="fill:#FCFCFC;" d="M254.949,272.484L254.949,272.484c-13.269,0-24.026-10.757-24.026-24.026v-58.01
		c0-13.269,10.757-24.026,24.026-24.026l0,0c13.269,0,24.026,10.757,24.026,24.026v58.01
		C278.976,261.727,268.219,272.484,254.949,272.484z"/>
	<path style="fill:#FCFCFC;" d="M278.977,481.625v29.362C271.402,511.655,263.743,512,256,512c-8.464,0-16.833-0.408-25.078-1.223
		v-29.153c0-13.27,10.752-24.022,24.022-24.022c6.635,0,12.643,2.685,16.99,7.032C276.292,468.982,278.977,474.99,278.977,481.625z"
		/>
</g>
<path style="fill:#4BC999;" d="M336.941,353.283v81.416c-38.153,0-62.9-0.207-78.853-4.795c-9.197-2.646-16.986-8.804-21.848-17.048
	l0,0c0-0.003,0-0.007-0.003-0.01c-3.045-8.424-7.864-27.793-0.494-42.342c4.882-9.642,17.375-9.923,21.144-17.22h80.055V353.283z"/>
<path style="fill:#1E9E67;" d="M269.976,254.485l40.618,81.233l-34.581-18.659c0,0-6.375,11.527-19.127,36.223
	c-3.769,7.297-8.095,15.747-12.976,25.389c-7.37,14.549-10.719,25.75-7.674,34.174l-42.862-72.682
	c-4.252-7.216-4.548-16.105-0.775-23.584l17.733-35.199l-32.016-18.663L269.976,254.485z"/>
<path style="fill:#4BC999;" d="M509.064,294.839c-3.135,20.647-8.746,40.469-16.509,59.183c-1.39,3.354-2.853,6.666-4.389,9.947
	c-3.406,1.306-6.98,2.163-10.658,2.361c-10.794,0.596-17.283-10.083-25.485-9.697l-40.03-69.329l70.51-40.709
	C493.913,266.355,502.868,282.008,509.064,294.839z"/>
<path style="fill:#1E9E67;" d="M492.554,354.022c-11.922,28.745-28.933,54.857-49.915,77.187l-29.602,1.693l-0.104,25.36
	c-1.776,1.39-3.584,2.748-5.402,4.086L359.915,394.7l50.04-75.797l1.139,39.278c0,0,13.166-0.24,40.929-1.546
	c8.202-0.387,17.69-0.867,28.473-1.463C484.874,354.931,488.897,354.565,492.554,354.022z"/>
<path style="fill:#4BC999;" d="M315.453,256.818l-70.509-40.708c19.077-33.042,31.629-54.369,43.58-65.891
	c6.89-6.642,16.118-10.308,25.687-10.397l0,0c0.003,0.002,0.006,0.004,0.011,0.002c8.818,1.576,28.001,7.085,36.917,20.743
	c5.91,9.049-0.093,20.009,4.342,26.922L315.453,256.818z"/>
<path style="fill:#1E9E67;" d="M434.498,248.223l-90.66-5.44l33.449-20.618c0,0-6.795-11.284-21.807-34.677
	c-4.435-6.912-9.589-14.884-15.499-23.931c-8.915-13.657-16.942-22.157-25.759-23.733l84.375-0.778
	c8.376-0.074,16.221,4.113,20.812,11.121l21.617,32.957l32.17-18.395L434.498,248.223z"/>
<g>
</g>
<g>
</g>
<g>
</g>
<g>
</g>
<g>
</g>
<g>
</g>
<g>
</g>
<g>
</g>
<g>
</g>
<g>
</g>
<g>
</g>
<g>
</g>
<g>
</g>
<g>
</g>
<g>
</g>
</svg>
